<svg width="19" height="18" viewBox="0 0 19 18" fill="none" xmlns="http://www.w3.org/2000/svg">
<path fill-rule="evenodd" clip-rule="evenodd" d="M17.5623 15.4722C17.7125 15.0859 17.8927 14.5065 17.94 13.4335C17.9915 12.2747 18.0044 11.9314 18.0044 9C18.0044 6.06862 17.9915 5.72109 17.94 4.56228C17.8927 3.49351 17.7125 2.90992 17.5623 2.52365C17.3862 2.04718 17.1073 1.618 16.7425 1.26174C16.3906 0.896932 15.957 0.617961 15.4807 0.442095C15.0944 0.29188 14.515 0.111655 13.4421 0.0643779C12.2875 0.0129091 11.9399 0 9.00419 0C6.07299 0 5.72528 0.0129091 4.56648 0.0643779C3.49787 0.111655 2.91411 0.29188 2.52784 0.442095C2.05138 0.617961 1.62219 0.896932 1.2661 1.26174C0.896932 1.61381 0.617961 2.04718 0.441928 2.52365C0.291712 2.90992 0.111488 3.48932 0.064378 4.56228C0.0127416 5.71673 0 6.06862 0 9C0 11.9314 0.0127416 12.2791 0.064378 13.4379C0.111488 14.5065 0.291712 15.0903 0.441928 15.4765C0.617961 15.9528 0.896932 16.382 1.26174 16.7383C1.61364 17.1031 2.04719 17.382 2.52348 17.5581C2.90975 17.7083 3.48915 17.8885 4.56212 17.9356C5.71673 17.9873 6.06863 18 9 18C11.9314 18 12.2789 17.9873 13.4377 17.9356C14.5065 17.8885 15.0901 17.7083 15.4764 17.5581C16.4335 17.1889 17.1931 16.4293 17.5623 15.4722ZM3.35168 8.99141C3.35168 5.87545 5.87968 3.34761 8.99548 3.34761C12.1114 3.34761 14.6393 5.87545 14.6393 8.99141C14.6393 12.1074 12.1114 14.6352 8.99548 14.6352C5.87968 14.6352 3.35168 12.1074 3.35168 8.99141ZM5.33448 8.99141C5.33448 11.0129 6.97411 12.6524 8.99548 12.6524C11.017 12.6524 12.6565 11.0129 12.6565 8.99141C12.6565 6.96988 11.017 5.33042 8.99548 5.33042C6.97411 5.33042 5.33448 6.96988 5.33448 8.99141ZM16.1803 3.12451C16.1803 3.85211 15.5903 4.44208 14.8626 4.44208C14.135 4.44208 13.545 3.85211 13.545 3.12451C13.545 2.39673 14.135 1.80694 14.8626 1.80694C15.5903 1.80694 16.1803 2.39673 16.1803 3.12451Z" fill="url(#paint0_linear)"/>
<defs>
<linearGradient id="paint0_linear" x1="-1.99154" y1="19.9743" x2="19.9784" y2="-1.99569" gradientUnits="userSpaceOnUse">
<stop stop-color="#FEDA75"/>
<stop offset="0.25" stop-color="#FA7E1E"/>
<stop offset="0.5" stop-color="#D62976"/>
<stop offset="0.75" stop-color="#962FBF"/>
<stop offset="1" stop-color="#4F5BD5"/>
</linearGradient>
</defs>
</svg>
