<svg width="26" height="14" viewBox="0 0 26 14" fill="none" xmlns="http://www.w3.org/2000/svg">
<path fill-rule="evenodd" clip-rule="evenodd" d="M24.2539 0.947988C24.4193 0.401537 24.2539 0 23.4665 0H20.8627C20.2007 0 19.8955 0.346869 19.73 0.729362C19.73 0.729362 18.4059 3.92607 16.5301 6.00254C15.9233 6.60361 15.6474 6.79486 15.3164 6.79486C15.1509 6.79486 14.9026 6.60361 14.9026 6.0572V0.947988C14.9026 0.292247 14.7192 0 14.1674 0H10.0759C9.66214 0 9.41333 0.304345 9.41333 0.592783C9.41333 1.21441 10.3512 1.35777 10.4478 3.10641V6.90419C10.4478 7.73684 10.296 7.8878 9.96499 7.8878C9.08231 7.8878 6.93519 4.67682 5.66176 1.00261C5.41219 0.288472 5.16189 0 4.49644 0H1.89272C1.14879 0 1 0.346869 1 0.729362C1 1.41244 1.88272 4.80039 5.1101 9.2812C7.26167 12.3412 10.2931 14 13.0516 14C14.7066 14 14.9114 13.6316 14.9114 12.997V10.6842C14.9114 9.94737 15.0682 9.80031 15.5923 9.80031C15.9784 9.80031 16.6405 9.99156 18.1852 11.467C19.9506 13.2156 20.2417 14 21.2347 14H23.8384C24.5824 14 24.9543 13.6316 24.7397 12.9045C24.5049 12.1799 23.662 11.1286 22.5436 9.88227C21.9367 9.17191 21.0264 8.40692 20.7506 8.02434C20.3644 7.5326 20.4747 7.31397 20.7506 6.87686C20.7506 6.87686 23.9228 2.45067 24.2539 0.947988Z" fill="#4C77A6"/>
</svg>
