<svg width="28" height="28" viewBox="0 0 28 28" fill="none" xmlns="http://www.w3.org/2000/svg">
<rect width="28" height="28" fill="url(#paint0_linear)"/>
<path fill-rule="evenodd" clip-rule="evenodd" d="M22.9508 10.292C22.9086 9.33564 22.7539 8.67812 22.5324 8.10836C22.3038 7.50359 21.9522 6.96213 21.4915 6.51201C21.0414 6.05489 20.4964 5.69969 19.8986 5.4747C19.3255 5.25315 18.6714 5.09848 17.715 5.05632C16.7515 5.01058 16.4456 5 14.0018 5C11.5579 5 11.252 5.01058 10.292 5.05274C9.33564 5.09491 8.67812 5.24971 8.1085 5.47113C7.50359 5.69969 6.96213 6.05132 6.51201 6.51201C6.05489 6.96213 5.69983 7.50716 5.4747 8.10493C5.25315 8.67812 5.09848 9.33207 5.05632 10.2885C5.01058 11.252 5 11.5579 5 14.0018C5 16.4456 5.01058 16.7515 5.05274 17.7115C5.09491 18.6679 5.24971 19.3254 5.47127 19.8952C5.69983 20.4999 6.05489 21.0414 6.51201 21.4915C6.96213 21.9486 7.50716 22.3038 8.10493 22.5288C8.67812 22.7504 9.33207 22.905 10.2886 22.9472C11.2485 22.9895 11.5545 22.9999 13.9983 22.9999C16.4422 22.9999 16.7481 22.9895 17.708 22.9472C18.6644 22.905 19.322 22.7504 19.8916 22.5288C21.1013 22.0611 22.0577 21.1047 22.5254 19.8952C22.7468 19.322 22.9016 18.6679 22.9438 17.7115C22.9859 16.7515 22.9965 16.4456 22.9965 14.0018C22.9965 11.5579 22.9929 11.252 22.9508 10.292ZM21.3298 17.6411C21.2911 18.5202 21.1434 18.9949 21.0204 19.3114C20.7179 20.0956 20.0956 20.7179 19.3114 21.0204C18.9949 21.1434 18.5168 21.2911 17.6411 21.3297C16.6917 21.372 16.407 21.3824 14.0053 21.3824C11.6037 21.3824 11.3154 21.372 10.3694 21.3297C9.4903 21.2911 9.0156 21.1434 8.69913 21.0204C8.3089 20.8761 7.9537 20.6476 7.66539 20.3487C7.36651 20.0568 7.13795 19.7052 6.99372 19.315C6.87065 18.9985 6.72299 18.5202 6.6844 17.6447C6.64209 16.6953 6.63165 16.4104 6.63165 14.0088C6.63165 11.6071 6.64209 11.3188 6.6844 10.373C6.72299 9.49387 6.87065 9.01917 6.99372 8.7027C7.13795 8.31234 7.36651 7.95727 7.66896 7.66883C7.96071 7.36994 8.31234 7.14138 8.7027 6.99729C9.01917 6.87422 9.49745 6.72656 10.373 6.68783C11.3224 6.64566 11.6072 6.63508 14.0088 6.63508C16.414 6.63508 16.6987 6.64566 17.6447 6.68783C18.5238 6.72656 18.9985 6.87422 19.315 6.99729C19.7052 7.14138 20.0604 7.36994 20.3487 7.66883C20.6476 7.96071 20.8762 8.31234 21.0204 8.7027C21.1434 9.01917 21.2911 9.49731 21.3298 10.373C21.372 11.3224 21.3826 11.6071 21.3826 14.0088C21.3826 16.4104 21.372 16.6917 21.3298 17.6411ZM14.0017 9.37783C11.4489 9.37783 9.37772 11.4489 9.37772 14.0018C9.37772 16.5547 11.4489 18.6257 14.0017 18.6257C16.5546 18.6257 18.6256 16.5547 18.6256 14.0018C18.6256 11.4489 16.5546 9.37783 14.0017 9.37783ZM14.0017 17.0012C12.3456 17.0012 11.0022 15.658 11.0022 14.0018C11.0022 12.3455 12.3456 11.0023 14.0017 11.0023C15.6579 11.0023 17.0011 12.3455 17.0011 14.0018C17.0011 15.658 15.6579 17.0012 14.0017 17.0012ZM18.8085 10.2745C19.4047 10.2745 19.8881 9.79111 19.8881 9.19498C19.8881 8.59872 19.4047 8.1155 18.8085 8.1155C18.2123 8.1155 17.729 8.59872 17.729 9.19498C17.729 9.79111 18.2123 10.2745 18.8085 10.2745Z" fill="white"/>
<defs>
<linearGradient id="paint0_linear" x1="0" y1="28" x2="28" y2="0" gradientUnits="userSpaceOnUse">
<stop stop-color="#FEDA75"/>
<stop offset="0.25" stop-color="#FA7E1E"/>
<stop offset="0.5" stop-color="#D62976"/>
<stop offset="0.75" stop-color="#962FBF"/>
<stop offset="1" stop-color="#4F5BD5"/>
</linearGradient>
</defs>
</svg>
