<svg width="21" height="20" viewBox="0 0 21 20" fill="none" xmlns="http://www.w3.org/2000/svg">
<path fill-rule="evenodd" clip-rule="evenodd" d="M8.37042 0.728202C6.53543 -0.335501 4.09866 -0.228707 2.37554 1.01468C1.23556 1.81309 0.410868 3.0514 0.124388 4.41429C-0.164634 5.74837 0.0548874 7.18162 0.732098 8.36737C0.451551 10.0151 0.599877 11.7373 1.18979 13.3028C2.0043 15.4938 3.66978 17.3499 5.7582 18.3992C7.55506 19.3163 9.64941 19.6121 11.6353 19.2705C13.4186 20.3029 15.7706 20.2376 17.4827 19.0866C18.7193 18.2789 19.6135 16.9643 19.8974 15.5141C20.1661 14.1995 19.9364 12.7968 19.2736 11.6314C19.5431 10.0693 19.4228 8.43941 18.9049 6.94006C18.1514 4.72451 16.5334 2.8234 14.4729 1.71647C12.6269 0.710403 10.4393 0.369679 8.37042 0.728202ZM12.76 4.96016C11.5505 4.30414 10.1224 4.09648 8.76709 4.30159C7.82035 4.44738 6.84734 4.78641 6.19132 5.51617C5.47427 6.26966 5.31832 7.40795 5.53614 8.39452C5.66582 9.02342 6.06927 9.57519 6.60154 9.92863C7.23662 10.3688 7.99507 10.5528 8.73677 10.7327C8.79191 10.746 8.84696 10.7594 8.90185 10.7728C9.27897 10.8724 9.65747 10.9669 10.0359 11.0614C10.3821 11.1478 10.7283 11.2343 11.0733 11.3246C11.4649 11.4314 11.8743 11.6475 12.0336 12.0442C12.2277 12.4663 12.0692 12.968 11.77 13.2977C11.3301 13.7859 10.6487 13.9826 10.0071 13.9656C9.35276 13.9817 8.66877 13.8029 8.17803 13.3528C7.9816 13.182 7.82637 12.9738 7.67122 12.7657C7.50233 12.5392 7.33353 12.3129 7.11178 12.1349C6.55492 11.695 5.57259 11.9662 5.40223 12.6815C5.24627 13.4011 5.68108 14.1046 6.1981 14.5708C7.22874 15.4879 8.66199 15.7625 10.0028 15.782C11.259 15.7743 12.6074 15.537 13.5771 14.6784C14.7891 13.6444 15.0086 11.6416 14.0339 10.3787C13.4686 9.68114 12.604 9.30651 11.748 9.11072C11.4037 9.02953 11.0584 8.95338 10.7132 8.87725C10.2331 8.77138 9.75323 8.66555 9.27648 8.54624C8.84676 8.42673 8.37805 8.2962 8.07462 7.94616C7.75339 7.55034 7.87544 6.94772 8.20515 6.59597C8.56198 6.2366 9.08578 6.12557 9.57483 6.10438C10.2436 6.09252 10.9581 6.21033 11.4886 6.64768C11.6604 6.77389 11.8032 6.93504 11.9457 7.09584C12.1535 7.33027 12.3606 7.56398 12.6557 7.68765C13.0855 7.8258 13.6084 7.72494 13.9288 7.39693C14.2246 7.08333 14.2068 6.59428 14.0466 6.21965C13.8008 5.65008 13.2889 5.25342 12.76 4.96016Z" fill="#00AFF0"/>
</svg>
