<svg width="28" height="28" viewBox="0 0 28 28" fill="none" xmlns="http://www.w3.org/2000/svg">
<rect width="28" height="28" fill="#00AFF0"/>
<path fill-rule="evenodd" clip-rule="evenodd" d="M12.5334 5.65538C10.8819 4.69805 8.68879 4.79416 7.13799 5.91321C6.112 6.63178 5.36978 7.74626 5.11195 8.97286C4.85183 10.1735 5.0494 11.4635 5.65889 12.5306C5.4064 14.0135 5.53989 15.5636 6.07081 16.9725C6.80387 18.9444 8.30281 20.6149 10.1824 21.5593C11.7996 22.3847 13.6845 22.6509 15.4717 22.3435C17.0767 23.2726 19.1935 23.2139 20.7344 22.178C21.8474 21.451 22.6521 20.2679 22.9077 18.9627C23.1495 17.7796 22.9428 16.5171 22.3462 15.4682C22.5888 14.0624 22.4805 12.5955 22.0144 11.2461C21.3363 9.25206 19.8801 7.54106 18.0257 6.54482C16.3642 5.63936 14.3954 5.33271 12.5334 5.65538ZM16.484 9.46414C15.3955 8.87372 14.1101 8.68683 12.8904 8.87144C12.0383 9.00264 11.1626 9.30777 10.5722 9.96455C9.92684 10.6427 9.78648 11.6672 9.98253 12.5551C10.0992 13.1211 10.4623 13.6177 10.9414 13.9358C11.513 14.332 12.1956 14.4975 12.8631 14.6594C12.9127 14.6714 12.9623 14.6834 13.0117 14.6955C13.3511 14.7852 13.6917 14.8702 14.0323 14.9553C14.3439 15.0331 14.6555 15.1108 14.966 15.1921C15.3184 15.2882 15.6869 15.4828 15.8303 15.8398C16.005 16.2196 15.8623 16.6712 15.593 16.968C15.1971 17.4073 14.5838 17.5843 14.0064 17.5691C13.4175 17.5835 12.8019 17.4226 12.3602 17.0175C12.1834 16.8638 12.0437 16.6764 11.9041 16.4892C11.7521 16.2853 11.6002 16.0816 11.4006 15.9214C10.8994 15.5255 10.0153 15.7696 9.862 16.4134C9.72164 17.061 10.113 17.6942 10.5783 18.1137C11.5059 18.9391 12.7958 19.1862 14.0026 19.2038C15.1331 19.1969 16.3467 18.9833 17.2194 18.2106C18.3102 17.2799 18.5077 15.4774 17.6305 14.3408C17.1217 13.713 16.3436 13.3759 15.5732 13.1996C15.2634 13.1266 14.9526 13.058 14.6419 12.9895C14.2098 12.8942 13.7779 12.799 13.3488 12.6916C12.9621 12.5841 12.5402 12.4666 12.2672 12.1515C11.9781 11.7953 12.0879 11.2529 12.3846 10.9364C12.7058 10.6129 13.1772 10.513 13.6173 10.4939C14.2192 10.4833 14.8623 10.5893 15.3398 10.9829C15.4943 11.0965 15.6229 11.2415 15.7512 11.3863C15.9382 11.5972 16.1246 11.8076 16.3902 11.9189C16.7769 12.0432 17.2476 11.9524 17.5359 11.6572C17.8021 11.375 17.7861 10.9349 17.642 10.5977C17.4207 10.0851 16.96 9.72808 16.484 9.46414Z" fill="white"/>
</svg>
