<svg width="24" height="25" viewBox="0 0 24 25" fill="none" xmlns="http://www.w3.org/2000/svg">
<path fill-rule="evenodd" clip-rule="evenodd" d="M22.7003 6.48404L22.6934 6.45634C22.1332 4.19176 19.6078 1.76175 17.2886 1.25621L17.2625 1.25082C13.5112 0.535208 9.70772 0.535208 5.95729 1.25082L5.93036 1.25621C3.61193 1.76175 1.0865 4.19176 0.525553 6.45634L0.519397 6.48404C-0.173132 9.64659 -0.173132 12.8538 0.519397 16.0163L0.525553 16.044C1.06257 18.2119 3.39994 20.5303 5.63257 21.1679V23.6958C5.63257 24.6107 6.74755 25.0601 7.38159 24.3999L9.9428 21.7375C10.4983 21.7686 11.0541 21.7859 11.6099 21.7859C13.4982 21.7859 15.3872 21.6074 17.2625 21.2496L17.2886 21.2442C19.6078 20.7387 22.1332 18.3087 22.6934 16.0441L22.7003 16.0164C23.3929 12.8538 23.3929 9.64659 22.7003 6.48404ZM20.6735 15.5577C20.2996 17.0351 18.382 18.8719 16.8585 19.2112C14.8639 19.5905 12.8536 19.7526 10.8452 19.697C10.8053 19.6959 10.7669 19.7114 10.7391 19.74L8.86899 21.6597L6.8799 23.7011C6.73446 23.8527 6.479 23.7496 6.479 23.5403V19.3526C6.479 19.2834 6.4296 19.2247 6.36165 19.2113L6.3605 19.2111C4.83693 18.8718 2.92017 17.035 2.54543 15.5576C1.92215 12.699 1.92215 9.80118 2.54543 6.94257C2.92017 5.46517 4.83693 3.62843 6.3605 3.28909C9.84392 2.62657 13.3758 2.62657 16.8585 3.28909C18.3828 3.62843 20.2996 5.46517 20.6735 6.94257C21.2975 9.80125 21.2975 12.6991 20.6735 15.5577ZM14.701 17.4273L14.701 17.4273L14.701 17.4273C14.5474 17.3849 14.3996 17.3442 14.2592 17.2859C12.1111 16.3947 10.1342 15.245 8.5682 13.4825C7.67768 12.4802 6.98069 11.3487 6.3915 10.1512C6.14098 9.64206 5.92578 9.11499 5.71096 8.58885L5.63664 8.40699C5.4178 7.87236 5.74014 7.32003 6.07955 6.91721C6.39804 6.53917 6.80786 6.24984 7.2517 6.03662C7.59812 5.87018 7.93984 5.96614 8.19285 6.25977C8.73979 6.89459 9.24218 7.56188 9.649 8.29773C9.89916 8.75034 9.83052 9.30359 9.37715 9.61161C9.2886 9.67178 9.20636 9.74035 9.1242 9.80885L9.12415 9.80889L9.1241 9.80893L9.12405 9.80897C9.10402 9.82566 9.084 9.84236 9.0639 9.85892C8.97387 9.93302 8.88915 10.0079 8.82743 10.1082C8.71463 10.2918 8.70924 10.5084 8.78188 10.708C9.34098 12.2445 10.2834 13.4392 11.8299 14.0827L11.896 14.1105C12.1219 14.2058 12.3512 14.3026 12.611 14.2723C12.9199 14.2362 13.0937 14.0042 13.2685 13.7708C13.3638 13.6435 13.4595 13.5158 13.5776 13.4192C13.9046 13.1518 14.3225 13.1483 14.6748 13.3712C15.0271 13.5942 15.3687 13.8336 15.7082 14.0755L15.7769 14.1244C16.087 14.3451 16.3944 14.5639 16.6806 14.816C16.9762 15.0763 17.078 15.4178 16.9116 15.771C16.6068 16.418 16.1635 16.9563 15.5239 17.2998C15.4004 17.3661 15.2604 17.4017 15.1191 17.4377C15.0538 17.4543 14.9883 17.471 14.9239 17.4908C14.8484 17.4679 14.7741 17.4474 14.701 17.4273L14.701 17.4273L14.701 17.4273ZM17.2277 10.018C16.7331 7.2402 14.4254 5.37553 11.6157 5.29681C11.5999 5.29674 11.5841 5.29649 11.5683 5.29623C11.5297 5.29561 11.4911 5.29499 11.4526 5.29712C11.2534 5.30781 11.0768 5.4744 11.1141 5.68363C11.1561 5.91936 11.3931 5.94325 11.5884 5.96295L11.6223 5.96641C11.721 5.97677 11.8201 5.98533 11.9192 5.99389L11.9192 5.99389L11.9192 5.9939C12.1387 6.01286 12.3582 6.03182 12.5742 6.07036C14.6576 6.44195 16.3266 8.17358 16.6174 10.2666C16.6614 10.5829 16.683 10.9024 16.7047 11.2217C16.7102 11.3027 16.7157 11.3836 16.7215 11.4646C16.7361 11.6665 16.8375 11.855 17.0627 11.8523C17.2808 11.8497 17.3952 11.6577 17.3794 11.4556L17.3658 11.278C17.3337 10.8562 17.3016 10.433 17.2277 10.018ZM15.8858 10.8321C15.8846 10.841 15.8836 10.8529 15.8823 10.867C15.8787 10.9086 15.8735 10.9694 15.8581 11.0274C15.7836 11.3095 15.3559 11.3449 15.2574 11.0601C15.2282 10.9757 15.2238 10.8795 15.2237 10.7886C15.2227 10.1935 15.0933 9.59898 14.7933 9.0812C14.4848 8.54903 14.0135 8.10166 13.4607 7.83096C13.1264 7.66729 12.7649 7.56557 12.3986 7.50493C12.2989 7.48845 12.1985 7.476 12.0981 7.46354L12.0981 7.46354L12.0981 7.46354C12.0373 7.45599 11.9764 7.44844 11.9157 7.43999C11.7207 7.4129 11.6166 7.28863 11.6258 7.09649C11.6345 6.91643 11.766 6.78693 11.9623 6.79801C12.6071 6.83464 13.2299 6.97399 13.8032 7.27755C14.9689 7.8949 15.6348 8.86937 15.8292 10.1706C15.8323 10.1917 15.8362 10.2127 15.84 10.2337C15.8469 10.2714 15.8537 10.3091 15.8566 10.3471C15.8643 10.4498 15.87 10.5526 15.8767 10.6715L15.8858 10.8321ZM13.7527 10.4228C13.777 10.6383 13.9028 10.7684 14.1379 10.7642C14.2449 10.7569 14.3546 10.6827 14.389 10.5345C14.4085 10.4507 14.4004 10.3583 14.3928 10.2704L14.392 10.2618C14.2809 8.97937 13.5024 8.41618 12.413 8.33754C12.2387 8.32492 12.0835 8.44943 12.0568 8.60894C12.0274 8.78423 12.1308 8.9355 12.3176 8.98129C12.3982 9.00105 12.4804 9.00854 12.5627 9.01604C12.656 9.02456 12.7495 9.03309 12.8411 9.05954C12.9769 9.09871 13.1065 9.15942 13.2208 9.24276C13.463 9.4192 13.6161 9.68605 13.6867 9.97399C13.7176 10.0998 13.7317 10.2302 13.7458 10.3598C13.7481 10.3808 13.7504 10.4018 13.7527 10.4228Z" fill="#665CAC"/>
</svg>
