<svg width="28" height="28" viewBox="0 0 28 28" fill="none" xmlns="http://www.w3.org/2000/svg">
<rect width="28" height="28" fill="#665CAC"/>
<path fill-rule="evenodd" clip-rule="evenodd" d="M22.917 8.80827L22.9112 8.78519C22.4444 6.89804 20.3399 4.87304 18.4072 4.45175L18.3854 4.44726C15.2594 3.85091 12.0898 3.85091 8.96441 4.44726L8.94197 4.45175C7.00994 4.87304 4.90542 6.89804 4.43796 8.78519L4.43283 8.80827C3.85572 11.4437 3.85572 14.1164 4.43283 16.7518L4.43796 16.7749C4.88548 18.5815 6.83328 20.5135 8.69381 21.0448V23.1514C8.69381 23.9138 9.62296 24.2883 10.1513 23.7381L12.2857 21.5195C12.7486 21.5454 13.2117 21.5599 13.6749 21.5599C15.2485 21.5599 16.8227 21.4111 18.3854 21.1129L18.4072 21.1084C20.3399 20.6871 22.4444 18.6621 22.9112 16.775L22.917 16.7519C23.4941 14.1164 23.4941 11.4437 22.917 8.80827ZM21.228 16.3697C20.9163 17.6008 19.3184 19.1315 18.0487 19.4142C16.3866 19.7303 14.7113 19.8654 13.0377 19.819C13.0044 19.8181 12.9724 19.831 12.9492 19.8549L11.3908 21.4546L9.73325 23.1558C9.61205 23.2821 9.39917 23.1962 9.39917 23.0218V19.5321C9.39917 19.4744 9.358 19.4255 9.30138 19.4144L9.30042 19.4142C8.03078 19.1314 6.43347 17.6008 6.12119 16.3696C5.6018 13.9874 5.6018 11.5726 6.12119 9.19038C6.43347 7.95922 8.03078 6.4286 9.30042 6.14582C12.2033 5.59372 15.1465 5.59372 18.0487 6.14582C19.319 6.4286 20.9163 7.95922 21.228 9.19038C21.7479 11.5726 21.7479 13.9875 21.228 16.3697ZM16.4366 17.9806C16.3737 17.9615 16.3117 17.9444 16.2508 17.9276L16.2508 17.9276L16.2508 17.9276L16.2508 17.9276C16.1228 17.8924 15.9997 17.8584 15.8827 17.8098C14.0926 17.0672 12.4451 16.109 11.1402 14.6403C10.3981 13.8051 9.81725 12.8622 9.32626 11.8643C9.11749 11.44 8.93816 11.0008 8.75915 10.5623L8.69721 10.4107C8.51484 9.96522 8.78346 9.50494 9.0663 9.16926C9.33171 8.85422 9.67323 8.61312 10.0431 8.43543C10.3318 8.29674 10.6165 8.3767 10.8274 8.62139C11.2832 9.15041 11.7018 9.70648 12.0408 10.3197C12.2493 10.6969 12.1921 11.1579 11.8143 11.4146C11.7405 11.4647 11.672 11.5219 11.6035 11.5789L11.5533 11.6207C11.4782 11.6824 11.4076 11.7448 11.3562 11.8284C11.2622 11.9814 11.2577 12.1619 11.3182 12.3282C11.7842 13.6086 12.5695 14.6043 13.8582 15.1405L13.9134 15.1637C14.1016 15.2431 14.2927 15.3238 14.5091 15.2985C14.7666 15.2684 14.9114 15.0751 15.0571 14.8806C15.1365 14.7745 15.2162 14.6681 15.3147 14.5876C15.5872 14.3648 15.9354 14.3618 16.229 14.5476C16.5226 14.7334 16.8072 14.9329 17.0902 15.1345L17.1474 15.1753C17.4058 15.3592 17.662 15.5415 17.9005 15.7516C18.1468 15.9685 18.2317 16.2531 18.093 16.5475C17.8391 17.0866 17.4696 17.5351 16.9366 17.8215C16.8336 17.8767 16.717 17.9064 16.5993 17.9363L16.5993 17.9363L16.5993 17.9363L16.5992 17.9364C16.5448 17.9502 16.4902 17.9641 16.4366 17.9806ZM18.3564 11.7533C17.9443 9.43842 16.0212 7.88453 13.6797 7.81893C13.6666 7.81887 13.6535 7.81866 13.6403 7.81845L13.6403 7.81845C13.6081 7.81793 13.5759 7.81741 13.5438 7.81919C13.3778 7.8281 13.2307 7.96693 13.2618 8.14128C13.2968 8.33772 13.4942 8.35763 13.657 8.37405L13.6852 8.37693C13.7675 8.38556 13.8501 8.3927 13.9327 8.39983C14.1156 8.41564 14.2985 8.43144 14.4785 8.46356C16.2146 8.77321 17.6055 10.2162 17.8478 11.9604C17.8845 12.224 17.9025 12.4903 17.9206 12.7563L17.9206 12.7564L17.9206 12.7564C17.9252 12.8239 17.9297 12.8913 17.9346 12.9587C17.9468 13.127 18.0312 13.2841 18.2189 13.2818C18.4007 13.2797 18.496 13.1197 18.4829 12.9513L18.4715 12.8032L18.4715 12.8032L18.4715 12.8032C18.4448 12.4517 18.418 12.0991 18.3564 11.7533ZM17.2381 12.4317C17.2372 12.4391 17.2363 12.449 17.2353 12.4607C17.2323 12.4954 17.2279 12.546 17.2151 12.5944C17.153 12.8295 16.7966 12.8589 16.7145 12.6217C16.6902 12.5513 16.6865 12.4712 16.6864 12.3954C16.6856 11.8995 16.5778 11.404 16.3277 10.9726C16.0706 10.5291 15.6779 10.1563 15.2172 9.93069C14.9387 9.7943 14.6374 9.70953 14.3321 9.659C14.2491 9.64527 14.1654 9.63489 14.0818 9.62451L14.0818 9.62451C14.0311 9.61822 13.9804 9.61192 13.9298 9.60488C13.7673 9.58231 13.6805 9.47875 13.6882 9.31863C13.6954 9.16859 13.805 9.06067 13.9686 9.0699C14.5059 9.10042 15.0249 9.21655 15.5026 9.46952C16.4741 9.98398 17.029 10.796 17.191 11.8804C17.1936 11.8979 17.1968 11.9155 17.2 11.933C17.2057 11.9644 17.2114 11.9958 17.2138 12.0275C17.2203 12.113 17.225 12.1986 17.2305 12.2977L17.2305 12.2978L17.2381 12.4317ZM15.4606 12.0905C15.4808 12.2702 15.5857 12.3786 15.7816 12.3751C15.8708 12.369 15.9622 12.3071 15.9909 12.1836C16.0071 12.1138 16.0004 12.0369 15.994 11.9636L15.9934 11.9564C15.9008 10.8877 15.252 10.4184 14.3442 10.3529C14.199 10.3424 14.0696 10.4461 14.0474 10.579C14.0229 10.7251 14.109 10.8512 14.2647 10.8893C14.3319 10.9058 14.4003 10.912 14.4689 10.9183C14.5467 10.9254 14.6246 10.9325 14.701 10.9545C14.8141 10.9872 14.9221 11.0378 15.0174 11.1072C15.2192 11.2542 15.3468 11.4766 15.4056 11.7166C15.4313 11.8214 15.4431 11.93 15.4549 12.0381C15.4568 12.0556 15.4587 12.0731 15.4606 12.0905Z" fill="white"/>
</svg>
