<svg width="28" height="28" viewBox="0 0 28 28" fill="none" xmlns="http://www.w3.org/2000/svg">
<rect width="28" height="28" fill="#4C77A6"/>
<path fill-rule="evenodd" clip-rule="evenodd" d="M22.587 9.71697C22.7121 9.30368 22.587 9 21.9915 9H20.0222C19.5215 9 19.2907 9.26234 19.1655 9.55162C19.1655 9.55162 18.1641 11.9693 16.7455 13.5397C16.2865 13.9943 16.0779 14.139 15.8275 14.139C15.7024 14.139 15.5146 13.9943 15.5146 13.5811V9.71697C15.5146 9.22103 15.3759 9 14.9586 9H11.8641C11.5512 9 11.363 9.23018 11.363 9.44832C11.363 9.91846 12.0723 10.0269 12.1454 11.3494V14.2217C12.1454 14.8514 12.0306 14.9656 11.7802 14.9656C11.1127 14.9656 9.4888 12.5371 8.5257 9.75828C8.33695 9.21817 8.14764 9 7.64437 9H5.67516C5.11253 9 5 9.26234 5 9.55162C5 10.0682 5.66761 12.6305 8.10848 16.0194C9.73572 18.3337 12.0284 19.5882 14.1146 19.5882C15.3663 19.5882 15.5212 19.3096 15.5212 18.8296V17.0805C15.5212 16.5232 15.6398 16.412 16.0362 16.412C16.3282 16.412 16.8289 16.5566 17.9972 17.6725C19.3324 18.995 19.5525 19.5882 20.3036 19.5882H22.2728C22.8354 19.5882 23.1167 19.3096 22.9544 18.7597C22.7768 18.2117 22.1394 17.4166 21.2935 16.474C20.8345 15.9367 20.1461 15.3582 19.9374 15.0688C19.6453 14.6969 19.7288 14.5316 19.9374 14.201C19.9374 14.201 22.3366 10.8534 22.587 9.71697Z" fill="white"/>
</svg>
