<svg width="22" height="22" viewBox="0 0 22 22" fill="none" xmlns="http://www.w3.org/2000/svg">
<path fill-rule="evenodd" clip-rule="evenodd" d="M18.7102 3.69768C16.7343 1.71948 14.1065 0.629578 11.3071 0.628418C5.53853 0.628418 0.843768 5.32305 0.841447 11.0932C0.840674 12.9377 1.32253 14.7382 2.2384 16.3253L0.753662 21.7484L6.30166 20.2931C7.83036 21.127 9.55139 21.5664 11.3028 21.5669H11.3072C17.0751 21.5669 21.7704 16.8719 21.7726 11.1015C21.7738 8.30504 20.6862 5.67574 18.7102 3.69768ZM11.3071 19.7995H11.3035C9.74268 19.7988 8.21192 19.3794 6.87619 18.587L6.5587 18.3984L3.26643 19.2621L4.14519 16.0522L3.93829 15.7231C3.06753 14.3381 2.60772 12.7374 2.60849 11.0938C2.6103 6.29784 6.51255 2.39598 11.3106 2.39598C13.634 2.39675 15.818 3.30271 17.4603 4.94691C19.1026 6.59111 20.0065 8.77658 20.0057 11.1009C20.0036 15.8972 16.1016 19.7995 11.3071 19.7995ZM16.0784 13.2847C15.817 13.1537 14.5313 12.5213 14.2915 12.4339C14.052 12.3466 13.8775 12.3032 13.7033 12.5649C13.5289 12.8266 13.0279 13.4157 12.8752 13.5901C12.7226 13.7646 12.5702 13.7865 12.3087 13.6556C12.0471 13.5247 11.2046 13.2485 10.2057 12.3576C9.42841 11.6642 8.90363 10.8079 8.75101 10.5462C8.59864 10.2843 8.74972 10.1564 8.86573 10.0125C9.14881 9.66101 9.43228 9.29247 9.51942 9.11805C9.60669 8.94352 9.56299 8.79076 9.4975 8.65992C9.43228 8.52908 8.9093 7.24195 8.69145 6.71821C8.47901 6.20851 8.26361 6.27735 8.10299 6.26936C7.95063 6.26175 7.77622 6.2602 7.60181 6.2602C7.42753 6.2602 7.14419 6.32556 6.90442 6.5875C6.66479 6.8493 5.98932 7.48185 5.98932 8.76898C5.98932 10.0561 6.92634 11.2995 7.05705 11.4741C7.18776 11.6486 8.90105 14.2899 11.5242 15.4225C12.1481 15.6921 12.6351 15.8529 13.015 15.9734C13.6415 16.1724 14.2113 16.1443 14.662 16.0771C15.1645 16.0019 16.209 15.4444 16.4271 14.8336C16.645 14.2227 16.645 13.6993 16.5795 13.5901C16.5143 13.481 16.3398 13.4157 16.0784 13.2847Z" fill="#25D366"/>
</svg>
