<svg width="28" height="28" viewBox="0 0 28 28" fill="none" xmlns="http://www.w3.org/2000/svg">
<rect width="28" height="28" fill="#25D366"/>
<path fill-rule="evenodd" clip-rule="evenodd" d="M22.0043 6.90649C20.1332 5.0332 17.6448 4.0011 14.9938 4C9.53113 4 5.08533 8.44568 5.08313 13.9098C5.0824 15.6565 5.5387 17.3616 6.40601 18.8645L5 24L10.2538 22.6218C11.7014 23.4115 13.3312 23.8276 14.9897 23.8281H14.9939C20.4559 23.8281 24.9022 19.3821 24.9043 13.9177C24.9054 11.2695 23.8755 8.77966 22.0043 6.90649ZM14.9938 22.1544H14.9904C13.5123 22.1538 12.0627 21.7566 10.7979 21.0062L10.4972 20.8276L7.37952 21.6455L8.21167 18.6058L8.01575 18.2942C7.19116 16.9827 6.75574 15.4668 6.75647 13.9104C6.75818 9.36877 10.4535 5.67383 14.9971 5.67383C17.1973 5.67456 19.2655 6.53247 20.8207 8.08948C22.3759 9.64648 23.2318 11.7161 23.2311 13.9171C23.2291 18.4591 19.5341 22.1544 14.9938 22.1544ZM19.5121 15.9851C19.2645 15.8611 18.047 15.2622 17.8199 15.1794C17.5931 15.0968 17.4279 15.0557 17.2629 15.3035C17.0978 15.5513 16.6233 16.1091 16.4788 16.2743C16.3342 16.4396 16.1899 16.4603 15.9423 16.3363C15.6946 16.2124 14.8967 15.9508 13.9508 15.1072C13.2147 14.4506 12.7178 13.6396 12.5732 13.3918C12.429 13.1438 12.572 13.0227 12.6819 12.8865C12.95 12.5536 13.2184 12.2046 13.3009 12.0394C13.3835 11.8741 13.3422 11.7295 13.2802 11.6056C13.2184 11.4817 12.7231 10.2628 12.5168 9.76685C12.3157 9.28418 12.1117 9.34937 11.9596 9.3418C11.8153 9.33459 11.6501 9.33313 11.485 9.33313C11.3199 9.33313 11.0516 9.39502 10.8246 9.64307C10.5977 9.89099 9.95801 10.49 9.95801 11.7089C9.95801 12.9277 10.8453 14.1052 10.9691 14.2705C11.0929 14.4358 12.7153 16.937 15.1993 18.0095C15.7902 18.2649 16.2513 18.4171 16.6111 18.5312C17.2043 18.7197 17.744 18.6931 18.1708 18.6294C18.6466 18.5582 19.6357 18.0303 19.8423 17.4519C20.0486 16.8734 20.0486 16.3777 19.9866 16.2743C19.9248 16.171 19.7596 16.1091 19.5121 15.9851Z" fill="white"/>
</svg>
