<svg width="181" height="24" viewBox="0 0 181 24" fill="none" xmlns="http://www.w3.org/2000/svg">
<path d="M87.9453 15.8926H83.1875V7.13574H81.957V17H87.9453V15.8926ZM89.7705 8.62598C90.1875 8.62598 90.5156 8.29102 90.5156 7.88086C90.5156 7.46387 90.1875 7.13574 89.7705 7.13574C89.3604 7.13574 89.0254 7.46387 89.0254 7.88086C89.0254 8.29102 89.3604 8.62598 89.7705 8.62598ZM89.1758 17H90.3652V9.89062H89.1758V17ZM97.8779 12.2217C97.7275 10.9434 96.668 9.76758 94.8906 9.76758C92.9287 9.76758 91.623 11.2031 91.623 13.4453C91.623 15.7354 92.9355 17.123 94.9043 17.123C96.5176 17.123 97.707 16.125 97.8916 14.71H96.7227C96.5176 15.5645 95.8818 16.0771 94.9111 16.0771C93.6807 16.0771 92.833 15.0996 92.833 13.4453C92.833 11.832 93.667 10.8135 94.8975 10.8135C95.9434 10.8135 96.5449 11.4492 96.7158 12.2217H97.8779ZM103.702 14.9629C103.504 15.6328 102.841 16.0908 101.938 16.0908C100.66 16.0908 99.8604 15.1953 99.8604 13.835V13.7666H104.96V13.3154C104.96 11.1621 103.777 9.76758 101.856 9.76758C99.8945 9.76758 98.6367 11.2646 98.6367 13.4727C98.6367 15.708 99.874 17.123 101.911 17.123C103.463 17.123 104.666 16.207 104.871 14.9629H103.702ZM101.836 10.7998C102.957 10.7998 103.702 11.6475 103.729 12.8369H99.8672C99.9424 11.6543 100.722 10.7998 101.836 10.7998ZM106.163 17H107.353V12.8164C107.353 11.6133 108.084 10.8203 109.205 10.8203C110.299 10.8203 110.839 11.4492 110.839 12.5977V17H112.028V12.3857C112.028 10.7725 111.126 9.76758 109.567 9.76758C108.467 9.76758 107.708 10.2598 107.312 11.0254H107.284V9.89062H106.163V17ZM113.423 11.8525C113.423 12.8779 114.072 13.5 115.412 13.8213L116.54 14.0947C117.354 14.293 117.634 14.5869 117.634 15.0996C117.634 15.7422 117.039 16.1523 116.075 16.1523C115.111 16.1523 114.564 15.7627 114.421 14.9492H113.231C113.368 16.2822 114.407 17.123 116.075 17.123C117.661 17.123 118.83 16.248 118.83 15.0107C118.83 13.9922 118.311 13.4316 116.875 13.083L115.747 12.8096C114.954 12.6182 114.592 12.2832 114.592 11.791C114.592 11.1689 115.166 10.7383 116.034 10.7383C116.909 10.7383 117.456 11.1963 117.545 11.9414H118.68C118.632 10.6836 117.593 9.76758 116.034 9.76758C114.496 9.76758 113.423 10.6357 113.423 11.8525ZM124.784 14.9629C124.586 15.6328 123.923 16.0908 123.021 16.0908C121.742 16.0908 120.942 15.1953 120.942 13.835V13.7666H126.042V13.3154C126.042 11.1621 124.859 9.76758 122.938 9.76758C120.977 9.76758 119.719 11.2646 119.719 13.4727C119.719 15.708 120.956 17.123 122.993 17.123C124.545 17.123 125.748 16.207 125.953 14.9629H124.784ZM122.918 10.7998C124.039 10.7998 124.784 11.6475 124.812 12.8369H120.949C121.024 11.6543 121.804 10.7998 122.918 10.7998ZM141.498 11.75C142.858 11.75 143.938 10.834 143.938 9.37109C143.938 7.9082 142.858 6.99902 141.498 6.99902C140.179 6.99902 139.119 7.9082 139.119 9.37109C139.119 10.834 140.179 11.75 141.498 11.75ZM131.518 17V9.31641H131.627L136.774 17H137.971V7.13574H136.754V14.8467H136.645L131.497 7.13574H130.301V17H131.518ZM141.498 10.875C140.726 10.875 140.213 10.2803 140.213 9.37109C140.213 8.44824 140.726 7.87402 141.498 7.87402C142.325 7.87402 142.845 8.44824 142.845 9.37109C142.845 10.2803 142.305 10.875 141.498 10.875ZM143.768 13.6436V12.5293H139.324V13.6436H143.768ZM147.835 17H149.024V7.13574H147.821L145.196 9.02246V10.2598L147.808 8.44141H147.835V17ZM151.465 9.98633H152.654C152.654 8.87891 153.57 8.04492 154.787 8.04492C155.915 8.04492 156.64 8.81738 156.64 9.78809C156.64 10.6084 156.332 11.1416 154.999 12.5293L151.526 16.1523V17H158.034V15.9062H153.215V15.8789L155.56 13.4727C157.371 11.6133 157.87 10.7998 157.87 9.71289C157.87 8.21582 156.612 6.97168 154.787 6.97168C152.887 6.97168 151.465 8.25684 151.465 9.98633ZM162.847 17.1641C164.904 17.1641 166.36 15.7764 166.36 13.7939C166.36 11.9004 164.993 10.5264 163.1 10.5264C162.143 10.5264 161.322 10.8818 160.857 11.5449H160.83L161.165 8.22949H165.8V7.13574H160.153L159.647 12.7617H160.734C161.192 11.9688 161.944 11.5859 162.881 11.5859C164.193 11.5859 165.13 12.5225 165.13 13.8281C165.13 15.1543 164.2 16.084 162.86 16.084C161.678 16.084 160.782 15.3594 160.673 14.3066H159.463C159.565 15.9883 160.96 17.1641 162.847 17.1641ZM167.584 9.98633H168.773C168.773 8.87891 169.689 8.04492 170.906 8.04492C172.034 8.04492 172.759 8.81738 172.759 9.78809C172.759 10.6084 172.451 11.1416 171.118 12.5293L167.646 16.1523V17H174.153V15.9062H169.334V15.8789L171.679 13.4727C173.49 11.6133 173.989 10.7998 173.989 9.71289C173.989 8.21582 172.731 6.97168 170.906 6.97168C169.006 6.97168 167.584 8.25684 167.584 9.98633ZM178.091 17H179.28V7.13574H178.077L175.452 9.02246V10.2598L178.063 8.44141H178.091V17Z" fill="#7E7E7E"/>
<path fill-rule="evenodd" clip-rule="evenodd" d="M2.39811 16.3973V8.82102H0.1633V5.14469H8.66696V8.82102H6.43179V16.3973H2.39811ZM9.85124 11.2458V5.14469H13.8853V11.2794C13.8853 11.9949 13.9635 12.475 14.1308 12.7433C14.2986 13.0224 14.5891 13.1565 15.0023 13.1565C15.4046 13.1565 15.6951 13.0118 15.8629 12.7319C16.0415 12.4637 16.1197 11.9719 16.1197 11.2794V5.14469H20.1538V11.2458C20.1538 12.0391 20.0982 12.6983 19.9974 13.2238C19.8969 13.7375 19.7292 14.1738 19.4946 14.5198C19.0473 15.2243 18.4331 15.7604 17.6617 16.1291C16.8794 16.5087 15.9966 16.6995 15.0023 16.6995C13.9967 16.6995 13.1139 16.5091 12.3316 16.1291C11.5606 15.76 10.946 15.224 10.4991 14.5198C10.2755 14.1738 10.1081 13.7492 10.0073 13.2351C9.90751 12.7206 9.85124 12.0618 9.85124 11.2458ZM26.1994 8.03869V10.2402H26.825C27.205 10.2402 27.4955 10.1507 27.7078 9.96071C27.9087 9.7707 28.0205 9.50286 28.0205 9.15609C28.0205 8.79836 27.9087 8.51919 27.7078 8.32918C27.4955 8.13917 27.205 8.03869 26.825 8.03869H26.1994ZM22.2435 16.3973V5.14469H27.3168C28.7806 5.14469 29.9093 5.46881 30.6803 6.11703C31.4626 6.77622 31.8423 7.71494 31.8423 8.93319C31.8423 9.73781 31.6523 10.397 31.2613 10.9111C30.8703 11.4252 30.3452 11.7267 29.6857 11.8162L32.6696 16.398H28.155L26.1994 12.6877V16.3973H22.2435ZM32.4569 15.4359L33.7424 12.285C34.3234 12.6877 34.8265 12.9888 35.2848 13.1678C35.7317 13.3579 36.1562 13.4583 36.5472 13.4583C36.8264 13.4583 37.0497 13.4028 37.2068 13.2906C37.3632 13.1901 37.441 13.0451 37.441 12.866C37.441 12.5536 37.05 12.3187 36.2571 12.1509C36.0002 12.0954 35.7989 12.0504 35.6535 12.0282C34.8156 11.8155 34.1783 11.4581 33.7314 10.9327C33.2845 10.4076 33.0613 9.75937 33.0613 8.97704C33.0613 7.77012 33.4965 6.78681 34.3574 6.02714C35.2289 5.2671 36.358 4.88745 37.7545 4.88745C38.4024 4.88745 39.0283 4.97697 39.6543 5.14433C40.2795 5.31168 40.9054 5.56893 41.5427 5.91533L40.3131 8.8539C39.9221 8.57437 39.5424 8.35111 39.1398 8.19471C38.7601 8.04965 38.3805 7.97109 38.0114 7.97109C37.7322 7.97109 37.5082 8.01603 37.3519 8.11652C37.2072 8.20568 37.1286 8.33978 37.1286 8.5075C37.1286 8.83161 37.6873 9.11078 38.8051 9.34537C38.9834 9.38995 39.1175 9.42356 39.2183 9.44585C39.989 9.61357 40.593 9.9713 41.0395 10.5073C41.486 11.0434 41.7104 11.7029 41.7104 12.4626C41.7104 13.7032 41.2628 14.7201 40.358 15.5137C39.4639 16.2961 38.3019 16.6984 36.8604 16.6984C36.1347 16.6984 35.3966 16.5862 34.6596 16.3852C33.8885 16.1623 33.1485 15.8434 32.4569 15.4359ZM46.9166 12.3073H48.5931L48.2464 11.0335C48.0786 10.3857 47.9672 9.89384 47.9003 9.53611C47.8448 9.18971 47.7998 8.86559 47.7881 8.56377H47.7209C47.6979 8.88935 47.6607 9.21377 47.6095 9.53611C47.5422 9.89384 47.4304 10.3853 47.2627 11.0335L46.9166 12.3073ZM41.5642 16.3973L45.5643 5.14469H50.0569L53.9784 16.3973H49.6429L49.2746 14.9777H46.2352L45.8997 16.3973H41.5642ZM58.3812 11.8159V13.6147H59.0521C59.454 13.6147 59.7671 13.5369 59.9791 13.3798C60.2023 13.2234 60.3032 13.0001 60.3032 12.7096C60.3032 12.4191 60.2027 12.1959 59.9791 12.0501C59.7671 11.8937 59.4536 11.8155 59.0521 11.8155H58.3812V11.8159ZM58.3812 7.82639V9.39068H58.9066C59.2307 9.39068 59.477 9.32381 59.6553 9.18971C59.8231 9.0556 59.9122 8.86559 59.9122 8.60872C59.9122 8.35147 59.8231 8.1505 59.6553 8.0164C59.477 7.88229 59.2307 7.82639 58.9066 7.82639H58.3812ZM54.593 16.3973V5.14469H59.9572C61.1082 5.14469 62.0133 5.4129 62.6505 5.96027C63.2984 6.49669 63.6112 7.2454 63.6112 8.21737C63.6112 8.82065 63.4658 9.33477 63.1643 9.74841C62.8512 10.1507 62.4262 10.4189 61.8675 10.5417C62.6275 10.6981 63.1979 10.9999 63.5659 11.4355C63.9463 11.8824 64.1246 12.4747 64.1246 13.2121C64.1246 14.2626 63.7785 15.0563 63.0635 15.5923C62.359 16.1291 61.3201 16.3973 59.9455 16.3973H54.593Z" fill="#CC2229"/>
<path fill-rule="evenodd" clip-rule="evenodd" d="M14.0643 6.26228C14.0643 6.01637 14.1535 5.80407 14.3322 5.62538C14.5109 5.4467 14.7345 5.35718 14.9917 5.35718C15.2596 5.35718 15.4832 5.4467 15.6619 5.62538C15.8409 5.80407 15.9301 6.01637 15.9301 6.26228C15.9301 6.51953 15.8409 6.73146 15.6619 6.89918C15.4832 7.07786 15.2596 7.16739 14.9917 7.16739C14.8693 7.1697 14.7478 7.14711 14.6344 7.10101C14.521 7.0549 14.4182 6.98624 14.3322 6.89918C14.1535 6.73146 14.0643 6.51916 14.0643 6.26228ZM14.0643 8.41889C14.0643 8.17298 14.1535 7.96068 14.3322 7.78163C14.5109 7.60258 14.7345 7.51379 14.9917 7.51379C15.2596 7.51379 15.4832 7.60295 15.6619 7.78163C15.8409 7.96031 15.9301 8.17261 15.9301 8.41889C15.9301 8.66444 15.8409 8.87674 15.6619 9.05579C15.4832 9.23447 15.2596 9.32399 14.9917 9.32399C14.7345 9.32399 14.5112 9.23447 14.3322 9.05579C14.1531 8.87711 14.0643 8.66481 14.0643 8.41889Z" fill="#0094D6"/>
<path fill-rule="evenodd" clip-rule="evenodd" d="M10.6785 0.0828584L10.8572 0.0605685L10.9913 0.0828584L11.1926 0.127803L11.3154 0.0828584L11.4718 0.015625L11.5836 0.26154L11.6505 0.417932L11.7846 0.485166L11.9187 0.574325L11.9855 0.697465L11.7846 0.764333L11.6728 0.719756L11.539 0.641559L11.3823 0.652885L11.2704 0.764699L11.1477 0.854223L11.0136 0.966036L10.9018 1.10014L10.8349 1.23424L10.6785 1.39063L10.5444 1.54703L10.5221 1.39063L10.6116 1.27882C10.7234 1.13376 10.8575 0.898803 10.8575 0.898803L10.5225 0.988325L10.3438 0.69783L10.5225 0.652885L10.6343 0.552402L10.5448 0.418298C10.544 0.417932 10.6226 0.0938204 10.6785 0.0828584Z" fill="#CC2229"/>
<path fill-rule="evenodd" clip-rule="evenodd" d="M11.941 0.831207L12.0528 0.697105H12.2201L12.3992 0.719393L12.6002 0.741685L12.8011 0.831207L13.0248 0.920732L13.2148 0.853498L13.4826 0.697105L13.6839 0.573964L13.8853 0.462151C14.0304 0.394917 14.0976 0.394914 14.0976 0.394914L14.2094 0.305757L14.3881 0.350337L14.5668 0.394914L14.7454 0.43986L14.9018 0.372626L15.025 0.238524L15.1591 0.126709L15.2705 0.215867V0.349972L15.3378 0.461786L15.4715 0.484439L15.6502 0.529019L15.762 0.640833L15.8292 0.741319L15.9074 0.875421H16.1307L16.3317 0.897713L16.5326 1.00953L16.7113 1.09868L16.9013 1.0541L17.1023 0.94229L17.281 0.897713L17.4597 0.964581L17.6387 1.0541L17.851 1.03145L18.0074 0.897345L18.1638 0.740954L18.2979 0.640468L18.3651 0.528654L18.5884 0.573234L18.7112 0.651429L18.8453 0.595522L19.1135 0.572869L19.2699 0.718298L19.3371 0.941559L19.4712 1.05337L19.5607 1.16519L19.5384 1.32158L19.628 1.45568L19.7953 1.54521L19.9517 1.58979L20.1527 1.69027L20.2199 1.80209V1.98077L19.974 2.07029L19.8848 2.2044L19.9071 2.31621L20.0189 2.40573V2.57309L19.974 2.79672L20.0189 2.99805L20.1308 3.17674L20.2649 3.2436V3.42229L20.1753 3.52277H20.0423L19.9082 3.44458L19.7292 3.42229L19.5392 3.47819L19.3828 3.42229L19.271 3.4559L19.0696 3.6123L18.8909 3.54506L18.7346 3.6123L18.4554 3.65688C18.4554 3.65688 18.4331 3.72411 18.2767 3.65688C18.1203 3.58964 18.1426 3.6123 18.1426 3.6123L17.9416 3.67917L17.707 3.83556L17.4611 3.96966L17.2379 3.94737H16.97L16.8359 3.83556L16.7128 3.76869L16.5118 3.8805L16.3554 3.99232L16.1322 3.94774L15.998 3.8805L15.8753 4.0369L15.7635 4.14871L15.8307 4.26052L15.7635 4.3833L15.5402 4.53969L15.4284 4.47246L15.473 4.26016L15.5179 4.05919L15.473 3.92508L15.3392 3.94737L15.071 3.96966L14.8141 3.79098L14.5905 3.99195L14.4118 4.17063L14.2109 4.21558L14.0318 4.26016L13.8195 4.34968L13.6182 4.23787L13.2831 3.92508L13.0931 3.76869L12.8253 3.63459L12.6911 3.65688L12.6016 3.81327L12.5121 3.96966L12.3557 4.08148L12.1547 4.10413L12.0097 3.99232L11.8529 3.81363L11.6742 3.65724L11.4955 3.59001L11.3823 3.68063L11.17 3.65834L10.9909 3.52423L10.8791 3.33423L10.9909 3.15554L10.9014 2.99915L10.7673 2.88734L10.6778 2.66371L10.4541 2.57418L10.3869 2.42912L10.3646 2.25044C10.3958 2.24335 10.4283 2.24372 10.4593 2.25153C10.4904 2.25934 10.5192 2.27436 10.5433 2.29538V2.45177L10.6774 2.33996L10.7669 2.20586L10.7443 1.98259L10.8115 1.75933L10.6774 1.80391H10.4987L10.521 1.64752L10.7443 1.50209L10.8784 1.32341L10.923 1.18967L11.0348 1.12244L11.2135 1.18967L11.3808 1.21196C11.4035 1.10014 11.4703 1.05557 11.4703 1.05557L11.5821 1.12244L11.5376 1.27883L11.6713 1.30112L11.85 1.25654C11.9395 1.14472 12.0067 1.12244 12.0067 1.12244L12.5095 1.14472L12.074 1.01099C12.0751 1.01026 11.9187 0.742048 11.941 0.831207Z" fill="#CC2229"/>
<path fill-rule="evenodd" clip-rule="evenodd" d="M9.49387 0.842529H0.107391V3.69194H9.49387V0.842529ZM20.8915 3.80376V0.954343V3.80376ZM20.8915 3.80376V0.954343H21.227V3.80376H20.8915ZM21.227 3.80376V0.954343H21.5621V3.80376H21.227Z" fill="#0094D6"/>
<path fill-rule="evenodd" clip-rule="evenodd" d="M21.5621 3.80376V0.954346H21.8862V3.80376H21.5621ZM21.8862 3.80376V0.954346H22.2213V3.80376H21.8862Z" fill="#0094D6"/>
<path fill-rule="evenodd" clip-rule="evenodd" d="M22.2213 3.80376V0.954346H22.5567V3.80376H22.2213Z" fill="#0096D8"/>
<path fill-rule="evenodd" clip-rule="evenodd" d="M22.5567 3.80376V0.954346H22.8918V3.80376H22.5567Z" fill="#0D96D8"/>
<path fill-rule="evenodd" clip-rule="evenodd" d="M22.8917 3.80376V0.954346H23.2272V3.80376H22.8917Z" fill="#1897D8"/>
<path fill-rule="evenodd" clip-rule="evenodd" d="M23.2272 3.80376V0.954346H23.5622V3.80376H23.2272Z" fill="#1897D8"/>
<path fill-rule="evenodd" clip-rule="evenodd" d="M23.5623 3.80376V0.954346H23.8864V3.80376H23.5623Z" fill="#1F97D8"/>
<path fill-rule="evenodd" clip-rule="evenodd" d="M23.8864 3.80376V0.954346H24.2218V3.80376H23.8864Z" fill="#2399D9"/>
<path fill-rule="evenodd" clip-rule="evenodd" d="M24.2218 3.80376V0.954346H24.5569V3.80376H24.2218Z" fill="#2899D9"/>
<path fill-rule="evenodd" clip-rule="evenodd" d="M24.5569 3.80376V0.954346H24.8923V3.80376H24.5569Z" fill="#2C9AD9"/>
<path fill-rule="evenodd" clip-rule="evenodd" d="M24.8923 3.80376V0.954346H25.2274V3.80376H24.8923Z" fill="#2C9AD9"/>
<path fill-rule="evenodd" clip-rule="evenodd" d="M25.2274 3.80376V0.954346H25.5512V3.80376H25.2274Z" fill="#309AD9"/>
<path fill-rule="evenodd" clip-rule="evenodd" d="M25.5511 3.80376V0.954346H25.8866V3.80376H25.5511Z" fill="#349BD9"/>
<path fill-rule="evenodd" clip-rule="evenodd" d="M25.8866 3.80376V0.954346H26.2217V3.80376H25.8866Z" fill="#379BD9"/>
<path fill-rule="evenodd" clip-rule="evenodd" d="M26.2217 3.80376V0.954346H26.5571V3.80376H26.2217Z" fill="#3A9BD9"/>
<path fill-rule="evenodd" clip-rule="evenodd" d="M26.5571 3.80376V0.954346H26.8921V3.80376H26.5571Z" fill="#3A9DDA"/>
<path fill-rule="evenodd" clip-rule="evenodd" d="M26.8922 3.80376V0.954346H27.2277V3.80376H26.8922Z" fill="#3D9DDB"/>
<path fill-rule="evenodd" clip-rule="evenodd" d="M27.2276 3.80376V0.954346H27.5514V3.80376H27.2276Z" fill="#409EDB"/>
<path fill-rule="evenodd" clip-rule="evenodd" d="M27.5514 3.80376V0.954346H27.8868V3.80376H27.5514ZM27.8868 3.80376V0.954346H28.2219V3.80376H27.8868Z" fill="#439EDB"/>
<path fill-rule="evenodd" clip-rule="evenodd" d="M28.2219 3.80376V0.954346H28.5573V3.80376H28.2219Z" fill="#45A0DC"/>
<path fill-rule="evenodd" clip-rule="evenodd" d="M28.5573 3.80376V0.954346H28.8924V3.80376H28.5573Z" fill="#48A0DC"/>
<path fill-rule="evenodd" clip-rule="evenodd" d="M28.8924 3.80376V0.954346H29.2165V3.80376H28.8924Z" fill="#4BA1DC"/>
<path fill-rule="evenodd" clip-rule="evenodd" d="M29.2165 3.80376V0.954346H29.5516V3.80376H29.2165ZM29.5516 3.80376V0.954346H29.887V3.80376H29.5516Z" fill="#4DA2DC"/>
<path fill-rule="evenodd" clip-rule="evenodd" d="M29.887 3.80376V0.954346H30.2221V3.80376H29.887Z" fill="#50A2DC"/>
<path fill-rule="evenodd" clip-rule="evenodd" d="M30.2221 3.80376V0.954346H30.5572V3.80376H30.2221Z" fill="#52A3DD"/>
<path fill-rule="evenodd" clip-rule="evenodd" d="M30.5572 3.80376V0.954346H30.8817V3.80376H30.5572Z" fill="#55A4DE"/>
<path fill-rule="evenodd" clip-rule="evenodd" d="M30.8817 3.80376V0.954346H31.2167V3.80376H30.8817ZM31.2167 3.80376V0.954346H31.5522V3.80376H31.2167Z" fill="#57A5DE"/>
<path fill-rule="evenodd" clip-rule="evenodd" d="M31.5522 3.80376V0.954346H31.8872V3.80376H31.5522Z" fill="#59A6DE"/>
<path fill-rule="evenodd" clip-rule="evenodd" d="M31.8872 3.80376V0.954346H32.2223V3.80376H31.8872Z" fill="#5CA6DE"/>
<path fill-rule="evenodd" clip-rule="evenodd" d="M32.2224 3.80376V0.954346H32.5578V3.80376H32.2224ZM32.5578 3.80376V0.954346H32.8815V3.80376H32.5578Z" fill="#5EA7DE"/>
<path fill-rule="evenodd" clip-rule="evenodd" d="M32.8815 3.80376V0.954346H33.2169V3.80376H32.8815Z" fill="#60A7DE"/>
<path fill-rule="evenodd" clip-rule="evenodd" d="M33.217 3.80376V0.954346H33.5524V3.80376H33.217Z" fill="#62A9DF"/>
<path fill-rule="evenodd" clip-rule="evenodd" d="M33.5524 3.80376V0.954346H33.8871V3.80376H33.5524Z" fill="#65AAE0"/>
<path fill-rule="evenodd" clip-rule="evenodd" d="M33.8871 3.80376V0.954346H34.2225V3.80376H33.8871ZM34.2225 3.80376V0.954346H34.5466V3.80376H34.2225Z" fill="#67AAE0"/>
<path fill-rule="evenodd" clip-rule="evenodd" d="M34.5466 3.80376V0.954346H34.8821V3.80376H34.5466Z" fill="#69ABE0"/>
<path fill-rule="evenodd" clip-rule="evenodd" d="M34.8821 3.80376V0.954346H35.2175V3.80376H34.8821Z" fill="#6BADE1"/>
<path fill-rule="evenodd" clip-rule="evenodd" d="M35.2175 3.80376V0.954346H35.5522V3.80376H35.2175Z" fill="#6DAEE1"/>
<path fill-rule="evenodd" clip-rule="evenodd" d="M35.5522 3.80376V0.954346H35.8876V3.80376H35.5522ZM35.8876 3.80376V0.954346H36.2117V3.80376H35.8876Z" fill="#6FAEE1"/>
<path fill-rule="evenodd" clip-rule="evenodd" d="M36.2118 3.80376V0.954346H36.5472V3.80376H36.2118Z" fill="#71AFE2"/>
<path fill-rule="evenodd" clip-rule="evenodd" d="M36.5472 3.80376V0.954346H36.8823V3.80376H36.5472Z" fill="#73AFE2"/>
<path fill-rule="evenodd" clip-rule="evenodd" d="M36.8823 3.80376V0.954346H37.217V3.80376H36.8823Z" fill="#75B0E2"/>
<path fill-rule="evenodd" clip-rule="evenodd" d="M37.217 3.80376V0.954346H37.5524V3.80376H37.217Z" fill="#75B2E3"/>
<path fill-rule="evenodd" clip-rule="evenodd" d="M37.5524 3.80376V0.954346H37.8879V3.80376H37.5524Z" fill="#77B2E3"/>
<path fill-rule="evenodd" clip-rule="evenodd" d="M37.8879 3.80376V0.954346H38.212V3.80376H37.8879Z" fill="#79B3E3"/>
<path fill-rule="evenodd" clip-rule="evenodd" d="M38.212 3.80376V0.954346H38.5467V3.80376H38.212Z" fill="#7BB3E3"/>
<path fill-rule="evenodd" clip-rule="evenodd" d="M38.5467 3.80376V0.954346H38.8822V3.80376H38.5467Z" fill="#7DB4E4"/>
<path fill-rule="evenodd" clip-rule="evenodd" d="M38.8822 3.80376V0.954346H39.2176V3.80376H38.8822Z" fill="#7EB5E5"/>
<path fill-rule="evenodd" clip-rule="evenodd" d="M39.2176 3.80376V0.954346H39.553V3.80376H39.2176Z" fill="#80B6E5"/>
<path fill-rule="evenodd" clip-rule="evenodd" d="M39.553 3.80376V0.954346H39.8772V3.80376H39.553Z" fill="#82B7E5"/>
<path fill-rule="evenodd" clip-rule="evenodd" d="M39.8771 3.80376V0.954346H40.2118V3.80376H39.8771ZM40.2118 3.80376V0.954346H40.5473V3.80376H40.2118Z" fill="#84B8E5"/>
<path fill-rule="evenodd" clip-rule="evenodd" d="M40.5473 3.80376V0.954346H40.8827V3.80376H40.5473Z" fill="#86B8E5"/>
<path fill-rule="evenodd" clip-rule="evenodd" d="M40.8828 3.80376V0.954346H41.2182V3.80376H40.8828Z" fill="#87B9E5"/>
<path fill-rule="evenodd" clip-rule="evenodd" d="M41.2182 3.80376V0.954346H41.5419V3.80376H41.2182Z" fill="#89BAE6"/>
<path fill-rule="evenodd" clip-rule="evenodd" d="M41.5419 3.80376V0.954346H41.8766V3.80376H41.5419ZM41.8766 3.80376V0.954346H42.212V3.80376H41.8766Z" fill="#8CBCE7"/>
<path fill-rule="evenodd" clip-rule="evenodd" d="M42.212 3.80376V0.954346H42.5475V3.80376H42.212ZM42.5475 3.80376V0.954346H42.8829V3.80376H42.5475Z" fill="#90BDE7"/>
<path fill-rule="evenodd" clip-rule="evenodd" d="M42.8829 3.80376V0.954346H43.2177V3.80376H42.8829Z" fill="#92C0E9"/>
<path fill-rule="evenodd" clip-rule="evenodd" d="M43.2177 3.80376V0.954346H43.5418V3.80376H43.2177Z" fill="#94C0E9"/>
<path fill-rule="evenodd" clip-rule="evenodd" d="M43.5417 3.80376V0.954346H43.8772V3.80376H43.5417Z" fill="#96C1E9"/>
<path fill-rule="evenodd" clip-rule="evenodd" d="M43.8773 3.80376V0.954346H44.2127V3.80376H43.8773ZM44.2127 3.80376V0.954346H44.5474V3.80376H44.2127Z" fill="#98C2E9"/>
<path fill-rule="evenodd" clip-rule="evenodd" d="M44.5474 3.80376V0.954346H44.8828V3.80376H44.5474Z" fill="#9AC3E9"/>
<path fill-rule="evenodd" clip-rule="evenodd" d="M44.8828 3.80376V0.954346H45.207V3.80376H44.8828Z" fill="#9CC3E9"/>
<path fill-rule="evenodd" clip-rule="evenodd" d="M45.2069 3.80376V0.954346H45.5423V3.80376H45.2069Z" fill="#9EC4EA"/>
<path fill-rule="evenodd" clip-rule="evenodd" d="M45.5424 3.80376V0.954346H45.8778V3.80376H45.5424Z" fill="#9EC6EB"/>
<path fill-rule="evenodd" clip-rule="evenodd" d="M45.8778 3.80376V0.954346H46.2132V3.80376H45.8778Z" fill="#A0C7EB"/>
<path fill-rule="evenodd" clip-rule="evenodd" d="M46.2133 3.80376V0.954346H46.548V3.80376H46.2133Z" fill="#A2C7EB"/>
<path fill-rule="evenodd" clip-rule="evenodd" d="M46.548 3.80376V0.954346H46.8834V3.80376H46.548Z" fill="#A4C8EB"/>
<path fill-rule="evenodd" clip-rule="evenodd" d="M46.8834 3.80376V0.954346H47.2071V3.80376H46.8834Z" fill="#A6C9EC"/>
<path fill-rule="evenodd" clip-rule="evenodd" d="M47.2072 3.80376V0.954346H47.5426V3.80376H47.2072Z" fill="#A7CBED"/>
<path fill-rule="evenodd" clip-rule="evenodd" d="M47.5426 3.80376V0.954346H47.8773V3.80376H47.5426Z" fill="#A9CBED"/>
<path fill-rule="evenodd" clip-rule="evenodd" d="M47.8773 3.80376V0.954346H48.2127V3.80376H47.8773Z" fill="#ABCCED"/>
<path fill-rule="evenodd" clip-rule="evenodd" d="M48.2127 3.80376V0.954346H48.5481V3.80376H48.2127ZM48.5481 3.80376V0.954346H48.8723V3.80376H48.5481Z" fill="#ADCDED"/>
<path fill-rule="evenodd" clip-rule="evenodd" d="M48.8723 3.80376V0.954346H49.2077V3.80376H48.8723Z" fill="#AFCEED"/>
<path fill-rule="evenodd" clip-rule="evenodd" d="M49.2077 3.80376V0.954346H49.5424V3.80376H49.2077Z" fill="#B1CFEE"/>
<path fill-rule="evenodd" clip-rule="evenodd" d="M49.5424 3.80376V0.954346H49.8779V3.80376H49.5424Z" fill="#B3D1EF"/>
<path fill-rule="evenodd" clip-rule="evenodd" d="M49.8779 3.80376V0.954346H50.2134V3.80376H49.8779Z" fill="#B5D2EF"/>
<path fill-rule="evenodd" clip-rule="evenodd" d="M50.2133 3.80376V0.954346H50.5374V3.80376H50.2133Z" fill="#B5D2EF"/>
<path fill-rule="evenodd" clip-rule="evenodd" d="M50.5374 3.80376V0.954346H50.8728V3.80376H50.5374Z" fill="#B7D3EF"/>
<path fill-rule="evenodd" clip-rule="evenodd" d="M50.8729 3.80376V0.954346H51.2076V3.80376H50.8729Z" fill="#BAD4F0"/>
<path fill-rule="evenodd" clip-rule="evenodd" d="M51.2076 3.80376V0.954346H51.543V3.80376H51.2076Z" fill="#BCD7F1"/>
<path fill-rule="evenodd" clip-rule="evenodd" d="M51.543 3.80376V0.954346H51.8785V3.80376H51.543ZM51.8785 3.80376V0.954346H52.2139V3.80376H51.8785Z" fill="#BED8F1"/>
<path fill-rule="evenodd" clip-rule="evenodd" d="M52.2139 3.80376V0.954346H52.5376V3.80376H52.2139Z" fill="#C0D8F1"/>
<path fill-rule="evenodd" clip-rule="evenodd" d="M52.5377 3.80376V0.954346H52.8723V3.80376H52.5377Z" fill="#C2D9F2"/>
<path fill-rule="evenodd" clip-rule="evenodd" d="M52.8724 3.80376V0.954346H53.2078V3.80376H52.8724ZM53.2078 3.80376V0.954346H53.5433V3.80376H53.2078Z" fill="#C4DAF2"/>
<path fill-rule="evenodd" clip-rule="evenodd" d="M53.5432 3.80376V0.954346H53.8779V3.80376H53.5432Z" fill="#C7DBF2"/>
<path fill-rule="evenodd" clip-rule="evenodd" d="M53.8779 3.80376V0.954346H54.2028V3.80376H53.8779Z" fill="#C9DEF4"/>
<path fill-rule="evenodd" clip-rule="evenodd" d="M54.2028 3.80376V0.954346H54.5375V3.80376H54.2028Z" fill="#CBDFF4"/>
<path fill-rule="evenodd" clip-rule="evenodd" d="M54.5375 3.80376V0.954346H54.8729V3.80376H54.5375ZM54.8729 3.80376V0.954346H55.2084V3.80376H54.8729Z" fill="#CDE0F4"/>
<path fill-rule="evenodd" clip-rule="evenodd" d="M55.2084 3.80376V0.954346H55.5431V3.80376H55.2084Z" fill="#D0E1F4"/>
<path fill-rule="evenodd" clip-rule="evenodd" d="M55.5431 3.80376V0.954346H55.8672V3.80376H55.5431Z" fill="#D2E2F4"/>
<path fill-rule="evenodd" clip-rule="evenodd" d="M55.8672 3.80376V0.954346H56.2027V3.80376H55.8672Z" fill="#D4E2F5"/>
<path fill-rule="evenodd" clip-rule="evenodd" d="M56.2026 3.80376V0.954346H56.5381V3.80376H56.2026Z" fill="#D6E5F6"/>
<path fill-rule="evenodd" clip-rule="evenodd" d="M56.5381 3.80376V0.954346H56.8732V3.80376H56.5381Z" fill="#D6E5F6"/>
<path fill-rule="evenodd" clip-rule="evenodd" d="M56.8732 3.80376V0.954346H57.2079V3.80376H56.8732Z" fill="#D9E6F6"/>
<path fill-rule="evenodd" clip-rule="evenodd" d="M57.2078 3.80376V0.954346H57.5433V3.80376H57.2078Z" fill="#DBE7F6"/>
<path fill-rule="evenodd" clip-rule="evenodd" d="M57.5433 3.80376V0.954346H57.8674V3.80376H57.5433Z" fill="#DDE8F7"/>
<path fill-rule="evenodd" clip-rule="evenodd" d="M57.8674 3.80376V0.954346H58.2029V3.80376H57.8674Z" fill="#DEEAF8"/>
<path fill-rule="evenodd" clip-rule="evenodd" d="M58.2029 3.80376V0.954346H58.5383V3.80376H58.2029Z" fill="#E0EBF8"/>
<path fill-rule="evenodd" clip-rule="evenodd" d="M58.5383 3.80376V0.954346H58.873V3.80376H58.5383Z" fill="#E2ECF8"/>
<path fill-rule="evenodd" clip-rule="evenodd" d="M58.873 3.80376V0.954346H59.2084V3.80376H58.873Z" fill="#E4EDF9"/>
<path fill-rule="evenodd" clip-rule="evenodd" d="M59.2084 3.80376V0.954346H59.5325V3.80376H59.2084ZM59.5325 3.80376V0.954346H59.868V3.80376H59.5325Z" fill="#E6EEF9"/>
<path fill-rule="evenodd" clip-rule="evenodd" d="M59.868 3.80376V0.954346H60.2027V3.80376H59.868Z" fill="#E9EFF9"/>
<path fill-rule="evenodd" clip-rule="evenodd" d="M60.2027 3.80376V0.954346H60.5381V3.80376H60.2027Z" fill="#EBF0F9"/>
<path fill-rule="evenodd" clip-rule="evenodd" d="M60.5381 3.80376V0.954346H60.8736V3.80376H60.5381Z" fill="#EEF4FB"/>
<path fill-rule="evenodd" clip-rule="evenodd" d="M60.8736 3.80376V0.954346H61.1973V3.80376H60.8736ZM61.1973 3.80376V0.954346H61.5328V3.80376H61.1973Z" fill="#F0F5FB"/>
<path fill-rule="evenodd" clip-rule="evenodd" d="M61.5328 3.80376V0.954346H61.8675V3.80376H61.5328Z" fill="#F2F6FC"/>
<path fill-rule="evenodd" clip-rule="evenodd" d="M61.8675 3.80376V0.954346H62.2029V3.80376H61.8675Z" fill="#F5F7FC"/>
<path fill-rule="evenodd" clip-rule="evenodd" d="M62.2029 3.80376V0.954346H62.5384V3.80376H62.2029ZM62.5384 3.80376V0.954346H62.8738V3.80376H62.5384Z" fill="#F8FCFE"/>
<path fill-rule="evenodd" clip-rule="evenodd" d="M62.8738 3.80376V0.954346H63.1979V3.80376H62.8738Z" fill="#FBFDFF"/>
<path fill-rule="evenodd" clip-rule="evenodd" d="M63.1979 3.80376V0.954346H63.5326V3.80376H63.1979ZM63.5326 3.80376V0.954346V3.80376Z" fill="white"/>
<path fill-rule="evenodd" clip-rule="evenodd" d="M2.29761 20.6878V18.8444H1.79482V18.274H3.42634V18.8444H2.92318V20.6878H2.29761ZM3.71647 18.2744H4.34241V19.4477C4.34241 19.6154 4.34241 19.7382 4.35337 19.8167C4.35337 19.8953 4.37602 19.9508 4.38699 20.0067C4.4206 20.0623 4.45422 20.1189 4.52109 20.1408C4.577 20.1745 4.64386 20.1964 4.73339 20.1964C4.82291 20.1964 4.88978 20.1741 4.94569 20.1408C5.00159 20.1185 5.04617 20.0623 5.06846 20.0067C5.09075 19.9512 5.10171 19.8953 5.11304 19.8167C5.12437 19.7382 5.12437 19.6154 5.12437 19.4477V18.2744H5.73898V19.5482C5.73898 19.805 5.72765 20.0064 5.69403 20.1291C5.67328 20.2475 5.62343 20.3589 5.54897 20.4533C5.47077 20.5537 5.35896 20.621 5.22486 20.6773C5.09075 20.7215 4.92303 20.7445 4.73302 20.7445C4.53169 20.7445 4.37529 20.7218 4.24119 20.6773C4.10709 20.621 3.99527 20.5537 3.91708 20.4533C3.84301 20.3573 3.78975 20.2469 3.76069 20.1291C3.72902 19.9371 3.71398 19.7428 3.71574 19.5482V18.2744H3.71647ZM4.81158 17.7047C4.81158 17.6375 4.83387 17.5925 4.87882 17.537C4.89909 17.5159 4.92336 17.4991 4.95022 17.4876C4.97708 17.476 5.00598 17.47 5.03521 17.4697C5.10208 17.4697 5.14702 17.492 5.1916 17.537C5.23655 17.5812 5.25884 17.6375 5.25884 17.7047C5.25884 17.7719 5.23618 17.8275 5.1916 17.8724C5.17189 17.8942 5.14772 17.9115 5.12073 17.9231C5.09375 17.9347 5.06458 17.9403 5.03521 17.9397C5.00583 17.9405 4.97662 17.9348 4.94962 17.9232C4.92261 17.9116 4.89846 17.8943 4.87882 17.8724C4.85672 17.8506 4.83935 17.8244 4.82779 17.7955C4.81622 17.7667 4.81071 17.7358 4.81158 17.7047ZM4.2083 17.7047C4.2083 17.6375 4.23096 17.5925 4.27554 17.537C4.29518 17.5151 4.31933 17.4978 4.34634 17.4862C4.37334 17.4745 4.40255 17.4689 4.43193 17.4697C4.48784 17.4697 4.54374 17.492 4.58869 17.537C4.63327 17.5812 4.65556 17.6375 4.65556 17.7047C4.65556 17.7719 4.63327 17.8275 4.58869 17.8724C4.5689 17.8942 4.54467 17.9115 4.51762 17.9231C4.49057 17.9347 4.46135 17.9403 4.43193 17.9397C4.36506 17.9397 4.30915 17.917 4.27554 17.8724C4.25351 17.8505 4.23619 17.8243 4.22463 17.7955C4.21307 17.7667 4.20751 17.7358 4.2083 17.7047ZM6.21985 20.6878V18.2744H6.86771C7.11362 18.2744 7.29231 18.2857 7.39316 18.308C7.49364 18.3303 7.58317 18.3752 7.65004 18.4308C7.73956 18.498 7.7951 18.5762 7.84005 18.6884C7.88463 18.7888 7.90728 18.9003 7.90728 19.0231C7.90728 19.2131 7.86234 19.3585 7.77318 19.4813C7.69498 19.5935 7.56088 19.6713 7.40449 19.7162L8.01909 20.6882H7.31496L6.80084 19.7382V20.6882H6.21985V20.6878ZM6.80084 19.4141H6.91265C7.04676 19.4141 7.14761 19.3804 7.20315 19.3362C7.27038 19.2913 7.29267 19.2127 7.29267 19.113C7.29267 18.9895 7.27038 18.9003 7.21448 18.8554C7.15857 18.7998 7.05808 18.7775 6.92398 18.7775H6.80121V19.4141H6.80084ZM8.25332 20.6878V18.2744H8.86793V19.3698L9.59435 18.2744H10.3094L9.47121 19.4477L10.3876 20.6882H9.60531L8.86793 19.6041V20.6882H8.25332V20.6878ZM10.5776 20.6878V18.2744H11.2032V20.6878H10.5776ZM10.6672 17.7047C10.6672 17.6492 10.6898 17.5812 10.7344 17.537C10.7526 17.5127 10.7762 17.4929 10.8034 17.4793C10.8305 17.4657 10.8604 17.4585 10.8908 17.4584C10.923 17.4571 10.9551 17.4636 10.9842 17.4772C11.0134 17.4909 11.0389 17.5114 11.0585 17.537C11.0806 17.5589 11.098 17.585 11.1095 17.6139C11.1211 17.6427 11.1266 17.6736 11.1258 17.7047C11.1258 17.7825 11.1031 17.8388 11.0585 17.883C11.0367 17.9051 11.0105 17.9225 10.9817 17.9341C10.9528 17.9456 10.9219 17.9512 10.8908 17.9503C10.8616 17.95 10.8327 17.9439 10.8058 17.9324C10.779 17.9208 10.7547 17.9041 10.7344 17.883C10.6894 17.8347 10.6652 17.7707 10.6672 17.7047ZM12.1087 20.6878V19.5818L11.315 18.2744H12.0301L12.3319 18.889C12.3319 18.889 12.3319 18.9003 12.3429 18.9116C12.3765 18.9789 12.3988 19.0344 12.4101 19.0899C12.4215 19.0457 12.4438 18.9785 12.4774 18.9116C12.4774 18.9003 12.4887 18.9003 12.4887 18.889L12.7905 18.2744H13.5056L12.7123 19.5818V20.6878H12.1087ZM13.6061 20.6878V18.2744H15.0027V18.7998H14.2094V19.2131H14.9581V19.7385H14.2094V20.1412H15.0027V20.6886H13.6061V20.6878ZM16.5111 19.9059C16.6006 20.0181 16.6897 20.0959 16.7793 20.1522C16.8688 20.2077 16.958 20.23 17.0475 20.23C17.1257 20.23 17.2039 20.2077 17.2485 20.1628C17.3044 20.1186 17.3266 20.0623 17.3266 19.9844C17.3266 19.9059 17.304 19.839 17.2594 19.7944C17.2148 19.7608 17.1143 19.7159 16.9466 19.6603C16.723 19.6041 16.5666 19.5149 16.4774 19.4141C16.3879 19.3136 16.3433 19.1685 16.3433 18.9895C16.3433 18.7662 16.4106 18.5762 16.5556 18.4308C16.7007 18.2861 16.8907 18.2075 17.1257 18.2075C17.2484 18.2075 17.3716 18.2301 17.4834 18.2638C17.5952 18.2974 17.6957 18.3529 17.7962 18.4308L17.6062 18.9003C17.5438 18.8408 17.4721 18.7919 17.3939 18.7556C17.3232 18.7256 17.2471 18.7103 17.1703 18.7107C17.0921 18.7107 17.0361 18.722 16.9916 18.7662C16.9667 18.7812 16.9464 18.8027 16.9326 18.8282C16.9189 18.8538 16.9122 18.8826 16.9134 18.9116C16.9134 18.9672 16.9357 19.0231 16.9806 19.0563C17.0252 19.0899 17.1034 19.1236 17.2152 19.1568C17.2265 19.1568 17.2375 19.1681 17.2488 19.1681C17.4947 19.2354 17.6621 19.3245 17.7403 19.4031C17.7962 19.4703 17.8408 19.5372 17.8634 19.615C17.897 19.7042 17.908 19.7941 17.908 19.8949C17.908 20.1518 17.8298 20.3637 17.6734 20.5095C17.5061 20.6659 17.3047 20.7445 17.0365 20.7445C16.8801 20.7445 16.7347 20.7218 16.6006 20.6659C16.461 20.6021 16.3356 20.5109 16.2319 20.3977L16.5111 19.9059ZM18.2544 20.6878V18.2744H19.651V18.7998H18.8577V19.2131H19.6064V19.7385H18.8577V20.1412H19.651V20.6886H18.2544V20.6878ZM20.4669 20.6878V19.5818L19.6623 18.2744H20.3778L20.6902 18.889V18.9116C20.7238 18.9789 20.7461 19.0344 20.7574 19.0899C20.7687 19.0457 20.7907 18.9785 20.8243 18.9116C20.8356 18.9003 20.8356 18.9003 20.8356 18.889L21.1484 18.2744H21.8522L21.0589 19.5818V20.6878H20.4669ZM22.4448 19.7831H23.0595L22.8362 18.9895C22.8249 18.9558 22.8135 18.9222 22.8026 18.8667C22.7913 18.8111 22.7799 18.7439 22.758 18.6547C22.7467 18.722 22.7244 18.7775 22.7131 18.8331C22.7017 18.8886 22.6908 18.9335 22.6794 18.9895L22.4448 19.7831ZM21.5843 20.6878L22.3667 18.2744H23.1377L23.9309 20.6878H23.3054L23.1936 20.2527H22.3107L22.1989 20.6878H21.5843ZM24.1436 20.6878V18.2744H24.7692V19.2127H25.5965V18.2744H26.2111V20.6878H25.5965V19.7045H24.7692V20.6878H24.1436ZM27.2945 19.7831H27.9201L27.6855 18.9895C27.6741 18.9558 27.6632 18.9222 27.6518 18.8667C27.6405 18.8111 27.6296 18.7439 27.6073 18.6547C27.5959 18.722 27.5736 18.7775 27.5623 18.8331C27.551 18.8886 27.5397 18.9335 27.5287 18.9895L27.2945 19.7831ZM26.434 20.6878L27.2163 18.2744H27.9873L28.7806 20.6878H28.166L28.0432 20.2527H27.1604L27.0486 20.6878H26.434ZM29.1942 20.6878V18.8444H28.6801V18.274H30.3229V18.8444H29.8088V20.6878H29.1942ZM32.2223 19.7831H32.8373L32.6133 18.9895C32.6027 18.9558 32.591 18.9222 32.5797 18.8667C32.5691 18.8111 32.5468 18.7439 32.5355 18.6547C32.5241 18.722 32.5018 18.7775 32.4905 18.8331C32.4799 18.8886 32.4682 18.9335 32.4569 18.9895L32.2223 19.7831ZM31.3508 20.6878L32.1441 18.2744H32.9151L33.7088 20.6878H33.0828L32.9707 20.2527H32.0882L31.9764 20.6878H31.3508ZM35.5186 18.3643V19.0793C35.4452 18.9949 35.3584 18.9231 35.2617 18.8667C35.1817 18.8155 35.0885 18.7885 34.9935 18.7889C34.8152 18.7889 34.6694 18.8554 34.5583 18.9895C34.4462 19.113 34.3906 19.28 34.3906 19.4926C34.3906 19.6826 34.4462 19.8503 34.5583 19.9728C34.6698 20.0955 34.8152 20.1628 34.9935 20.1628C35.0834 20.1628 35.1726 20.1405 35.2617 20.0955C35.3403 20.0513 35.4295 19.9728 35.5186 19.8723V20.5874C35.4181 20.6436 35.3173 20.6773 35.2175 20.7109C35.1221 20.7337 35.0244 20.7449 34.9263 20.7445C34.8035 20.7445 34.6807 20.7332 34.5803 20.6995C34.4798 20.6659 34.3789 20.621 34.2898 20.5541C34.122 20.4313 33.9879 20.2866 33.8988 20.0959C33.8096 19.9176 33.7647 19.7049 33.7647 19.4813C33.7647 19.2913 33.7983 19.1236 33.8538 18.9789C33.9101 18.8217 33.9993 18.6884 34.1114 18.5649C34.2229 18.4421 34.3347 18.3529 34.4692 18.2974C34.6145 18.2385 34.7698 18.208 34.9267 18.2075C35.0271 18.2075 35.128 18.2188 35.2179 18.2524C35.3173 18.2744 35.4181 18.308 35.5186 18.3643ZM35.8654 20.6878V18.2744H37.2619V18.7998H36.4683V19.2131H37.217V19.7385H36.4683V20.1412H37.2619V20.6886H35.8654V20.6878ZM37.6646 20.6878V18.2744H38.2675L39.1281 19.5149C39.1387 19.5376 39.1723 19.5821 39.2059 19.6603C39.2395 19.7382 39.2845 19.8281 39.3287 19.9395C39.3181 19.839 39.3064 19.7495 39.3064 19.6713C39.2951 19.5935 39.2951 19.5266 39.2951 19.4594V18.2747H39.8874V20.6882H39.2951L38.4349 19.4371C38.4236 19.4144 38.3899 19.3585 38.3563 19.28C38.3121 19.2127 38.2785 19.1236 38.2336 19.0125C38.2449 19.113 38.2558 19.2025 38.2558 19.28C38.2672 19.3585 38.2672 19.4254 38.2672 19.4926V20.6878H37.6646ZM40.7037 20.6878V18.8444H40.2013V18.274H41.8328V18.8444H41.3296V20.6878H40.7037ZM42.6147 19.7831H43.2294L42.9944 18.9895C42.9944 18.9558 42.9838 18.9222 42.9721 18.8667C42.9604 18.8111 42.9385 18.7439 42.9158 18.6547C42.9052 18.722 42.8935 18.7775 42.8829 18.8331C42.8716 18.8886 42.8493 18.9335 42.838 18.9895L42.6147 19.7831ZM41.7433 20.6878L42.5249 18.2744H43.3072L44.0902 20.6878H43.4749L43.3635 20.2527H42.4806L42.3579 20.6878H41.7433ZM44.3131 20.6878V18.2744H44.9277V20.1186H45.6984V20.6882H44.3131V20.6878ZM46.6042 19.7831H47.2188L46.9948 18.9895C46.9842 18.9558 46.9725 18.9222 46.9619 18.8667C46.9506 18.8111 46.9283 18.7439 46.917 18.6547C46.8983 18.7132 46.8832 18.7727 46.8721 18.8331C46.8615 18.8886 46.8498 18.9335 46.8384 18.9895L46.6042 19.7831ZM45.732 20.6878L46.5257 18.2744H47.2963L48.0786 20.6878H47.464L47.3526 20.2527H46.4697L46.3576 20.6878H45.732ZM48.3019 20.6878V18.2744H48.9505C49.2073 18.2744 49.3857 18.2857 49.4752 18.308C49.5757 18.3303 49.6656 18.3752 49.7434 18.4308C49.822 18.498 49.8888 18.5762 49.9224 18.6884C49.9667 18.7888 49.9897 18.9003 49.9897 19.0231C49.9897 19.2131 49.9561 19.3585 49.8662 19.4813C49.777 19.5935 49.6542 19.6713 49.4865 19.7162L50.1011 20.6882H49.4083L48.8836 19.7382V20.6882H48.3019V20.6878ZM48.8836 19.4141H48.995C49.1292 19.4141 49.23 19.3804 49.2855 19.3362C49.3528 19.2913 49.386 19.2127 49.386 19.113C49.386 18.9895 49.3524 18.9003 49.2969 18.8554C49.2413 18.7998 49.1405 18.7775 49.0064 18.7775H48.8836V19.4141ZM50.358 20.6878V18.2744H50.9839V20.6878H50.358ZM53.0514 19.2357H53.1742C53.3306 19.2357 53.4424 19.2131 53.4983 19.1802C53.5538 19.1466 53.5768 19.0797 53.5768 18.9898C53.5768 18.9007 53.5542 18.8451 53.4983 18.7998C53.4427 18.7662 53.3419 18.7443 53.1859 18.7443H53.0518V19.2357H53.0514ZM52.4814 20.6878V18.2744H53.1073C53.3642 18.2744 53.5432 18.2744 53.6441 18.297C53.7438 18.3076 53.8341 18.3412 53.9009 18.3862C53.9901 18.4304 54.0573 18.4976 54.1023 18.5875C54.1465 18.6653 54.1695 18.7658 54.1695 18.878C54.1695 19.0121 54.1359 19.1236 54.069 19.2021C54.0018 19.28 53.89 19.3468 53.7559 19.3804C53.9123 19.3918 54.0358 19.459 54.1249 19.5595C54.2254 19.6709 54.2696 19.8164 54.2696 19.9954C54.2696 20.1182 54.236 20.241 54.1918 20.3301C54.1363 20.4306 54.069 20.5092 53.9686 20.5651C53.89 20.61 53.8008 20.6323 53.6781 20.6542C53.5659 20.6769 53.3868 20.6878 53.1194 20.6878H52.4814ZM53.0514 20.1854H53.2747C53.4201 20.1854 53.5202 20.1741 53.5871 20.1291C53.6433 20.0955 53.677 20.0294 53.677 19.9391C53.677 19.8387 53.6433 19.7608 53.5984 19.7272C53.5312 19.6823 53.4307 19.66 53.286 19.66H53.051V20.1854H53.0514ZM54.6497 20.6878V18.2744H55.2862V20.6878H54.6497ZM54.7388 17.7047C54.7388 17.6492 54.7611 17.5812 54.8061 17.537C54.8616 17.4814 54.9065 17.4584 54.9738 17.4584C55.0293 17.4584 55.0852 17.4811 55.1302 17.537C55.1557 17.5566 55.1762 17.5821 55.1898 17.6113C55.2035 17.6405 55.21 17.6725 55.2087 17.7047C55.2087 17.7825 55.1861 17.8388 55.1415 17.883C55.0965 17.928 55.041 17.9503 54.9738 17.9503C54.9065 17.9503 54.851 17.928 54.8061 17.883C54.7837 17.8592 54.7662 17.8311 54.7547 17.8005C54.7432 17.77 54.7378 17.7374 54.7388 17.7047ZM55.7777 20.6878V18.2744H56.4255C56.6824 18.2744 56.8615 18.2857 56.9623 18.308C57.0632 18.3303 57.1406 18.3752 57.2192 18.4308C57.2977 18.498 57.3639 18.5762 57.4092 18.6884C57.4541 18.7888 57.4764 18.9003 57.4764 19.0231C57.4764 19.2131 57.4322 19.3585 57.3423 19.4813C57.2532 19.5935 57.1304 19.6713 56.9627 19.7162L57.5886 20.6882H56.8841L56.3587 19.7382V20.6882H55.7777V20.6878ZM56.3587 19.4141H56.4822C56.6155 19.4141 56.7054 19.3804 56.7727 19.3362C56.8282 19.2913 56.8618 19.2127 56.8618 19.113C56.8618 18.9895 56.8282 18.9003 56.7727 18.8554C56.7164 18.7998 56.6272 18.7775 56.4822 18.7775H56.3587V19.4141ZM57.8225 20.6878V18.2744H58.4378V20.1186H59.2084V20.6882H57.8225V20.6878ZM59.5325 20.6878V18.2744H60.1585V20.6878H59.5325ZM59.6217 17.7047C59.6217 17.6492 59.6444 17.5812 59.6889 17.537C59.7072 17.5127 59.7308 17.493 59.7579 17.4793C59.785 17.4657 59.815 17.4585 59.8453 17.4584C59.8775 17.4571 59.9096 17.4636 59.9388 17.4772C59.968 17.4909 59.9934 17.5114 60.0131 17.537C60.0352 17.5588 60.0526 17.585 60.0642 17.6138C60.0757 17.6427 60.0812 17.6736 60.0803 17.7047C60.0803 17.7825 60.058 17.8388 60.0131 17.883C59.9912 17.9052 59.9651 17.9226 59.9362 17.9341C59.9073 17.9457 59.8764 17.9512 59.8453 17.9503C59.8161 17.95 59.7872 17.9439 59.7604 17.9323C59.7335 17.9208 59.7093 17.904 59.6889 17.883C59.6441 17.8347 59.6199 17.7706 59.6217 17.7047ZM61.7341 19.7944V19.2913H62.9516C62.963 19.3026 62.963 19.3249 62.963 19.3468V19.4254C62.963 19.85 62.8625 20.1628 62.6505 20.3974C62.4492 20.6323 62.1474 20.7441 61.7783 20.7441C61.5883 20.7441 61.4323 20.7105 61.2865 20.6542C61.1418 20.5987 61.019 20.5095 60.8955 20.3868C60.795 20.2633 60.7055 20.1291 60.6499 19.9728C60.5922 19.8151 60.562 19.6488 60.5608 19.4809C60.5608 19.3026 60.5937 19.1349 60.6499 18.9785C60.7055 18.8331 60.7946 18.6986 60.9068 18.5758C61.019 18.453 61.1524 18.3639 61.2978 18.3076C61.4425 18.2404 61.6102 18.2185 61.778 18.2185C62.0012 18.2185 62.2025 18.2634 62.3703 18.3526C62.5467 18.4582 62.696 18.6036 62.8062 18.7772L62.2581 19.0454C62.2055 18.9585 62.1328 18.8856 62.0462 18.8327C61.9641 18.7873 61.8717 18.7641 61.778 18.7655C61.5879 18.7655 61.4425 18.8327 61.342 18.9668C61.2306 19.1009 61.175 19.2792 61.175 19.5036C61.175 19.7378 61.2306 19.9168 61.342 20.051C61.4425 20.1737 61.5883 20.241 61.778 20.241C61.9343 20.241 62.0684 20.2073 62.1689 20.1182C62.2811 20.0396 62.3367 19.9282 62.3589 19.7941H61.7341V19.7944ZM61.2646 17.4584H61.4765C61.4765 17.537 61.4991 17.5925 61.5551 17.6261C61.6 17.6598 61.6672 17.6817 61.7564 17.6817C61.8455 17.6817 61.9241 17.6594 61.9683 17.6261C62.0133 17.5925 62.0356 17.537 62.0469 17.4584H62.2482C62.2369 17.6261 62.181 17.7602 62.1028 17.8388C62.025 17.9166 61.9128 17.9616 61.7568 17.9616C61.6007 17.9616 61.4885 17.9166 61.399 17.8388C61.3201 17.7489 61.2759 17.6261 61.2646 17.4584ZM63.3543 20.6878V18.2744H63.9802V20.6878H63.3543ZM63.4435 17.7047C63.4435 17.6492 63.4657 17.5812 63.5107 17.537C63.5289 17.5127 63.5525 17.493 63.5797 17.4793C63.6068 17.4657 63.6367 17.4585 63.6671 17.4584C63.6993 17.4571 63.7313 17.4636 63.7605 17.4772C63.7897 17.4909 63.8152 17.5114 63.8348 17.537C63.857 17.5588 63.8744 17.585 63.8859 17.6138C63.8975 17.6427 63.903 17.6736 63.902 17.7047C63.902 17.7825 63.8797 17.8388 63.8348 17.883C63.813 17.9052 63.7868 17.9226 63.758 17.9341C63.7291 17.9457 63.6982 17.9512 63.6671 17.9503C63.6379 17.95 63.609 17.9439 63.5821 17.9323C63.5553 17.9208 63.531 17.904 63.5107 17.883C63.4883 17.8592 63.4709 17.8311 63.4593 17.8005C63.4478 17.77 63.4424 17.7374 63.4435 17.7047ZM2.26399 22.9903H3.03499L2.65497 22.0402L2.26399 22.9903ZM1.70529 23.8954L2.67763 21.6273L3.60502 23.8954H3.38176L3.10223 23.158H2.19712L1.90663 23.8954H1.70529ZM3.68322 23.5376L3.85094 23.4371C3.88456 23.5493 3.94046 23.6271 4.01866 23.694C4.09686 23.7496 4.19734 23.7832 4.30916 23.7832C4.44326 23.7832 4.55507 23.739 4.63327 23.6604C4.71146 23.5712 4.75604 23.4591 4.75604 23.3144C4.75604 23.2139 4.72243 23.1244 4.67785 23.0575C4.62194 22.9902 4.51049 22.9004 4.33144 22.8112C4.10782 22.6998 3.96239 22.5879 3.88419 22.5094C3.81256 22.4164 3.7733 22.3026 3.77238 22.1853C3.77238 22.0289 3.82828 21.9061 3.93973 21.8056C4.04022 21.7051 4.18565 21.6602 4.353 21.6602C4.46482 21.6602 4.55434 21.6828 4.6435 21.7274C4.7217 21.7724 4.78856 21.8396 4.84447 21.9401L4.68808 22.0292C4.65793 21.9655 4.6065 21.9144 4.54265 21.8845C4.48674 21.8509 4.41987 21.8396 4.34168 21.8396C4.22986 21.8396 4.1407 21.8732 4.07347 21.9288C4.01302 22.0004 3.98126 22.0919 3.98431 22.1856C3.98431 22.3428 4.10709 22.4875 4.36433 22.6216C4.40928 22.6438 4.44253 22.6552 4.47614 22.6771C4.65483 22.7776 4.78893 22.8671 4.84484 22.9676C4.91207 23.0575 4.94532 23.1689 4.94532 23.3144C4.94532 23.5157 4.88942 23.6721 4.76664 23.7832C4.65483 23.9067 4.49843 23.9622 4.2971 23.9622C4.15203 23.9622 4.02889 23.9286 3.92841 23.85C3.81732 23.7832 3.73913 23.6717 3.68322 23.5376ZM5.22522 23.5376L5.39258 23.4371C5.42619 23.5493 5.4821 23.6271 5.5603 23.694C5.63849 23.7496 5.73898 23.7832 5.85079 23.7832C5.98489 23.7832 6.09671 23.739 6.1749 23.6604C6.2531 23.5712 6.29768 23.4591 6.29768 23.3144C6.29768 23.2139 6.26406 23.1244 6.20816 23.0575C6.16321 22.9902 6.05176 22.9004 5.87308 22.8112C5.64982 22.6998 5.50439 22.5879 5.42619 22.5094C5.35456 22.4164 5.3153 22.3026 5.31438 22.1853C5.31438 22.0289 5.37029 21.9061 5.4821 21.8056C5.58259 21.7051 5.71669 21.6602 5.89537 21.6602C5.99586 21.6602 6.09671 21.6828 6.1749 21.7274C6.26443 21.7724 6.3313 21.8396 6.37588 21.9401L6.21948 22.0292C6.19683 21.962 6.14129 21.9178 6.08538 21.8845C6.02947 21.8513 5.96261 21.8396 5.87308 21.8396C5.7726 21.8396 5.68307 21.8732 5.6162 21.9288C5.54897 21.996 5.52668 22.0742 5.52668 22.1856C5.52668 22.3428 5.64982 22.4875 5.9067 22.6216C5.95128 22.6438 5.98489 22.6552 6.00718 22.6771C6.19719 22.7776 6.31997 22.8671 6.3872 22.9676C6.45444 23.0575 6.48769 23.1689 6.48769 23.3144C6.48769 23.5157 6.43178 23.6721 6.30901 23.7832C6.19719 23.9067 6.0408 23.9622 5.83946 23.9622C5.6944 23.9622 5.57126 23.9286 5.45944 23.85C5.35932 23.7832 5.28113 23.6717 5.22522 23.5376ZM8.00777 23.7832C8.13861 23.7853 8.26832 23.7587 8.38779 23.7053C8.4996 23.6604 8.60009 23.5932 8.70057 23.504C8.78973 23.4035 8.85696 23.3027 8.91287 23.1799C8.95782 23.0677 8.9801 22.9449 8.9801 22.8108C8.9801 22.6767 8.95782 22.554 8.91287 22.4312C8.85667 22.3176 8.78524 22.2123 8.70057 22.118C8.61105 22.0289 8.49923 21.9616 8.38779 21.9061C8.14616 21.817 7.8807 21.817 7.63907 21.9061C7.52726 21.9616 7.41545 22.0289 7.32629 22.118C7.23677 22.2185 7.15857 22.3194 7.11399 22.4312C7.06941 22.554 7.04676 22.6767 7.04676 22.8108C7.04676 22.9449 7.06941 23.0677 7.11399 23.1799C7.15857 23.3027 7.23677 23.4032 7.32629 23.504C7.41581 23.5932 7.52726 23.6604 7.63907 23.7053C7.75052 23.7609 7.8733 23.7832 8.00777 23.7832ZM9.19204 22.8112C9.19204 22.9676 9.16975 23.113 9.10251 23.2471C9.04475 23.3904 8.95719 23.5199 8.84564 23.6268C8.73382 23.7273 8.61068 23.8168 8.46562 23.8731C8.32055 23.9286 8.16379 23.9622 8.0074 23.9622C7.85101 23.9622 7.69462 23.9286 7.56051 23.8731C7.41545 23.8168 7.29231 23.7276 7.16953 23.6268C7.0615 23.5169 6.97433 23.3882 6.91229 23.2471C6.85675 23.113 6.82313 22.9672 6.82313 22.8112C6.82313 22.6552 6.85675 22.5094 6.91229 22.3643C6.97952 22.2302 7.05772 22.0961 7.16953 21.9953C7.27856 21.8861 7.40758 21.7988 7.54955 21.7384C7.69741 21.6896 7.85173 21.6631 8.0074 21.6598C8.17512 21.6598 8.33151 21.6934 8.46562 21.7497C8.61068 21.8052 8.73382 21.8838 8.84564 21.9953C8.95745 22.0957 9.04661 22.2302 9.10251 22.3643C9.16975 22.5094 9.19204 22.6548 9.19204 22.8112ZM11.4159 22.1074C11.3147 22.0241 11.2018 21.9563 11.0808 21.9061C10.9634 21.8602 10.8382 21.8373 10.7121 21.8389C10.4329 21.8389 10.1984 21.928 10.0193 22.1071C9.84063 22.2854 9.75111 22.5203 9.75111 22.8108C9.75111 22.9563 9.77376 23.079 9.81834 23.2018C9.86292 23.314 9.93015 23.4145 10.0197 23.5036C10.1092 23.5928 10.2097 23.66 10.3211 23.705C10.4329 23.7492 10.5561 23.7722 10.6902 23.7722C10.813 23.7722 10.9357 23.7496 11.0589 23.705C11.1817 23.6714 11.2935 23.6045 11.4053 23.515V23.7492C11.2976 23.8173 11.1811 23.8702 11.0589 23.9063C10.9361 23.9392 10.813 23.9619 10.7012 23.9619C10.5334 23.9619 10.3884 23.9282 10.2429 23.8727C10.0979 23.8164 9.96341 23.7386 9.86292 23.6377C9.75731 23.5323 9.67383 23.4068 9.61737 23.2687C9.56339 23.122 9.53689 22.9667 9.53917 22.8105C9.53917 22.6428 9.56146 22.4864 9.61737 22.3523C9.67327 22.2076 9.76243 22.084 9.86292 21.9839C9.97473 21.8834 10.0979 21.8049 10.2429 21.749C10.3889 21.6911 10.5442 21.6606 10.7012 21.6591C10.8353 21.6591 10.9694 21.6817 11.0921 21.7154C11.2149 21.7596 11.3154 21.8158 11.4162 21.8937V22.1074H11.4159ZM11.8514 23.8954V21.7051H12.0528V23.8954H11.8514ZM12.8684 22.9903H13.6394L13.2593 22.0402L12.8684 22.9903ZM12.2987 23.8954L13.2707 21.6273L14.1984 23.8954H13.9861L13.707 23.158H12.8015L12.5 23.8954H12.2987ZM14.6786 23.8954V21.8948H14.0643V21.7048H15.4832V21.8948H14.8799V23.8954H14.6786ZM15.8183 23.8954V21.7051H16.0196V23.8954H15.8183ZM17.6511 23.7832C17.7852 23.7832 17.908 23.7609 18.0198 23.7053C18.1426 23.6604 18.2434 23.5932 18.3326 23.504C18.4331 23.4035 18.5 23.3027 18.5449 23.1799C18.6008 23.0677 18.6231 22.9449 18.6231 22.8108C18.6231 22.6767 18.6008 22.554 18.5449 22.4312C18.4967 22.3132 18.4244 22.2065 18.3326 22.118C18.2423 22.0287 18.1362 21.9569 18.0198 21.9061C17.9024 21.8602 17.7772 21.8373 17.6511 21.8389C17.517 21.8389 17.3939 21.8612 17.2821 21.9061C17.1638 21.9594 17.0545 22.0309 16.9583 22.118C16.8734 22.2098 16.8052 22.3158 16.757 22.4312C16.7011 22.554 16.6788 22.6767 16.6788 22.8108C16.6788 22.9449 16.7011 23.0677 16.757 23.1799C16.8019 23.3027 16.8688 23.4032 16.9583 23.504C17.0588 23.5932 17.1593 23.6604 17.2711 23.7053C17.3906 23.7587 17.5203 23.7853 17.6511 23.7832ZM18.8354 22.8112C18.8354 22.9676 18.8018 23.113 18.7462 23.2471C18.6883 23.3905 18.6007 23.5199 18.489 23.6268C18.3772 23.7273 18.2431 23.8168 18.098 23.8731C17.9562 23.9314 17.8044 23.9616 17.6511 23.9622C17.4942 23.9605 17.339 23.9303 17.1929 23.8731C17.0536 23.8123 16.9252 23.7291 16.8129 23.6268C16.7013 23.5199 16.6138 23.3904 16.556 23.2471C16.5001 23.113 16.4665 22.9672 16.4665 22.8112C16.4665 22.6552 16.4997 22.5094 16.556 22.3643C16.6119 22.2302 16.7011 22.0961 16.8129 21.9953C16.9247 21.8838 17.0478 21.7939 17.1929 21.7384C17.338 21.6934 17.4834 21.6598 17.6511 21.6598C17.8075 21.6598 17.9639 21.6934 18.1093 21.7497C18.2544 21.8052 18.3772 21.8838 18.4894 21.9953C18.6012 22.0957 18.6903 22.2302 18.7466 22.3643C18.8021 22.5094 18.8354 22.6548 18.8354 22.8112ZM19.2826 23.8954V21.616L20.8469 23.4488V21.7055H21.0256V23.963L19.4613 22.1297V23.8954H19.2826ZM23.5513 23.7832C23.6854 23.7832 23.8085 23.7609 23.92 23.7053C24.0431 23.6604 24.1436 23.5932 24.2441 23.504C24.3336 23.4035 24.4005 23.3027 24.4564 23.1799C24.5013 23.0677 24.5236 22.9449 24.5236 22.8108C24.5236 22.6767 24.5013 22.554 24.4564 22.4312C24.4002 22.3176 24.3288 22.2123 24.2441 22.118C24.1499 22.0336 24.0447 21.9623 23.9313 21.9061C23.8085 21.8612 23.6858 21.8389 23.5513 21.8389C23.4168 21.8389 23.2944 21.8612 23.1826 21.9061C23.0708 21.9616 22.959 22.0289 22.8698 22.118C22.778 22.2065 22.7057 22.3131 22.6575 22.4312C22.6126 22.554 22.5793 22.6767 22.5793 22.8108C22.5793 22.9449 22.6129 23.0677 22.6575 23.1799C22.7021 23.3027 22.7693 23.4032 22.8698 23.504C22.959 23.5932 23.0598 23.6604 23.1826 23.7053C23.294 23.7609 23.4168 23.7832 23.5513 23.7832ZM24.7356 22.8112C24.7356 22.9676 24.7019 23.113 24.646 23.2471C24.5883 23.3905 24.5006 23.52 24.3888 23.6268C24.2764 23.7291 24.148 23.8123 24.0088 23.8731C23.8637 23.9286 23.707 23.9622 23.5506 23.9622C23.3942 23.9622 23.2378 23.9286 23.1037 23.8731C22.9595 23.8153 22.8271 23.7318 22.7127 23.6268C22.6011 23.5198 22.5135 23.3904 22.4554 23.2471C22.3995 23.113 22.3663 22.9672 22.3663 22.8112C22.3663 22.6552 22.3995 22.5094 22.4554 22.3643C22.5114 22.2302 22.6005 22.0961 22.7127 21.9953C22.8217 21.886 22.9507 21.7988 23.0927 21.7384C23.2407 21.6896 23.3951 21.6631 23.5509 21.6598C23.7183 21.6598 23.8637 21.6934 24.0091 21.7497C24.1542 21.8052 24.2773 21.8838 24.3892 21.9953C24.501 22.0957 24.5901 22.2302 24.6464 22.3643C24.7019 22.5094 24.7356 22.6548 24.7356 22.8112ZM25.1824 23.8954V21.7051H26.2776V21.8951H25.3834V22.5879H26.2439V22.767H25.3834V23.8954H25.1824ZM28.0096 23.8954V21.8948H27.4063V21.7048H28.8252V21.8948H28.2105V23.8954H28.0096ZM29.1493 21.7051H29.3502V23.1353C29.3502 23.3586 29.3952 23.5157 29.4957 23.6271C29.5962 23.7276 29.7529 23.7835 29.9539 23.7835C30.1549 23.7835 30.3116 23.728 30.4117 23.6271C30.5122 23.5157 30.5568 23.3589 30.5568 23.1353V21.7051H30.7581V23.0798C30.7581 23.3703 30.6909 23.5935 30.5568 23.7393C30.4227 23.884 30.2217 23.9626 29.9535 23.9626C29.6853 23.9626 29.484 23.884 29.3499 23.7393C29.2161 23.5939 29.1489 23.3703 29.1489 23.0798V21.7051H29.1493ZM31.4963 21.8842V22.6884H31.7086C31.8872 22.6884 32.0213 22.6661 32.0995 22.5993C32.1668 22.543 32.2113 22.4421 32.2113 22.2974C32.2113 22.152 32.1668 22.0406 32.0886 21.985C32.0104 21.9178 31.8876 21.8845 31.7086 21.8845H31.4963V21.8842ZM32.6469 23.8954H32.4014L31.619 22.8561H31.4963V23.8954H31.2949V21.7051H31.7086C31.9431 21.7051 32.1218 21.7607 32.245 21.8615C32.3677 21.962 32.4236 22.1078 32.4236 22.3091C32.4236 22.4761 32.3677 22.6102 32.2673 22.7111C32.1668 22.8119 32.0327 22.8565 31.854 22.8565L32.6469 23.8954ZM32.9374 23.8954V21.7051H33.1384V22.7334L34.1334 21.7051H34.4016L33.351 22.7557L34.4458 23.8954H34.1553L33.1384 22.7893V23.8954H32.9374ZM34.703 23.8954V21.7051H34.9044V23.8954H34.703ZM35.2953 23.5376L35.4631 23.4371C35.4967 23.5493 35.5522 23.6271 35.6308 23.694C35.7086 23.7496 35.8091 23.7832 35.9213 23.7832C36.0554 23.7832 36.1668 23.739 36.2454 23.6604C36.324 23.5712 36.3576 23.4591 36.3576 23.3144C36.3576 23.2139 36.3349 23.1244 36.279 23.0575C36.2341 22.9902 36.1113 22.9004 35.9436 22.8112C35.7203 22.6998 35.5752 22.5879 35.4967 22.5094C35.4181 22.4202 35.3852 22.3088 35.3852 22.1853C35.3837 22.1146 35.3968 22.0444 35.4237 21.9791C35.4506 21.9137 35.4908 21.8547 35.5416 21.8056C35.6531 21.7051 35.7872 21.6602 35.9549 21.6602C36.0664 21.6602 36.1668 21.6828 36.2454 21.7274C36.3346 21.7724 36.4018 21.8396 36.4467 21.9401L36.2903 22.0292C36.2567 21.962 36.2118 21.9178 36.1562 21.8845C36.1007 21.8513 36.0335 21.8396 35.9436 21.8396C35.8431 21.8396 35.7536 21.8732 35.6867 21.9288C35.6195 21.996 35.5862 22.0742 35.5862 22.1856C35.5862 22.3428 35.7203 22.4875 35.9772 22.6216C36.0221 22.6438 36.0558 22.6552 36.0777 22.6771C36.2677 22.7776 36.3908 22.8671 36.4581 22.9676C36.5253 23.0575 36.5578 23.1689 36.5578 23.3144C36.5578 23.5157 36.4913 23.6721 36.3795 23.7832C36.2673 23.9067 36.1113 23.9622 35.91 23.9622C35.7653 23.9622 35.6425 23.9286 35.5303 23.85C35.4295 23.7832 35.3509 23.6717 35.2953 23.5376ZM37.0051 23.8954V21.7051H37.2064V22.5993H38.4016V21.7051H38.603V23.8954H38.4016V22.767H37.2064V23.8954H37.0051ZM40.4358 23.8954V21.8948H39.8322V21.7048H41.2518V21.8948H40.6364V23.8954H40.4358ZM41.7875 21.8842V22.6884H41.9888C42.1788 22.6884 42.3012 22.6661 42.3798 22.5993C42.4584 22.543 42.492 22.4421 42.492 22.2974C42.492 22.152 42.4584 22.0406 42.3798 21.985C42.3012 21.9178 42.1671 21.8845 41.9888 21.8845H41.7875V21.8842ZM42.9272 23.8954H42.6816L41.9102 22.8561H41.7875V23.8954H41.5861V21.7051H41.9888C42.2344 21.7051 42.4134 21.7607 42.5249 21.8615C42.6484 21.962 42.7152 22.1078 42.7152 22.3091C42.7152 22.4761 42.659 22.6102 42.5581 22.7111C42.4584 22.8116 42.3126 22.8565 42.1342 22.8565L42.9272 23.8954ZM43.4862 22.9903H44.2569L43.8772 22.0402L43.4862 22.9903ZM42.9158 23.8954L43.8885 21.6273L44.8156 23.8954H44.6036L44.3131 23.158H43.4073L43.1168 23.8954H42.9158ZM45.576 23.9845L44.7045 21.7051H44.9394L45.576 23.493L46.2461 21.7051H46.4701L45.576 23.9845ZM46.7157 23.8954V21.7051H47.8104V21.8951H46.917V22.5879H47.8104V22.767H46.917V23.7163H47.8104V23.8954H46.7157ZM48.3019 23.8954V21.7051H48.5032V23.7163H49.2633V23.8954H48.3019ZM50.7384 22.9903H51.509L51.1294 22.0402L50.7384 22.9903ZM50.1684 23.8954L51.1403 21.6273L52.0681 23.8954H51.8554L51.5649 23.158H50.6715L50.3697 23.8954H50.1684ZM54.0793 22.2638C53.9997 22.1295 53.8833 22.0209 53.7438 21.9507C53.6211 21.8728 53.4647 21.8392 53.3086 21.8392C53.0287 21.8392 52.8055 21.9284 52.6378 22.1184C52.4594 22.2974 52.3809 22.543 52.3809 22.8335C52.3809 22.957 52.4035 23.0798 52.4481 23.2025C52.493 23.3147 52.5603 23.4152 52.6494 23.5044C52.7386 23.5935 52.8395 23.6608 52.9399 23.7057C53.0576 23.7513 53.1828 23.7741 53.309 23.7729C53.5546 23.7729 53.7559 23.7057 53.9119 23.5603C54.069 23.4156 54.1469 23.2248 54.1469 22.9906H53.3868V22.8229H54.3701V22.8452C54.3701 23.1912 54.2696 23.4711 54.0796 23.6608C53.8896 23.8621 53.6214 23.9626 53.2867 23.9626C52.9513 23.9626 52.6831 23.8504 52.4711 23.6385C52.2698 23.4258 52.158 23.1583 52.158 22.8112C52.158 22.6548 52.1916 22.4988 52.2365 22.3643C52.2877 22.226 52.3678 22.1002 52.4715 21.9953C52.572 21.8838 52.6948 21.7939 52.8292 21.7384C52.9728 21.6877 53.1238 21.6611 53.2761 21.6598C53.4994 21.6598 53.7007 21.7048 53.8571 21.7833C54.0135 21.8612 54.137 21.9847 54.2262 22.1294L54.0793 22.2638ZM54.7944 23.8954V21.7051H55.8898V21.8951H54.9957V22.5879H55.8898V22.767H54.9957V23.7163H55.8898V23.8954H54.7944ZM56.3817 23.8954V21.616L57.946 23.4488V21.7055H58.136V23.963L56.5717 22.1301V23.8957H56.3817V23.8954ZM60.4603 22.1074C60.3589 22.0243 60.2459 21.9565 60.1249 21.9061C60.011 21.8612 59.8896 21.8384 59.7671 21.8389C59.4766 21.8389 59.2417 21.928 59.0626 22.1071C58.8843 22.2854 58.7952 22.5203 58.7952 22.8108C58.7952 22.9563 58.8175 23.079 58.8624 23.2018C58.9066 23.314 58.9738 23.4145 59.063 23.5036C59.1529 23.5928 59.2534 23.66 59.3648 23.705C59.4825 23.7505 59.6077 23.7733 59.7339 23.7722C59.8567 23.7722 59.9908 23.7496 60.1029 23.705C60.2257 23.6714 60.3372 23.6045 60.449 23.515V23.7492C60.3414 23.8172 60.225 23.8701 60.1029 23.9063C59.9794 23.9392 59.868 23.9619 59.7452 23.9619C59.5881 23.9619 59.4321 23.9282 59.287 23.8727C59.1467 23.8186 59.0178 23.739 58.9066 23.6377C58.8061 23.5256 58.7166 23.4028 58.6611 23.2687C58.6068 23.1221 58.5802 22.9668 58.5825 22.8105C58.5825 22.6428 58.6048 22.4864 58.6611 22.3523C58.7283 22.2076 58.8058 22.084 58.9066 21.9839C59.0178 21.8827 59.1467 21.8031 59.287 21.749C59.4329 21.691 59.5882 21.6605 59.7452 21.6591C59.8899 21.6591 60.0127 21.6817 60.1362 21.7154C60.259 21.7596 60.3704 21.8158 60.4603 21.8937V22.1074ZM60.8955 23.8954V21.7051H61.0968V23.8954H60.8955ZM61.6442 23.8954V21.7051H62.7397V21.8951H61.8455V22.5879H62.7397V22.767H61.8455V23.7163H62.7397V23.8954H61.6442ZM63.0638 23.5376L63.2421 23.4371C63.2757 23.5493 63.3313 23.6271 63.4098 23.694C63.4884 23.7496 63.5776 23.7832 63.6897 23.7832C63.8344 23.7832 63.9353 23.739 64.0139 23.6604C64.103 23.5712 64.1366 23.4591 64.1366 23.3144C64.1366 23.2139 64.1143 23.1244 64.0581 23.0575C64.0025 22.9902 63.8903 22.9004 63.712 22.8112C63.4994 22.6998 63.343 22.5879 63.2761 22.5094C63.1983 22.4202 63.1647 22.3088 63.1647 22.1853C63.1631 22.1146 63.1762 22.0444 63.2031 21.9791C63.23 21.9137 63.2702 21.8547 63.321 21.8056C63.4325 21.7051 63.5666 21.6602 63.7343 21.6602C63.8465 21.6602 63.947 21.6828 64.0248 21.7274C64.1034 21.7724 64.1702 21.8396 64.2262 21.9401L64.0698 22.0292C64.0404 21.9687 63.9938 21.9184 63.9357 21.8845C63.8697 21.8526 63.797 21.8372 63.7237 21.8396C63.6115 21.8396 63.5224 21.8732 63.4661 21.9288C63.3996 21.996 63.3664 22.0742 63.3664 22.1856C63.3664 22.3428 63.4997 22.4875 63.746 22.6216C63.8016 22.6438 63.8352 22.6552 63.8575 22.6771C64.0478 22.7776 64.1706 22.8671 64.2378 22.9676C64.2934 23.0575 64.327 23.1689 64.327 23.3144C64.327 23.5157 64.2715 23.6721 64.1593 23.7832C64.0365 23.9067 63.8801 23.9622 63.6791 23.9622C63.5337 23.9622 63.4109 23.9286 63.3101 23.85C63.2085 23.7832 63.1193 23.6717 63.0638 23.5376Z" fill="black"/>
</svg>
