<svg width="52" height="40" viewBox="0 0 52 40" fill="none" xmlns="http://www.w3.org/2000/svg">
<g clip-path="url(#clip0)">
<path d="M45.5043 26.0533L8.28598 35.5438C7.40747 35.7679 6.51362 35.2372 6.28958 34.3587L0.794343 12.808C0.570297 11.9295 1.10096 11.0356 1.97947 10.8116L39.1978 1.32108C40.0763 1.09703 40.9702 1.62769 41.1942 2.50621L46.6895 24.0568C46.9135 24.9354 46.3829 25.8293 45.5043 26.0533Z" fill="#F87F27"/>
<path opacity="0.12" d="M46.6894 24.0569L41.1941 2.50621C40.9701 1.62769 40.0763 1.09703 39.1977 1.32108L36.1704 2.09305C36.2433 2.2198 36.3018 2.35752 36.3397 2.50621L41.8351 24.0568C42.0591 24.9353 41.5284 25.8292 40.6499 26.0532L6.45898 34.7718C6.81709 35.3942 7.55616 35.7299 8.28609 35.5438L45.5044 26.0533C46.3829 25.8293 46.9135 24.9354 46.6894 24.0569Z" fill="#333333"/>
<path d="M41.6638 4.3486L1.26355 14.6509L2.74163 20.4472L43.1419 10.1449L41.6638 4.3486Z" fill="#2C5871"/>
<path d="M49.6153 38.7301H11.2061C10.2995 38.7301 9.56445 37.995 9.56445 37.0884V14.8482C9.56445 13.9415 10.2995 13.2065 11.2061 13.2065H49.6153C50.522 13.2065 51.257 13.9415 51.257 14.8482V37.0884C51.257 37.995 50.522 38.7301 49.6153 38.7301Z" fill="#F87F27"/>
<path d="M36.2487 26.7294C38.5399 26.7294 40.3973 24.872 40.3973 22.5808C40.3973 20.2895 38.5399 18.4321 36.2487 18.4321C33.9575 18.4321 32.1001 20.2895 32.1001 22.5808C32.1001 24.872 33.9575 26.7294 36.2487 26.7294Z" fill="#21D8DE"/>
<path d="M41.9717 26.7294C44.263 26.7294 46.1204 24.872 46.1204 22.5808C46.1204 20.2895 44.263 18.4321 41.9717 18.4321C39.6805 18.4321 37.8231 20.2895 37.8231 22.5808C37.8231 24.872 39.6805 26.7294 41.9717 26.7294Z" fill="#61AFF6"/>
<path d="M18.6946 26.2466H15.4359C14.3114 26.2466 13.3998 25.335 13.3998 24.2105V20.9516C13.3998 19.8271 14.3114 18.9155 15.4359 18.9155H18.6946C19.8191 18.9155 20.7308 19.8271 20.7308 20.9516V24.2104C20.7308 25.335 19.8191 26.2466 18.6946 26.2466Z" fill="#CCCCCC"/>
<path d="M49.6153 12.4634H44.4999L43.8622 9.96251C43.8622 9.96231 43.8621 9.96221 43.8621 9.96201L42.3841 4.16585V4.16564L41.914 2.32249C41.5891 1.04829 40.288 0.276316 39.0141 0.60101L33.1185 2.10444C32.7209 2.2058 32.4807 2.61042 32.5821 3.00804C32.6835 3.40565 33.0881 3.64564 33.4857 3.54449L39.3813 2.04116C39.8618 1.91898 40.3516 2.20976 40.4741 2.68984L40.7605 3.81322L1.80067 13.7476L1.51427 12.6244C1.45496 12.3918 1.48979 12.15 1.61228 11.9436C1.73486 11.7372 1.93047 11.5909 2.16305 11.5316L28.9612 4.69813C29.3588 4.59678 29.599 4.19215 29.4976 3.79454C29.3962 3.39692 28.9919 3.15693 28.594 3.25808L1.7958 10.0915C0.521598 10.4164 -0.250682 11.7173 0.0742157 12.9914L5.56955 34.5421C5.84428 35.6194 6.81653 36.3379 7.8806 36.3378C8.07499 36.3378 8.27263 36.3138 8.46946 36.2636L8.82127 36.1739V37.0883C8.82127 38.4032 9.89103 39.473 11.206 39.473H49.6153C50.9302 39.473 52 38.4032 52 37.0883V14.8481C52 13.5331 50.9302 12.4634 49.6153 12.4634ZM8.82137 34.6403L8.10241 34.8236C7.62233 34.9461 7.13209 34.6551 7.0096 34.175L3.64586 20.9837L8.82137 19.6639V34.6403ZM8.82137 14.848V18.1304L3.27871 19.5437L2.75678 17.4967L2.16792 15.1875L9.34706 13.3568C9.01861 13.7656 8.82137 14.2841 8.82137 14.848ZM42.6057 11.0491L42.9663 12.4633H37.0598L42.6057 11.0491ZM41.1277 5.25297L42.2385 9.60918L31.0456 12.4634H12.8513L41.1277 5.25297ZM50.5139 37.0883C50.5139 37.5838 50.1108 37.9869 49.6153 37.9869H11.2061C10.7105 37.9869 10.3073 37.5838 10.3073 37.0883V35.2177V14.8481C10.3073 14.3525 10.7104 13.9494 11.2061 13.9494H49.6153C50.1108 13.9494 50.5139 14.3525 50.5139 14.8481V37.0883Z" fill="#333333"/>
<path d="M13.3996 32.2409H29.5895C29.9998 32.2409 30.3325 31.9083 30.3325 31.4979C30.3325 31.0876 29.9999 30.7549 29.5895 30.7549H13.3996C12.9893 30.7549 12.6566 31.0875 12.6566 31.4979C12.6566 31.9083 12.9893 32.2409 13.3996 32.2409Z" fill="#333333"/>
<path d="M36.2488 27.4724C37.2872 27.4724 38.2821 27.1466 39.1115 26.5456C39.9165 27.1279 40.9042 27.4724 41.9713 27.4724C44.6685 27.4724 46.8629 25.278 46.8629 22.5809C46.8629 19.8836 44.6685 17.6892 41.9713 17.6892C40.9041 17.6892 39.9165 18.0337 39.1115 18.616C38.2821 18.015 37.2871 17.6892 36.2487 17.6892C33.5514 17.6892 31.3571 19.8836 31.3571 22.5809C31.3573 25.278 33.5516 27.4724 36.2488 27.4724ZM39.3443 20.4161C39.3444 20.416 39.3445 20.4159 39.3446 20.4156C39.3753 20.3785 39.4071 20.3423 39.4393 20.3065C39.4467 20.2982 39.454 20.29 39.4615 20.2819C39.4889 20.2519 39.5171 20.2227 39.5455 20.1938C39.5579 20.1812 39.5703 20.1687 39.5829 20.1564C40.1981 19.5502 41.0417 19.1753 41.9715 19.1753C43.8493 19.1753 45.377 20.703 45.377 22.5809C45.377 24.4586 43.8493 25.9863 41.9715 25.9863C41.0417 25.9863 40.1982 25.6115 39.583 25.0053C39.5703 24.9929 39.5578 24.9803 39.5453 24.9676C39.517 24.9387 39.4888 24.9096 39.4615 24.8797C39.454 24.8715 39.4466 24.8632 39.4391 24.8548C39.407 24.8191 39.3753 24.7829 39.3447 24.7459C39.3445 24.7457 39.3444 24.7454 39.3442 24.7452C38.8582 24.1564 38.5659 23.402 38.5659 22.5807C38.5658 21.7594 38.8582 21.005 39.3443 20.4161ZM36.2488 19.1753C36.886 19.1753 37.4999 19.3513 38.0321 19.6797C37.5152 20.377 37.1981 21.1932 37.1075 22.0622C37.106 22.0766 37.1047 22.0909 37.1032 22.1053C37.0974 22.1672 37.0927 22.2292 37.089 22.2915C37.0879 22.3106 37.0866 22.3295 37.0857 22.3486C37.0821 22.4257 37.0798 22.503 37.0798 22.5807C37.0798 22.6583 37.0821 22.7356 37.0857 22.8127C37.0866 22.8318 37.0879 22.8508 37.089 22.8699C37.0926 22.9322 37.0974 22.9942 37.1032 23.0561C37.1047 23.0705 37.106 23.0849 37.1075 23.0993C37.1981 23.9683 37.5151 24.7846 38.0321 25.4818C37.4999 25.8102 36.886 25.9862 36.2488 25.9862C34.3709 25.9862 32.8432 24.4585 32.8432 22.5807C32.8433 20.7031 34.371 19.1753 36.2488 19.1753Z" fill="#333333"/>
<path d="M15.4359 26.9894H18.6946C20.227 26.9894 21.4738 25.7427 21.4738 24.2103V20.9515C21.4738 19.4191 20.2271 18.1724 18.6946 18.1724H15.4359C13.9034 18.1724 12.6567 19.419 12.6567 20.9515V24.2103C12.6566 25.7427 13.9034 26.9894 15.4359 26.9894ZM14.1427 22.3361H15.7278C16.1381 22.3361 16.4708 22.0035 16.4708 21.5931C16.4708 21.1828 16.1382 20.8501 15.7278 20.8501H14.1478C14.1998 20.1844 14.7569 19.6583 15.4358 19.6583H18.6945C19.3734 19.6583 19.9304 20.1844 19.9825 20.8501H18.4025C17.9922 20.8501 17.6595 21.1827 17.6595 21.5931C17.6595 22.0034 17.9921 22.3361 18.4025 22.3361H19.9876V22.98H18.4025C17.9922 22.98 17.6595 23.3126 17.6595 23.7231C17.6595 24.1335 17.9921 24.4661 18.4025 24.4661H19.962C19.8429 25.057 19.3199 25.5034 18.6945 25.5034H15.4358C14.8103 25.5034 14.2873 25.0571 14.1683 24.4661H15.7278C16.1381 24.4661 16.4708 24.1335 16.4708 23.7231C16.4708 23.3126 16.1382 22.98 15.7278 22.98H14.1427V22.3361Z" fill="#333333"/>
<path d="M47.0356 34.0242H21.1643C20.754 34.0242 20.4213 34.3568 20.4213 34.7672C20.4213 35.1776 20.7539 35.5102 21.1643 35.5102H47.0356C47.4459 35.5102 47.7786 35.1776 47.7786 34.7672C47.7786 34.3568 47.446 34.0242 47.0356 34.0242Z" fill="#333333"/>
<path d="M16.4276 34.0242H13.3998C12.9895 34.0242 12.6567 34.3568 12.6567 34.7672C12.6567 35.1776 12.9894 35.5102 13.3998 35.5102H16.4276C16.838 35.5102 17.1707 35.1776 17.1707 34.7672C17.1707 34.3568 16.838 34.0242 16.4276 34.0242Z" fill="#333333"/>
</g>
<defs>
<clipPath id="clip0">
<rect width="52" height="40" fill="white"/>
</clipPath>
</defs>
</svg>
