<svg width="29" height="25" viewBox="0 0 29 25" fill="none" xmlns="http://www.w3.org/2000/svg">
<path fill-rule="evenodd" clip-rule="evenodd" d="M12.167 1.56834C12.411 1.08018 12.2132 0.486575 11.725 0.242493C11.2368 -0.00158791 10.6432 0.196279 10.3992 0.684442L7.56643 6.3499H2.61586C1.20896 6.3499 0.193208 7.69652 0.579715 9.04929L4.45195 22.6021C4.71169 23.5112 5.54262 24.138 6.4881 24.138H22.8547C23.8002 24.138 24.6311 23.5112 24.8909 22.6021L28.7631 9.04929C29.1496 7.69651 28.1338 6.3499 26.7269 6.3499H21.7763L18.9435 0.684442C18.6995 0.196279 18.1059 -0.00158791 17.6177 0.242493C17.1295 0.486575 16.9317 1.08018 17.1758 1.56834L19.5665 6.3499H9.77617L12.167 1.56834ZM21.6934 10.6036L20.5548 8.32636H8.78795L7.64935 10.6036C7.40527 11.0917 6.81167 11.2896 6.3235 11.0455C5.83534 10.8014 5.63747 10.2078 5.88156 9.71965L6.57821 8.32636H2.61586C2.52207 8.32636 2.45435 8.41613 2.48012 8.50632L6.35235 22.0591C6.36967 22.1197 6.42507 22.1615 6.4881 22.1615H22.8547C22.9177 22.1615 22.9731 22.1197 22.9904 22.0591L26.8627 8.50631C26.8884 8.41613 26.8207 8.32636 26.7269 8.32636H22.7645L23.4612 9.71965C23.7052 10.2078 23.5074 10.8014 23.0192 11.0455C22.531 11.2896 21.9374 11.0917 21.6934 10.6036ZM10.0128 12.9852C10.0128 12.4394 9.57032 11.9969 9.02453 11.9969C8.47875 11.9969 8.03631 12.4394 8.03631 12.9852V18.0675C8.03631 18.6133 8.47875 19.0557 9.02453 19.0557C9.57032 19.0557 10.0128 18.6133 10.0128 18.0675V12.9852ZM19.7537 11.9969C20.2995 11.9969 20.7419 12.4394 20.7419 12.9852V18.0675C20.7419 18.6133 20.2995 19.0557 19.7537 19.0557C19.2079 19.0557 18.7655 18.6133 18.7655 18.0675V12.9852C18.7655 12.4394 19.2079 11.9969 19.7537 11.9969ZM15.095 12.9852C15.095 12.4394 14.6526 11.9969 14.1068 11.9969C13.561 11.9969 13.1186 12.4394 13.1186 12.9852V18.0675C13.1186 18.6133 13.561 19.0557 14.1068 19.0557C14.6526 19.0557 15.095 18.6133 15.095 18.0675V12.9852Z" fill="#333"/>
</svg>
