<svg width="56" height="56" viewBox="0 0 56 56" fill="none" xmlns="http://www.w3.org/2000/svg">
<path d="M51.0022 0.820312H40.0553C37.8991 0.820312 36.1511 2.56823 36.1511 4.72456V9.41489C36.1511 11.2623 37.4343 12.81 39.1579 13.2155C39.6856 13.3396 40.0522 13.8203 40.0522 14.3625V17.7924C40.0522 18.1367 40.4927 18.2798 40.6952 18.0015L43.7461 13.8065C43.9687 13.5004 44.3244 13.3191 44.7031 13.3191H51.0021C53.1583 13.3191 54.9064 11.5712 54.9064 9.41489V4.72445C54.9064 2.56823 53.1584 0.820312 51.0022 0.820312Z" fill="#D5B0EC"/>
<path d="M39.5842 13.4165C39.8725 13.6346 40.0522 13.9833 40.0522 14.3624V17.7923C40.0522 18.1366 40.4927 18.2798 40.6951 18.0014L43.746 13.8065C43.9687 13.5003 44.3244 13.3191 44.7031 13.3191H39.655L39.5842 13.4165Z" fill="#C995E4"/>
<path d="M51.0022 0.820312H48.2514C49.4717 0.820312 50.4609 1.8095 50.4609 3.0298V11.1097C50.4609 12.33 49.4717 13.3191 48.2514 13.3191H51.0022C53.1584 13.3191 54.9065 11.5712 54.9065 9.41489V4.72445C54.9064 2.56823 53.1584 0.820312 51.0022 0.820312Z" fill="#C995E4"/>
<path d="M34.0456 36.1127C31.8359 35.1015 27.6586 34.4497 25.6023 34.1755C24.9128 34.0836 24.3966 33.4808 24.3966 32.7663V26.2668H14.7337V32.7663C14.7337 33.4809 14.2175 34.0837 13.528 34.1755C11.4717 34.4497 7.29442 35.1016 5.08472 36.1127C2.65747 37.2234 1.09363 39.6982 1.09363 42.4288V53.4946C1.09363 54.4252 1.82775 55.1797 2.73327 55.1797H36.397C37.3027 55.1797 38.0367 54.4252 38.0367 53.4946V42.4288C38.0367 39.6981 36.4728 37.2234 34.0456 36.1127Z" fill="#FFECE3"/>
<path d="M34.0456 36.1127C31.8359 35.1015 27.6587 34.4497 25.6023 34.1755C24.9128 34.0836 24.3967 33.4809 24.3967 32.7663V26.2668H19.9511V35.3364C19.9511 36.051 20.4673 36.6536 21.1568 36.7456C23.2131 37.0198 27.3904 37.6717 29.6001 38.6828C32.0273 39.7935 33.5912 42.2683 33.5912 44.9988V55.1796H36.397C37.3026 55.1796 38.0367 54.4251 38.0367 53.4944V42.4288C38.0367 39.6981 36.4729 37.2234 34.0456 36.1127Z" fill="#FFDDCE"/>
<path d="M34.0456 36.1127C31.8359 35.1016 27.6586 34.4498 25.6022 34.1756C25.6014 34.1755 25.6006 34.1753 25.5998 34.1752C25.5995 34.175 25.5993 34.175 25.599 34.175L25.5984 34.1756L19.5651 39.9986L19.5633 40.0053L19.5613 39.9986L13.5279 34.1756C11.4715 34.4498 7.2943 35.1017 5.0846 36.1127C2.65735 37.2234 1.09351 39.6983 1.09351 42.4288V53.4946C1.09351 54.4253 1.82763 55.1797 2.73315 55.1797H36.3969C37.3025 55.1797 38.0367 54.4253 38.0367 53.4946V42.4288C38.0367 39.6982 36.4728 37.2234 34.0456 36.1127Z" fill="#F87F27"/>
<path d="M8.14722 17.4599L8.14919 20.4636H30.984L30.983 17.4581C30.982 11.1523 25.8699 6.04102 19.5641 6.04102H19.5633C13.2572 6.04102 8.14569 11.1539 8.14722 17.4599Z" fill="#FBBE66"/>
<path d="M23.1541 16.2913H30.9842V22.5997H23.1541V16.2913Z" fill="#8DB9C2"/>
<path d="M8.14722 16.2913H15.2777V22.5997H8.14722V16.2913Z" fill="#8DB9C2"/>
<path d="M25.0935 11.477C24.1727 10.6483 22.7703 10.7192 21.8934 11.5942C20.7521 12.7332 19.177 13.4376 17.437 13.4376H13.9248C12.9273 13.4376 11.2865 14.4167 11.2865 16.2914L11.2988 23.3347C11.2988 28.4584 17.0684 30.9445 19.5614 30.991C22.0544 30.9446 27.824 28.4584 27.824 23.3347L27.8363 16.2914C27.841 13.8418 26.7813 12.9957 25.0935 11.477Z" fill="#FFECE3"/>
<path d="M25.0935 11.4768C24.6051 11.0373 23.9813 10.8533 23.3723 10.9056L23.3625 23.3346C23.3625 27.2312 20.0256 29.602 17.3306 30.5346C18.1792 30.8283 18.9643 30.9798 19.5613 30.9908C22.0543 30.9444 27.8239 28.4582 27.8239 23.3346L27.8362 16.2913C27.841 13.8416 26.7812 12.9956 25.0935 11.4768Z" fill="#FFDDCE"/>
<path d="M8.14789 22.5998L8.14724 17.4598C8.14691 14.3012 9.42058 11.3381 11.7253 9.15761C13.765 7.2279 16.4631 6.11589 19.27 6.04468C25.6997 5.88172 30.9824 11.0646 30.9828 17.4581L30.9832 22.5997C32.4999 22.5997 33.7294 21.3701 33.7293 19.8534L33.7291 17.401C33.7288 9.59139 27.3748 3.23779 19.565 3.23779C15.7815 3.23779 12.2245 4.71129 9.5491 7.38683C6.87378 10.0625 5.40061 13.6197 5.40094 17.4033L5.40127 19.8535C5.40149 21.3702 6.63119 22.5998 8.14789 22.5998Z" fill="#A8D0D5"/>
<path d="M17.1104 27.9805H13.9026C13.0725 27.9805 12.3996 27.3076 12.3996 26.4775C12.3996 25.6475 13.0725 24.9746 13.9026 24.9746H17.1104C17.9405 24.9746 18.6133 25.6475 18.6133 26.4775C18.6132 27.3076 17.9404 27.9805 17.1104 27.9805Z" fill="#7BA0B0"/>
<path d="M15.0817 40.6603L19.5614 39.9995L13.528 34.1765C12.6713 34.2908 11.4461 34.4708 10.1487 34.7149L12.7741 39.5118C13.2272 40.3397 14.148 40.798 15.0817 40.6603Z" fill="#F87F27"/>
<path d="M28.9783 34.7133C27.6822 34.4696 26.4584 34.2898 25.6023 34.1756C25.6012 34.1755 25.6001 34.1752 25.599 34.175L25.5984 34.1756L19.5651 39.9986L24.0448 40.6593C24.9785 40.7971 25.8992 40.3389 26.3524 39.5109L28.9783 34.7133Z" fill="#F87F27"/>
<path d="M29.1598 48.3865H24.4337C24.1498 48.3865 23.9196 48.1564 23.9196 47.8724V45.9457C23.9196 45.6618 24.1498 45.4316 24.4337 45.4316H29.1598C29.4437 45.4316 29.6739 45.6618 29.6739 45.9457V47.8724C29.6739 48.1564 29.4437 48.3865 29.1598 48.3865Z" fill="white"/>
<path d="M50.5711 4.41699H40.7914C40.3384 4.41699 39.9711 4.78427 39.9711 5.2373C39.9711 5.69034 40.3384 6.05762 40.7914 6.05762H50.5711C51.0241 6.05762 51.3914 5.69034 51.3914 5.2373C51.3914 4.78427 51.0241 4.41699 50.5711 4.41699Z" fill="#333333"/>
<path d="M50.5711 8.06909H40.7914C40.3384 8.06909 39.9711 8.43637 39.9711 8.8894C39.9711 9.34244 40.3384 9.70972 40.7914 9.70972H50.5711C51.0241 9.70972 51.3914 9.34244 51.3914 8.8894C51.3914 8.43637 51.0241 8.06909 50.5711 8.06909Z" fill="#333333"/>
<path d="M51.0022 0.000109375H45.3641C44.9111 0.000109375 44.5438 0.367391 44.5438 0.820422C44.5438 1.27345 44.9111 1.64073 45.3641 1.64073H51.0022C52.7026 1.64073 54.0861 3.02422 54.0861 4.72467V9.415C54.0861 11.1155 52.7026 12.499 51.0022 12.499H44.7032C44.0643 12.499 43.4586 12.8075 43.0828 13.3242L40.8725 16.3632V14.3626C40.8725 13.4285 40.2447 12.6284 39.3457 12.4171C37.9477 12.0882 36.9713 10.8538 36.9713 9.415V4.72456C36.9713 3.02411 38.3548 1.64063 40.0553 1.64063H41.5294C41.9825 1.64063 42.3497 1.27334 42.3497 0.820313C42.3497 0.367281 41.9825 0 41.5294 0H40.0553C37.4502 0 35.3308 2.11936 35.3308 4.72445V9.41478C35.3308 11.6186 36.8274 13.5098 38.9702 14.0138C39.1219 14.0494 39.232 14.196 39.232 14.3624V17.7923C39.232 18.9283 40.6904 19.4026 41.3586 18.4837L44.4095 14.2888C44.4776 14.1951 44.5873 14.1392 44.7032 14.1392H51.0022C53.6073 14.1392 55.7266 12.0198 55.7266 9.41467V4.72456C55.7266 2.11947 53.6073 0.000109375 51.0022 0.000109375Z" fill="#333333"/>
<path d="M29.1598 44.6116H24.4337C23.698 44.6116 23.0995 45.2101 23.0995 45.9458V47.8727C23.0995 48.6085 23.6981 49.207 24.4337 49.207H29.1598C29.8956 49.207 30.4941 48.6085 30.4941 47.8727V45.9458C30.4941 45.2101 29.8955 44.6116 29.1598 44.6116ZM28.8536 47.5663H24.74V46.2521H28.8536V47.5663Z" fill="#333333"/>
<path d="M34.3868 35.3669C32.116 34.3279 27.9866 33.6664 25.7204 33.3638C25.7186 33.3636 25.7167 33.3632 25.7149 33.363C25.7139 33.3629 25.7129 33.3629 25.712 33.3628C25.7115 33.3626 25.7111 33.3626 25.7106 33.3625C25.4291 33.325 25.2168 33.0688 25.2168 32.7664V29.6514C26.7918 28.4832 28.6095 26.4746 28.6425 23.4201H30.9832C32.9543 23.4201 34.5496 21.8249 34.5495 19.8535L34.5492 17.4011C34.549 9.13926 27.827 2.41772 19.565 2.41772C11.283 2.41772 4.57994 9.12066 4.58071 17.4035L4.58104 19.8537C4.58125 21.5377 5.75507 22.9511 7.327 23.3229V24.893C7.327 26.1884 8.38094 27.2425 9.67649 27.2425H11.6144C12.272 28.2763 13.1237 29.0725 13.9135 29.6572V32.7667C13.9135 33.069 13.7012 33.3252 13.4197 33.3628C11.1556 33.6647 7.01758 34.3266 4.74357 35.3672C2.02811 36.6097 0.273412 39.3817 0.273412 42.4292V45.0624C0.273412 45.5154 0.640693 45.8827 1.09372 45.8827C1.54676 45.8827 1.91404 45.5154 1.91404 45.0624V42.4292C1.91404 40.0216 3.2926 37.8352 5.42618 36.8589C6.51271 36.3617 8.14305 35.9505 9.7175 35.6346L12.0547 39.9049C12.5977 40.8969 13.6468 41.5036 14.7572 41.5036C15.1485 41.5036 15.0785 41.4785 18.7451 40.9485V54.3597H7.57988V50.6542C7.57988 50.2011 7.2126 49.8339 6.75957 49.8339C6.30654 49.8339 5.93925 50.2011 5.93925 50.6542V54.3597H2.73326C2.28143 54.3597 1.91382 53.9717 1.91382 53.4949V48.9175C1.91382 48.4645 1.54654 48.0972 1.09351 48.0972C0.640474 48.0972 0.273193 48.4645 0.273193 48.9175V53.4949C0.273303 54.8762 1.37679 56.0001 2.73326 56.0001H36.397C37.7535 56.0001 38.857 54.8762 38.857 53.4948V42.429C38.857 39.3815 37.1023 36.6094 34.3868 35.3669ZM25.8822 35.0418C26.3832 35.1117 27.0142 35.2054 27.7099 35.3222L25.6329 39.1173C25.3459 39.6415 24.7561 39.9355 24.1645 39.848L21.335 39.4308L25.8822 35.0418ZM28.617 15.4712C28.3942 13.2765 27.2471 12.3085 25.6422 10.8673C24.4092 9.75788 22.5081 9.82219 21.314 11.0137C20.2777 12.0479 18.9007 12.6175 17.437 12.6175H13.9247C12.6843 12.6175 10.9581 13.6252 10.5537 15.4713H9.15214C10.0542 10.6716 14.2316 6.99321 19.2909 6.86491C24.6671 6.72852 29.0525 10.5815 29.9767 15.4713H28.617V15.4712ZM8.97364 17.1117H10.4676L10.4757 21.7796H8.96807C8.96993 17.2541 8.96205 17.4772 8.97364 17.1117ZM30.163 21.7796H28.6469L28.655 17.1117H30.1563C30.168 17.4764 30.1601 17.2512 30.163 21.7796ZM6.22155 19.8535L6.22122 17.4034C6.22046 10.0283 12.1888 4.05824 19.565 4.05824C26.9225 4.05824 32.9085 10.0439 32.9089 17.4013L32.9092 19.8537C32.9093 20.6265 32.455 21.2904 31.8035 21.5974L31.8032 17.4582C31.8028 10.5875 26.1367 5.04885 19.2493 5.22483C12.7401 5.38977 7.32635 10.6922 7.327 17.4601L7.32755 21.5961C6.67447 21.2874 6.22166 20.6224 6.22155 19.8535ZM9.67638 25.6018C9.28547 25.6018 8.96741 25.2838 8.96741 24.8929V23.4201H10.48C10.4887 24.2177 10.6198 24.9433 10.8358 25.6018H9.67638ZM12.3085 24.7921C12.1864 24.3363 12.1189 23.8502 12.1189 23.3333L12.1067 16.2914C12.1067 14.9563 13.2902 14.2578 13.9247 14.2578H17.437C19.3383 14.2578 21.1267 13.518 22.4728 12.1747C23.0498 11.5989 23.9601 11.5604 24.5448 12.0865C26.1729 13.5474 27.02 14.2096 27.016 16.2899L27.0038 23.3346C27.0038 25.6867 25.6138 27.4011 23.976 28.525C23.9474 28.5421 23.92 28.5608 23.8938 28.5811C22.3299 29.6304 20.5591 30.147 19.5614 30.1704C18.636 30.1487 17.0458 29.7025 15.5722 28.8007H17.1104C18.3914 28.8007 19.4335 27.7586 19.4335 26.4776C19.4335 25.1966 18.3914 24.1545 17.1104 24.1545H13.9025C13.2853 24.1546 12.725 24.3982 12.3085 24.7921ZM13.9025 27.1603C13.5223 27.1603 13.2199 26.8473 13.2199 26.4777C13.2199 26.1012 13.5262 25.7951 13.9025 25.7951H17.1104C17.4868 25.7951 17.793 26.1013 17.793 26.4777C17.793 26.8541 17.4867 27.1603 17.1104 27.1603H13.9025ZM14.9619 39.8479C14.3703 39.9355 13.7805 39.6414 13.4936 39.1172L11.4169 35.3228C12.1125 35.2061 12.7435 35.1122 13.2446 35.0422L17.7915 39.4307L14.9619 39.8479ZM14.8975 34.3575C15.3036 33.9483 15.5539 33.383 15.5539 32.7666V30.6678C17.0485 31.4271 18.5396 31.7925 19.546 31.8112C19.5511 31.8113 19.5562 31.8113 19.5614 31.8113C19.5664 31.8113 19.5715 31.8113 19.5767 31.8112C20.5848 31.7925 22.0793 31.4261 23.5765 30.664V32.7666C23.5765 33.382 23.826 33.9466 24.231 34.3557L19.5633 38.8607L14.8975 34.3575ZM37.2165 53.4948C37.2165 53.9716 36.8488 54.3596 36.397 54.3596H33.1909V50.6541C33.1909 50.201 32.8236 49.8338 32.3706 49.8338C31.9176 49.8338 31.5503 50.201 31.5503 50.6541V54.3596H20.3853V40.9489C24.0467 41.4782 23.978 41.5035 24.3694 41.5035C25.4796 41.5035 26.5289 40.8967 27.0718 39.9048L29.4094 35.6337C30.9849 35.9496 32.6168 36.3612 33.7041 36.8587C35.8377 37.835 37.2162 40.0214 37.2162 42.429V53.4948H37.2165Z" fill="#333333"/>
</svg>
