<svg width="16" height="12" viewBox="0 0 16 12" fill="none" xmlns="http://www.w3.org/2000/svg">
<path fill-rule="evenodd" clip-rule="evenodd" d="M1.36403 0H13.9093C14.2786 0 14.5983 0.133541 14.8683 0.400483C15.1379 0.667759 15.2731 0.988661 15.2731 1.36369C15.2731 1.81256 15.1337 2.24155 14.8557 2.65052C14.5772 3.05948 14.2307 3.40906 13.816 3.69874C12.437 4.65584 11.3964 5.37842 10.6898 5.86935C10.3015 6.13899 10.0127 6.33977 9.82736 6.46873C9.79988 6.48806 9.75696 6.51859 9.69992 6.55952C9.6385 6.60347 9.56078 6.65948 9.46509 6.72872C9.28042 6.86229 9.12702 6.9702 9.00485 7.05267C8.88246 7.13497 8.73483 7.2273 8.56158 7.32962C8.38817 7.43197 8.22488 7.50864 8.07151 7.55974C7.91806 7.61082 7.77601 7.63644 7.64538 7.63644H7.63689H7.62841C7.49775 7.63644 7.35572 7.61082 7.2023 7.55974C7.04891 7.50864 6.88548 7.4318 6.7122 7.32962C6.53879 7.2273 6.39097 7.13516 6.26896 7.05267C6.14679 6.9702 5.99339 6.86226 5.80875 6.72872C5.71286 6.65948 5.63514 6.6035 5.57372 6.55938L5.56732 6.5548C5.51349 6.51631 5.47273 6.48717 5.44645 6.46873C5.20854 6.30142 4.92038 6.09981 4.58625 5.867C4.19425 5.59359 3.73809 5.27677 3.21355 4.91327C2.24186 4.24008 1.65945 3.83519 1.46632 3.69874C1.11403 3.46013 0.781593 3.1321 0.469175 2.71449C0.156758 2.2967 0.000479713 1.90892 0.000479713 1.55102C0.000479713 1.10795 0.118243 0.738494 0.354157 0.443074C0.589878 0.147793 0.926363 0 1.36403 0ZM0 3.86918C0.249973 4.14766 0.537102 4.39489 0.860888 4.61076C2.06777 5.43091 3.05083 6.10616 3.81381 6.63882L0 10.4526V3.86918ZM14.8026 11.6629C14.5498 11.8867 14.2523 12 13.909 12H1.36367C1.0204 12 0.72273 11.8867 0.469873 11.6629L4.79772 7.33453C4.90597 7.41225 5.0061 7.48487 5.09638 7.55106C5.42036 7.78966 5.68303 7.9758 5.88481 8.10921C6.0864 8.24291 6.35487 8.3792 6.69019 8.51834C7.02551 8.65768 7.33793 8.72708 7.62777 8.72708H7.63626H7.64474C7.93456 8.72708 8.24698 8.65765 8.58233 8.51834C8.91746 8.3792 9.18592 8.24291 9.3877 8.10921C9.58951 7.9758 9.85232 7.78964 10.1761 7.55106C10.2712 7.48232 10.3718 7.41003 10.4756 7.33569L14.8026 11.6629ZM14.4205 4.61076C13.2597 5.39647 12.273 6.07288 11.4605 6.64035L15.2728 10.4528V3.86918C15.0284 4.14206 14.7443 4.38912 14.4205 4.61076Z" fill="#F87F27"/>
</svg>
