<svg width="22" height="22" viewBox="0 0 22 22" fill="none" xmlns="http://www.w3.org/2000/svg">
<circle cx="11" cy="11" r="11" fill="#F87F27"/>
<path d="M15.2618 14.7613C15.509 15.1195 15.4158 15.6196 15.054 15.8766L14.5542 16.2227L14.5463 16.2127C14.3414 16.3227 14.1127 16.4042 13.8748 16.4513C13.6534 16.4947 13.4404 16.5086 13.2228 16.495C13.1232 16.4875 10.8177 16.2838 8.48085 12.9092C6.79035 10.4677 6.29517 8.80716 6.77284 7.17857C6.83084 6.97519 6.91623 6.77731 7.03398 6.57516C7.16046 6.36331 7.31447 6.17365 7.48707 6.01641L7.47747 6.00265L7.97276 5.6496C8.33527 5.39271 8.832 5.47503 9.07946 5.83235L10.3246 7.6311C10.572 7.98884 10.4793 8.48888 10.1168 8.74576L9.82483 8.95287L9.23123 9.37272C9.24984 9.42459 9.26836 9.47901 9.28775 9.53549C9.47179 10.0688 9.72333 10.7992 10.2956 11.6256C10.8661 12.4502 11.4578 12.9384 11.8902 13.2948C11.9372 13.334 11.982 13.371 12.0253 13.4065L12.9099 12.7799C13.2719 12.5234 13.7684 12.6057 14.0166 12.9627L15.2618 14.7613Z" fill="white"/>
<path d="M15.2618 14.7613C15.509 15.1195 15.4158 15.6196 15.054 15.8766L14.5597 16.2189C14.5566 16.221 14.5523 16.2204 14.55 16.2174C14.5479 16.2147 14.5441 16.2139 14.541 16.2155C14.3374 16.3241 14.1107 16.4046 13.8748 16.4513C13.6534 16.4947 13.4404 16.5086 13.2228 16.495C13.1232 16.4875 10.8177 16.2838 8.48085 12.9092C6.79035 10.4677 6.29517 8.80716 6.77284 7.17857C6.83084 6.97519 6.91623 6.77731 7.03398 6.57516C7.15903 6.3657 7.311 6.17793 7.48124 6.02175C7.48458 6.01868 7.48515 6.01366 7.48256 6.00994C7.47973 6.00589 7.4807 6.00034 7.48474 5.99746L7.97276 5.6496C8.33527 5.39271 8.832 5.47503 9.07946 5.83235L10.3246 7.6311C10.572 7.98884 10.4793 8.48888 10.1168 8.74576L9.82483 8.95287L9.37296 9.27247C9.28901 9.33185 9.25461 9.43895 9.28775 9.53549C9.47179 10.0688 9.72333 10.7992 10.2956 11.6256C10.8661 12.4502 11.4578 12.9384 11.8902 13.2948C11.9695 13.3609 12.0841 13.3648 12.1684 13.3051L12.9099 12.7799C13.2719 12.5234 13.7684 12.6057 14.0166 12.9627L15.2618 14.7613Z" fill="white"/>
</svg>
