<svg width="12" height="14" viewBox="0 0 12 14" fill="none" xmlns="http://www.w3.org/2000/svg">
<path d="M10.8761 11.7871C11.1865 12.243 11.0696 12.8795 10.6152 13.2065L9.98757 13.6471L9.97772 13.6343C9.72042 13.7744 9.43326 13.878 9.1345 13.938C8.85652 13.9932 8.58905 14.0109 8.31588 13.9936C8.19073 13.984 5.29582 13.7249 2.36158 9.42988C0.238895 6.32253 -0.382884 4.20911 0.216902 2.13636C0.289729 1.87751 0.396957 1.62566 0.544802 1.36839C0.703619 1.09876 0.897008 0.857367 1.11374 0.657253L1.10168 0.639733L1.7236 0.190394C2.17878 -0.136548 2.8025 -0.031783 3.11323 0.422985L4.67675 2.71231C4.98739 3.16761 4.87093 3.80403 4.41575 4.13097L4.04916 4.39456L3.3038 4.92891C3.32716 4.99493 3.35042 5.06419 3.37476 5.13607C3.60586 5.81481 3.92171 6.74447 4.64031 7.79626C5.35665 8.84569 6.09965 9.46711 6.64259 9.92065C6.70162 9.97051 6.75783 10.0176 6.81218 10.0628L7.92296 9.26539C8.37745 8.93891 9.00089 9.04362 9.31259 9.49798L10.8761 11.7871Z" fill="#F87F27"/>
<path d="M10.8761 11.7871C11.1865 12.243 11.0696 12.8795 10.6152 13.2065L9.99455 13.6422C9.99064 13.6449 9.98528 13.6441 9.98237 13.6403C9.97969 13.6369 9.9749 13.6359 9.97105 13.6379C9.71546 13.7762 9.43068 13.8785 9.1345 13.938C8.85652 13.9932 8.58905 14.0109 8.31588 13.9936C8.19073 13.984 5.29582 13.7249 2.36158 9.42988C0.238895 6.32253 -0.382884 4.20911 0.216902 2.13636C0.289729 1.87751 0.396957 1.62566 0.544802 1.36839C0.701827 1.1018 0.892648 0.862817 1.10641 0.664042C1.11061 0.660135 1.11132 0.653745 1.10807 0.64902C1.10451 0.643857 1.10573 0.636801 1.11081 0.63313L1.7236 0.190394C2.17878 -0.136548 2.8025 -0.031783 3.11323 0.422985L4.67675 2.71231C4.98739 3.16761 4.87093 3.80403 4.41575 4.13097L4.04916 4.39456L3.48177 4.80132C3.37635 4.8769 3.33316 5.01321 3.37476 5.13607C3.60586 5.81481 3.92171 6.74447 4.64031 7.79626C5.35665 8.84569 6.09965 9.46711 6.64259 9.92065C6.74215 10.0047 6.88607 10.0098 6.99194 9.93376L7.92296 9.26539C8.37745 8.93891 9.00089 9.04362 9.31259 9.49798L10.8761 11.7871Z" fill="#F87F27"/>
</svg>
