<svg width="22" height="17" viewBox="0 0 22 17" fill="none" xmlns="http://www.w3.org/2000/svg">
<path d="M0.270694 15.2806C2.12453 14.3927 3.57644 13.3594 4.6264 12.1809C5.67636 11.0024 6.28337 9.5736 6.44743 7.89459H5.06935C4.0522 7.89459 3.22371 7.78158 2.58389 7.55556C1.94407 7.32953 1.42729 7.01472 1.03356 6.61111C0.656227 6.22365 0.385533 5.79582 0.221477 5.32764C0.0738255 4.85945 0 4.37512 0 3.87464C0 2.84141 0.418345 1.93732 1.25503 1.16239C2.10813 0.387464 3.10887 0 4.25727 0C6.06189 0 7.44817 0.589269 8.41611 1.76781C9.38404 2.94634 9.86801 4.57692 9.86801 6.65954C9.86801 8.59687 9.03132 10.5503 7.35794 12.5199C5.70097 14.4896 3.69948 15.9829 1.35347 17L0.270694 15.2806ZM12.4027 15.2806C14.2565 14.3927 15.7084 13.3594 16.7584 12.1809C17.8084 11.0024 18.4154 9.5736 18.5794 7.89459H17.2013C16.1842 7.89459 15.3557 7.78158 14.7159 7.55556C14.0761 7.32953 13.5593 7.01472 13.1655 6.61111C12.7882 6.22365 12.5175 5.79582 12.3535 5.32764C12.2058 4.85945 12.132 4.37512 12.132 3.87464C12.132 2.84141 12.5503 1.93732 13.387 1.16239C14.2401 0.387464 15.2409 0 16.3893 0C18.1939 0 19.5802 0.589269 20.5481 1.76781C21.516 2.94634 22 4.57692 22 6.65954C22 8.59687 21.1633 10.5503 19.4899 12.5199C17.833 14.4896 15.8315 15.9829 13.4855 17L12.4027 15.2806Z" fill="#F87F27"/>
</svg>
