<svg width="65" height="24" viewBox="0 0 65 24" fill="none" xmlns="http://www.w3.org/2000/svg">
<path fill-rule="evenodd" clip-rule="evenodd" d="M2.39811 16.3973V8.82102H0.1633V5.14469H8.66696V8.82102H6.43179V16.3973H2.39811ZM9.85124 11.2458V5.14469H13.8853V11.2794C13.8853 11.9949 13.9635 12.475 14.1308 12.7433C14.2986 13.0224 14.5891 13.1565 15.0023 13.1565C15.4046 13.1565 15.6951 13.0118 15.8629 12.7319C16.0415 12.4637 16.1197 11.9719 16.1197 11.2794V5.14469H20.1538V11.2458C20.1538 12.0391 20.0982 12.6983 19.9974 13.2238C19.8969 13.7375 19.7292 14.1738 19.4946 14.5198C19.0473 15.2243 18.4331 15.7604 17.6617 16.1291C16.8794 16.5087 15.9966 16.6995 15.0023 16.6995C13.9967 16.6995 13.1139 16.5091 12.3316 16.1291C11.5606 15.76 10.946 15.224 10.4991 14.5198C10.2755 14.1738 10.1081 13.7492 10.0073 13.2351C9.90751 12.7206 9.85124 12.0618 9.85124 11.2458ZM26.1994 8.03869V10.2402H26.825C27.205 10.2402 27.4955 10.1507 27.7078 9.96071C27.9087 9.7707 28.0205 9.50286 28.0205 9.15609C28.0205 8.79836 27.9087 8.51919 27.7078 8.32918C27.4955 8.13917 27.205 8.03869 26.825 8.03869H26.1994ZM22.2435 16.3973V5.14469H27.3168C28.7806 5.14469 29.9093 5.46881 30.6803 6.11703C31.4626 6.77622 31.8423 7.71494 31.8423 8.93319C31.8423 9.73781 31.6523 10.397 31.2613 10.9111C30.8703 11.4252 30.3452 11.7267 29.6857 11.8162L32.6696 16.398H28.155L26.1994 12.6877V16.3973H22.2435ZM32.4569 15.4359L33.7424 12.285C34.3234 12.6877 34.8265 12.9888 35.2848 13.1678C35.7317 13.3579 36.1562 13.4583 36.5472 13.4583C36.8264 13.4583 37.0497 13.4028 37.2068 13.2906C37.3632 13.1901 37.441 13.0451 37.441 12.866C37.441 12.5536 37.05 12.3187 36.2571 12.1509C36.0002 12.0954 35.7989 12.0504 35.6535 12.0282C34.8156 11.8155 34.1783 11.4581 33.7314 10.9327C33.2845 10.4076 33.0613 9.75937 33.0613 8.97704C33.0613 7.77012 33.4965 6.78681 34.3574 6.02714C35.2289 5.2671 36.358 4.88745 37.7545 4.88745C38.4024 4.88745 39.0283 4.97697 39.6543 5.14433C40.2795 5.31168 40.9054 5.56893 41.5427 5.91533L40.3131 8.8539C39.9221 8.57437 39.5424 8.35111 39.1398 8.19471C38.7601 8.04965 38.3805 7.97109 38.0114 7.97109C37.7322 7.97109 37.5082 8.01603 37.3519 8.11652C37.2072 8.20568 37.1286 8.33978 37.1286 8.5075C37.1286 8.83161 37.6873 9.11078 38.8051 9.34537C38.9834 9.38995 39.1175 9.42356 39.2183 9.44585C39.989 9.61357 40.593 9.9713 41.0395 10.5073C41.486 11.0434 41.7104 11.7029 41.7104 12.4626C41.7104 13.7032 41.2628 14.7201 40.358 15.5137C39.4639 16.2961 38.3019 16.6984 36.8604 16.6984C36.1347 16.6984 35.3966 16.5862 34.6596 16.3852C33.8885 16.1623 33.1485 15.8434 32.4569 15.4359ZM46.9166 12.3073H48.5931L48.2464 11.0335C48.0786 10.3857 47.9672 9.89384 47.9003 9.53611C47.8448 9.18971 47.7998 8.86559 47.7881 8.56377H47.7209C47.6979 8.88935 47.6607 9.21377 47.6095 9.53611C47.5422 9.89384 47.4304 10.3853 47.2627 11.0335L46.9166 12.3073ZM41.5642 16.3973L45.5643 5.14469H50.0569L53.9784 16.3973H49.6429L49.2746 14.9777H46.2352L45.8997 16.3973H41.5642ZM58.3812 11.8159V13.6147H59.0521C59.454 13.6147 59.7671 13.5369 59.9791 13.3798C60.2023 13.2234 60.3032 13.0001 60.3032 12.7096C60.3032 12.4191 60.2027 12.1959 59.9791 12.0501C59.7671 11.8937 59.4536 11.8155 59.0521 11.8155H58.3812V11.8159ZM58.3812 7.82639V9.39068H58.9066C59.2307 9.39068 59.477 9.32381 59.6553 9.18971C59.8231 9.0556 59.9122 8.86559 59.9122 8.60872C59.9122 8.35147 59.8231 8.1505 59.6553 8.0164C59.477 7.88229 59.2307 7.82639 58.9066 7.82639H58.3812ZM54.593 16.3973V5.14469H59.9572C61.1082 5.14469 62.0133 5.4129 62.6505 5.96027C63.2984 6.49669 63.6112 7.2454 63.6112 8.21737C63.6112 8.82065 63.4658 9.33477 63.1643 9.74841C62.8512 10.1507 62.4262 10.4189 61.8675 10.5417C62.6275 10.6981 63.1979 10.9999 63.5659 11.4355C63.9463 11.8824 64.1246 12.4747 64.1246 13.2121C64.1246 14.2626 63.7785 15.0563 63.0635 15.5923C62.359 16.1291 61.3201 16.3973 59.9455 16.3973H54.593Z" fill="#CC2229"/>
<path fill-rule="evenodd" clip-rule="evenodd" d="M14.0643 6.26228C14.0643 6.01637 14.1535 5.80407 14.3322 5.62538C14.5109 5.4467 14.7345 5.35718 14.9917 5.35718C15.2596 5.35718 15.4832 5.4467 15.6619 5.62538C15.8409 5.80407 15.9301 6.01637 15.9301 6.26228C15.9301 6.51953 15.8409 6.73146 15.6619 6.89918C15.4832 7.07786 15.2596 7.16739 14.9917 7.16739C14.8694 7.1697 14.7478 7.14711 14.6344 7.10101C14.521 7.0549 14.4182 6.98624 14.3322 6.89918C14.1535 6.73146 14.0643 6.51916 14.0643 6.26228ZM14.0643 8.41889C14.0643 8.17298 14.1535 7.96068 14.3322 7.78163C14.5109 7.60258 14.7345 7.51379 14.9917 7.51379C15.2596 7.51379 15.4832 7.60295 15.6619 7.78163C15.8409 7.96031 15.9301 8.17261 15.9301 8.41889C15.9301 8.66444 15.8409 8.87674 15.6619 9.05579C15.4832 9.23447 15.2596 9.32399 14.9917 9.32399C14.7345 9.32399 14.5112 9.23447 14.3322 9.05579C14.1531 8.87711 14.0643 8.66481 14.0643 8.41889Z" fill="#0094D6"/>
<path fill-rule="evenodd" clip-rule="evenodd" d="M10.6785 0.0828584L10.8572 0.0605685L10.9913 0.0828584L11.1926 0.127803L11.3154 0.0828584L11.4718 0.015625L11.5836 0.26154L11.6505 0.417932L11.7846 0.485166L11.9187 0.574325L11.9856 0.697465L11.7846 0.764333L11.6728 0.719756L11.539 0.641559L11.3823 0.652885L11.2705 0.764699L11.1477 0.854223L11.0136 0.966036L10.9018 1.10014L10.8349 1.23424L10.6785 1.39063L10.5444 1.54703L10.5221 1.39063L10.6116 1.27882C10.7234 1.13376 10.8576 0.898803 10.8576 0.898803L10.5225 0.988325L10.3438 0.69783L10.5225 0.652885L10.6343 0.552402L10.5448 0.418298C10.544 0.417932 10.6226 0.0938204 10.6785 0.0828584Z" fill="#CC2229"/>
<path fill-rule="evenodd" clip-rule="evenodd" d="M11.941 0.831207L12.0528 0.697105H12.2202L12.3992 0.719393L12.6002 0.741685L12.8011 0.831207L13.0248 0.920732L13.2148 0.853498L13.4826 0.697105L13.684 0.573964L13.8853 0.462151C14.0304 0.394917 14.0976 0.394914 14.0976 0.394914L14.2094 0.305757L14.3881 0.350337L14.5668 0.394914L14.7455 0.43986L14.9019 0.372626L15.025 0.238524L15.1591 0.126709L15.2705 0.215867V0.349972L15.3378 0.461786L15.4715 0.484439L15.6502 0.529019L15.762 0.640833L15.8292 0.741319L15.9074 0.875421H16.1307L16.3317 0.897713L16.5327 1.00953L16.7113 1.09868L16.9013 1.0541L17.1023 0.94229L17.281 0.897713L17.4597 0.964581L17.6387 1.0541L17.851 1.03145L18.0074 0.897345L18.1638 0.740954L18.2979 0.640468L18.3651 0.528654L18.5884 0.573234L18.7112 0.651429L18.8453 0.595522L19.1135 0.572869L19.2699 0.718298L19.3371 0.941559L19.4712 1.05337L19.5607 1.16519L19.5385 1.32158L19.628 1.45568L19.7953 1.54521L19.9517 1.58979L20.1527 1.69027L20.2199 1.80209V1.98077L19.974 2.07029L19.8849 2.2044L19.9072 2.31621L20.019 2.40573V2.57309L19.974 2.79672L20.019 2.99805L20.1308 3.17674L20.2649 3.2436V3.42229L20.1754 3.52277H20.0424L19.9082 3.44458L19.7292 3.42229L19.5392 3.47819L19.3828 3.42229L19.271 3.4559L19.0696 3.6123L18.891 3.54506L18.7346 3.6123L18.4554 3.65688C18.4554 3.65688 18.4331 3.72411 18.2767 3.65688C18.1203 3.58964 18.1426 3.6123 18.1426 3.6123L17.9416 3.67917L17.7071 3.83556L17.4611 3.96966L17.2379 3.94737H16.97L16.8359 3.83556L16.7128 3.76869L16.5118 3.8805L16.3554 3.99232L16.1322 3.94774L15.9981 3.8805L15.8753 4.0369L15.7635 4.14871L15.8307 4.26052L15.7635 4.3833L15.5402 4.53969L15.4284 4.47246L15.473 4.26016L15.5179 4.05919L15.473 3.92508L15.3392 3.94737L15.071 3.96966L14.8142 3.79098L14.5905 3.99195L14.4118 4.17063L14.2109 4.21558L14.0318 4.26016L13.8195 4.34968L13.6182 4.23787L13.2831 3.92508L13.0931 3.76869L12.8253 3.63459L12.6912 3.65688L12.6016 3.81327L12.5121 3.96966L12.3557 4.08148L12.1548 4.10413L12.0097 3.99232L11.8529 3.81363L11.6742 3.65724L11.4956 3.59001L11.3823 3.68063L11.17 3.65834L10.9909 3.52423L10.8791 3.33423L10.9909 3.15554L10.9014 2.99915L10.7673 2.88734L10.6778 2.66371L10.4542 2.57418L10.3869 2.42912L10.3646 2.25044C10.3959 2.24335 10.4283 2.24372 10.4594 2.25153C10.4904 2.25934 10.5192 2.27436 10.5433 2.29538V2.45177L10.6774 2.33996L10.7669 2.20586L10.7443 1.98259L10.8115 1.75933L10.6774 1.80391H10.4987L10.521 1.64752L10.7443 1.50209L10.8784 1.32341L10.923 1.18967L11.0348 1.12244L11.2135 1.18967L11.3808 1.21196C11.4035 1.10014 11.4704 1.05557 11.4704 1.05557L11.5822 1.12244L11.5376 1.27883L11.6713 1.30112L11.85 1.25654C11.9395 1.14472 12.0068 1.12244 12.0068 1.12244L12.5096 1.14472L12.074 1.01099C12.0751 1.01026 11.9187 0.742048 11.941 0.831207Z" fill="#CC2229"/>
<path fill-rule="evenodd" clip-rule="evenodd" d="M9.49388 0.842529H0.107399V3.69194H9.49388V0.842529ZM20.8915 3.80376V0.954343V3.80376ZM20.8915 3.80376V0.954343H21.227V3.80376H20.8915ZM21.227 3.80376V0.954343H21.5621V3.80376H21.227Z" fill="#0094D6"/>
<path fill-rule="evenodd" clip-rule="evenodd" d="M21.5621 3.80376V0.954346H21.8862V3.80376H21.5621ZM21.8862 3.80376V0.954346H22.2212V3.80376H21.8862Z" fill="#0094D6"/>
<path fill-rule="evenodd" clip-rule="evenodd" d="M22.2213 3.80376V0.954346H22.5567V3.80376H22.2213Z" fill="#0096D8"/>
<path fill-rule="evenodd" clip-rule="evenodd" d="M22.5567 3.80376V0.954346H22.8918V3.80376H22.5567Z" fill="#0D96D8"/>
<path fill-rule="evenodd" clip-rule="evenodd" d="M22.8917 3.80376V0.954346H23.2272V3.80376H22.8917Z" fill="#1897D8"/>
<path fill-rule="evenodd" clip-rule="evenodd" d="M23.2272 3.80376V0.954346H23.5623V3.80376H23.2272Z" fill="#1897D8"/>
<path fill-rule="evenodd" clip-rule="evenodd" d="M23.5623 3.80376V0.954346H23.8864V3.80376H23.5623Z" fill="#1F97D8"/>
<path fill-rule="evenodd" clip-rule="evenodd" d="M23.8864 3.80376V0.954346H24.2218V3.80376H23.8864Z" fill="#2399D9"/>
<path fill-rule="evenodd" clip-rule="evenodd" d="M24.2218 3.80376V0.954346H24.5569V3.80376H24.2218Z" fill="#2899D9"/>
<path fill-rule="evenodd" clip-rule="evenodd" d="M24.5569 3.80376V0.954346H24.8923V3.80376H24.5569Z" fill="#2C9AD9"/>
<path fill-rule="evenodd" clip-rule="evenodd" d="M24.8923 3.80376V0.954346H25.2274V3.80376H24.8923Z" fill="#2C9AD9"/>
<path fill-rule="evenodd" clip-rule="evenodd" d="M25.2274 3.80376V0.954346H25.5511V3.80376H25.2274Z" fill="#309AD9"/>
<path fill-rule="evenodd" clip-rule="evenodd" d="M25.5512 3.80376V0.954346H25.8866V3.80376H25.5512Z" fill="#349BD9"/>
<path fill-rule="evenodd" clip-rule="evenodd" d="M25.8866 3.80376V0.954346H26.2217V3.80376H25.8866Z" fill="#379BD9"/>
<path fill-rule="evenodd" clip-rule="evenodd" d="M26.2217 3.80376V0.954346H26.5571V3.80376H26.2217Z" fill="#3A9BD9"/>
<path fill-rule="evenodd" clip-rule="evenodd" d="M26.5571 3.80376V0.954346H26.8922V3.80376H26.5571Z" fill="#3A9DDA"/>
<path fill-rule="evenodd" clip-rule="evenodd" d="M26.8922 3.80376V0.954346H27.2276V3.80376H26.8922Z" fill="#3D9DDB"/>
<path fill-rule="evenodd" clip-rule="evenodd" d="M27.2276 3.80376V0.954346H27.5514V3.80376H27.2276Z" fill="#409EDB"/>
<path fill-rule="evenodd" clip-rule="evenodd" d="M27.5514 3.80376V0.954346H27.8868V3.80376H27.5514ZM27.8868 3.80376V0.954346H28.2219V3.80376H27.8868Z" fill="#439EDB"/>
<path fill-rule="evenodd" clip-rule="evenodd" d="M28.2219 3.80376V0.954346H28.5573V3.80376H28.2219Z" fill="#45A0DC"/>
<path fill-rule="evenodd" clip-rule="evenodd" d="M28.5573 3.80376V0.954346H28.8924V3.80376H28.5573Z" fill="#48A0DC"/>
<path fill-rule="evenodd" clip-rule="evenodd" d="M28.8924 3.80376V0.954346H29.2165V3.80376H28.8924Z" fill="#4BA1DC"/>
<path fill-rule="evenodd" clip-rule="evenodd" d="M29.2165 3.80376V0.954346H29.5516V3.80376H29.2165ZM29.5516 3.80376V0.954346H29.887V3.80376H29.5516Z" fill="#4DA2DC"/>
<path fill-rule="evenodd" clip-rule="evenodd" d="M29.887 3.80376V0.954346H30.2221V3.80376H29.887Z" fill="#50A2DC"/>
<path fill-rule="evenodd" clip-rule="evenodd" d="M30.2221 3.80376V0.954346H30.5572V3.80376H30.2221Z" fill="#52A3DD"/>
<path fill-rule="evenodd" clip-rule="evenodd" d="M30.5572 3.80376V0.954346H30.8816V3.80376H30.5572Z" fill="#55A4DE"/>
<path fill-rule="evenodd" clip-rule="evenodd" d="M30.8817 3.80376V0.954346H31.2167V3.80376H30.8817ZM31.2167 3.80376V0.954346H31.5522V3.80376H31.2167Z" fill="#57A5DE"/>
<path fill-rule="evenodd" clip-rule="evenodd" d="M31.5522 3.80376V0.954346H31.8872V3.80376H31.5522Z" fill="#59A6DE"/>
<path fill-rule="evenodd" clip-rule="evenodd" d="M31.8872 3.80376V0.954346H32.2223V3.80376H31.8872Z" fill="#5CA6DE"/>
<path fill-rule="evenodd" clip-rule="evenodd" d="M32.2223 3.80376V0.954346H32.5578V3.80376H32.2223ZM32.5578 3.80376V0.954346H32.8815V3.80376H32.5578Z" fill="#5EA7DE"/>
<path fill-rule="evenodd" clip-rule="evenodd" d="M32.8815 3.80376V0.954346H33.2169V3.80376H32.8815Z" fill="#60A7DE"/>
<path fill-rule="evenodd" clip-rule="evenodd" d="M33.217 3.80376V0.954346H33.5524V3.80376H33.217Z" fill="#62A9DF"/>
<path fill-rule="evenodd" clip-rule="evenodd" d="M33.5524 3.80376V0.954346H33.8871V3.80376H33.5524Z" fill="#65AAE0"/>
<path fill-rule="evenodd" clip-rule="evenodd" d="M33.8871 3.80376V0.954346H34.2225V3.80376H33.8871ZM34.2225 3.80376V0.954346H34.5466V3.80376H34.2225Z" fill="#67AAE0"/>
<path fill-rule="evenodd" clip-rule="evenodd" d="M34.5467 3.80376V0.954346H34.8821V3.80376H34.5467Z" fill="#69ABE0"/>
<path fill-rule="evenodd" clip-rule="evenodd" d="M34.8821 3.80376V0.954346H35.2175V3.80376H34.8821Z" fill="#6BADE1"/>
<path fill-rule="evenodd" clip-rule="evenodd" d="M35.2175 3.80376V0.954346H35.5522V3.80376H35.2175Z" fill="#6DAEE1"/>
<path fill-rule="evenodd" clip-rule="evenodd" d="M35.5522 3.80376V0.954346H35.8877V3.80376H35.5522ZM35.8877 3.80376V0.954346H36.2118V3.80376H35.8877Z" fill="#6FAEE1"/>
<path fill-rule="evenodd" clip-rule="evenodd" d="M36.2118 3.80376V0.954346H36.5472V3.80376H36.2118Z" fill="#71AFE2"/>
<path fill-rule="evenodd" clip-rule="evenodd" d="M36.5472 3.80376V0.954346H36.8823V3.80376H36.5472Z" fill="#73AFE2"/>
<path fill-rule="evenodd" clip-rule="evenodd" d="M36.8823 3.80376V0.954346H37.217V3.80376H36.8823Z" fill="#75B0E2"/>
<path fill-rule="evenodd" clip-rule="evenodd" d="M37.217 3.80376V0.954346H37.5525V3.80376H37.217Z" fill="#75B2E3"/>
<path fill-rule="evenodd" clip-rule="evenodd" d="M37.5525 3.80376V0.954346H37.8879V3.80376H37.5525Z" fill="#77B2E3"/>
<path fill-rule="evenodd" clip-rule="evenodd" d="M37.8879 3.80376V0.954346H38.212V3.80376H37.8879Z" fill="#79B3E3"/>
<path fill-rule="evenodd" clip-rule="evenodd" d="M38.212 3.80376V0.954346H38.5467V3.80376H38.212Z" fill="#7BB3E3"/>
<path fill-rule="evenodd" clip-rule="evenodd" d="M38.5467 3.80376V0.954346H38.8822V3.80376H38.5467Z" fill="#7DB4E4"/>
<path fill-rule="evenodd" clip-rule="evenodd" d="M38.8822 3.80376V0.954346H39.2176V3.80376H38.8822Z" fill="#7EB5E5"/>
<path fill-rule="evenodd" clip-rule="evenodd" d="M39.2176 3.80376V0.954346H39.5531V3.80376H39.2176Z" fill="#80B6E5"/>
<path fill-rule="evenodd" clip-rule="evenodd" d="M39.553 3.80376V0.954346H39.8771V3.80376H39.553Z" fill="#82B7E5"/>
<path fill-rule="evenodd" clip-rule="evenodd" d="M39.8772 3.80376V0.954346H40.2119V3.80376H39.8772ZM40.2119 3.80376V0.954346H40.5473V3.80376H40.2119Z" fill="#84B8E5"/>
<path fill-rule="evenodd" clip-rule="evenodd" d="M40.5473 3.80376V0.954346H40.8827V3.80376H40.5473Z" fill="#86B8E5"/>
<path fill-rule="evenodd" clip-rule="evenodd" d="M40.8827 3.80376V0.954346H41.2182V3.80376H40.8827Z" fill="#87B9E5"/>
<path fill-rule="evenodd" clip-rule="evenodd" d="M41.2182 3.80376V0.954346H41.5419V3.80376H41.2182Z" fill="#89BAE6"/>
<path fill-rule="evenodd" clip-rule="evenodd" d="M41.5419 3.80376V0.954346H41.8766V3.80376H41.5419ZM41.8766 3.80376V0.954346H42.2121V3.80376H41.8766Z" fill="#8CBCE7"/>
<path fill-rule="evenodd" clip-rule="evenodd" d="M42.2121 3.80376V0.954346H42.5475V3.80376H42.2121ZM42.5475 3.80376V0.954346H42.8829V3.80376H42.5475Z" fill="#90BDE7"/>
<path fill-rule="evenodd" clip-rule="evenodd" d="M42.8829 3.80376V0.954346H43.2177V3.80376H42.8829Z" fill="#92C0E9"/>
<path fill-rule="evenodd" clip-rule="evenodd" d="M43.2177 3.80376V0.954346H43.5418V3.80376H43.2177Z" fill="#94C0E9"/>
<path fill-rule="evenodd" clip-rule="evenodd" d="M43.5418 3.80376V0.954346H43.8772V3.80376H43.5418Z" fill="#96C1E9"/>
<path fill-rule="evenodd" clip-rule="evenodd" d="M43.8772 3.80376V0.954346H44.2127V3.80376H43.8772ZM44.2127 3.80376V0.954346H44.5474V3.80376H44.2127Z" fill="#98C2E9"/>
<path fill-rule="evenodd" clip-rule="evenodd" d="M44.5474 3.80376V0.954346H44.8828V3.80376H44.5474Z" fill="#9AC3E9"/>
<path fill-rule="evenodd" clip-rule="evenodd" d="M44.8828 3.80376V0.954346H45.2069V3.80376H44.8828Z" fill="#9CC3E9"/>
<path fill-rule="evenodd" clip-rule="evenodd" d="M45.2069 3.80376V0.954346H45.5424V3.80376H45.2069Z" fill="#9EC4EA"/>
<path fill-rule="evenodd" clip-rule="evenodd" d="M45.5424 3.80376V0.954346H45.8778V3.80376H45.5424Z" fill="#9EC6EB"/>
<path fill-rule="evenodd" clip-rule="evenodd" d="M45.8778 3.80376V0.954346H46.2132V3.80376H45.8778Z" fill="#A0C7EB"/>
<path fill-rule="evenodd" clip-rule="evenodd" d="M46.2133 3.80376V0.954346H46.548V3.80376H46.2133Z" fill="#A2C7EB"/>
<path fill-rule="evenodd" clip-rule="evenodd" d="M46.548 3.80376V0.954346H46.8834V3.80376H46.548Z" fill="#A4C8EB"/>
<path fill-rule="evenodd" clip-rule="evenodd" d="M46.8834 3.80376V0.954346H47.2071V3.80376H46.8834Z" fill="#A6C9EC"/>
<path fill-rule="evenodd" clip-rule="evenodd" d="M47.2072 3.80376V0.954346H47.5426V3.80376H47.2072Z" fill="#A7CBED"/>
<path fill-rule="evenodd" clip-rule="evenodd" d="M47.5426 3.80376V0.954346H47.8773V3.80376H47.5426Z" fill="#A9CBED"/>
<path fill-rule="evenodd" clip-rule="evenodd" d="M47.8773 3.80376V0.954346H48.2127V3.80376H47.8773Z" fill="#ABCCED"/>
<path fill-rule="evenodd" clip-rule="evenodd" d="M48.2127 3.80376V0.954346H48.5482V3.80376H48.2127ZM48.5482 3.80376V0.954346H48.8723V3.80376H48.5482Z" fill="#ADCDED"/>
<path fill-rule="evenodd" clip-rule="evenodd" d="M48.8723 3.80376V0.954346H49.2077V3.80376H48.8723Z" fill="#AFCEED"/>
<path fill-rule="evenodd" clip-rule="evenodd" d="M49.2077 3.80376V0.954346H49.5424V3.80376H49.2077Z" fill="#B1CFEE"/>
<path fill-rule="evenodd" clip-rule="evenodd" d="M49.5424 3.80376V0.954346H49.8779V3.80376H49.5424Z" fill="#B3D1EF"/>
<path fill-rule="evenodd" clip-rule="evenodd" d="M49.8779 3.80376V0.954346H50.2133V3.80376H49.8779Z" fill="#B5D2EF"/>
<path fill-rule="evenodd" clip-rule="evenodd" d="M50.2133 3.80376V0.954346H50.5374V3.80376H50.2133Z" fill="#B5D2EF"/>
<path fill-rule="evenodd" clip-rule="evenodd" d="M50.5374 3.80376V0.954346H50.8729V3.80376H50.5374Z" fill="#B7D3EF"/>
<path fill-rule="evenodd" clip-rule="evenodd" d="M50.8729 3.80376V0.954346H51.2076V3.80376H50.8729Z" fill="#BAD4F0"/>
<path fill-rule="evenodd" clip-rule="evenodd" d="M51.2076 3.80376V0.954346H51.543V3.80376H51.2076Z" fill="#BCD7F1"/>
<path fill-rule="evenodd" clip-rule="evenodd" d="M51.543 3.80376V0.954346H51.8785V3.80376H51.543ZM51.8785 3.80376V0.954346H52.2139V3.80376H51.8785Z" fill="#BED8F1"/>
<path fill-rule="evenodd" clip-rule="evenodd" d="M52.2139 3.80376V0.954346H52.5376V3.80376H52.2139Z" fill="#C0D8F1"/>
<path fill-rule="evenodd" clip-rule="evenodd" d="M52.5377 3.80376V0.954346H52.8723V3.80376H52.5377Z" fill="#C2D9F2"/>
<path fill-rule="evenodd" clip-rule="evenodd" d="M52.8724 3.80376V0.954346H53.2078V3.80376H52.8724ZM53.2078 3.80376V0.954346H53.5433V3.80376H53.2078Z" fill="#C4DAF2"/>
<path fill-rule="evenodd" clip-rule="evenodd" d="M53.5432 3.80376V0.954346H53.8779V3.80376H53.5432Z" fill="#C7DBF2"/>
<path fill-rule="evenodd" clip-rule="evenodd" d="M53.8779 3.80376V0.954346H54.2028V3.80376H53.8779Z" fill="#C9DEF4"/>
<path fill-rule="evenodd" clip-rule="evenodd" d="M54.2028 3.80376V0.954346H54.5375V3.80376H54.2028Z" fill="#CBDFF4"/>
<path fill-rule="evenodd" clip-rule="evenodd" d="M54.5375 3.80376V0.954346H54.8729V3.80376H54.5375ZM54.8729 3.80376V0.954346H55.2084V3.80376H54.8729Z" fill="#CDE0F4"/>
<path fill-rule="evenodd" clip-rule="evenodd" d="M55.2084 3.80376V0.954346H55.5431V3.80376H55.2084Z" fill="#D0E1F4"/>
<path fill-rule="evenodd" clip-rule="evenodd" d="M55.5431 3.80376V0.954346H55.8672V3.80376H55.5431Z" fill="#D2E2F4"/>
<path fill-rule="evenodd" clip-rule="evenodd" d="M55.8672 3.80376V0.954346H56.2027V3.80376H55.8672Z" fill="#D4E2F5"/>
<path fill-rule="evenodd" clip-rule="evenodd" d="M56.2026 3.80376V0.954346H56.5381V3.80376H56.2026Z" fill="#D6E5F6"/>
<path fill-rule="evenodd" clip-rule="evenodd" d="M56.5381 3.80376V0.954346H56.8732V3.80376H56.5381Z" fill="#D6E5F6"/>
<path fill-rule="evenodd" clip-rule="evenodd" d="M56.8732 3.80376V0.954346H57.2079V3.80376H56.8732Z" fill="#D9E6F6"/>
<path fill-rule="evenodd" clip-rule="evenodd" d="M57.2078 3.80376V0.954346H57.5433V3.80376H57.2078Z" fill="#DBE7F6"/>
<path fill-rule="evenodd" clip-rule="evenodd" d="M57.5433 3.80376V0.954346H57.8674V3.80376H57.5433Z" fill="#DDE8F7"/>
<path fill-rule="evenodd" clip-rule="evenodd" d="M57.8675 3.80376V0.954346H58.2029V3.80376H57.8675Z" fill="#DEEAF8"/>
<path fill-rule="evenodd" clip-rule="evenodd" d="M58.2029 3.80376V0.954346H58.5383V3.80376H58.2029Z" fill="#E0EBF8"/>
<path fill-rule="evenodd" clip-rule="evenodd" d="M58.5383 3.80376V0.954346H58.873V3.80376H58.5383Z" fill="#E2ECF8"/>
<path fill-rule="evenodd" clip-rule="evenodd" d="M58.873 3.80376V0.954346H59.2084V3.80376H58.873Z" fill="#E4EDF9"/>
<path fill-rule="evenodd" clip-rule="evenodd" d="M59.2084 3.80376V0.954346H59.5325V3.80376H59.2084ZM59.5325 3.80376V0.954346H59.868V3.80376H59.5325Z" fill="#E6EEF9"/>
<path fill-rule="evenodd" clip-rule="evenodd" d="M59.868 3.80376V0.954346H60.2027V3.80376H59.868Z" fill="#E9EFF9"/>
<path fill-rule="evenodd" clip-rule="evenodd" d="M60.2027 3.80376V0.954346H60.5382V3.80376H60.2027Z" fill="#EBF0F9"/>
<path fill-rule="evenodd" clip-rule="evenodd" d="M60.5382 3.80376V0.954346H60.8736V3.80376H60.5382Z" fill="#EEF4FB"/>
<path fill-rule="evenodd" clip-rule="evenodd" d="M60.8736 3.80376V0.954346H61.1973V3.80376H60.8736ZM61.1973 3.80376V0.954346H61.5328V3.80376H61.1973Z" fill="#F0F5FB"/>
<path fill-rule="evenodd" clip-rule="evenodd" d="M61.5328 3.80376V0.954346H61.8675V3.80376H61.5328Z" fill="#F2F6FC"/>
<path fill-rule="evenodd" clip-rule="evenodd" d="M61.8675 3.80376V0.954346H62.2029V3.80376H61.8675Z" fill="#F5F7FC"/>
<path fill-rule="evenodd" clip-rule="evenodd" d="M62.2029 3.80376V0.954346H62.5384V3.80376H62.2029ZM62.5384 3.80376V0.954346H62.8738V3.80376H62.5384Z" fill="#F8FCFE"/>
<path fill-rule="evenodd" clip-rule="evenodd" d="M62.8738 3.80376V0.954346H63.1979V3.80376H62.8738Z" fill="#FBFDFF"/>
<path fill-rule="evenodd" clip-rule="evenodd" d="M63.1979 3.80376V0.954346H63.5326V3.80376H63.1979ZM63.5326 3.80376V0.954346V3.80376Z" fill="white"/>
<path fill-rule="evenodd" clip-rule="evenodd" d="M2.29763 20.6878V18.8444H1.79484V18.274H3.42636V18.8444H2.9232V20.6878H2.29763ZM3.71649 18.2744H4.34243V19.4477C4.34243 19.6154 4.34243 19.7382 4.35339 19.8167C4.35339 19.8953 4.37605 19.9508 4.38701 20.0067C4.42063 20.0623 4.45424 20.1189 4.52111 20.1408C4.57702 20.1745 4.64389 20.1964 4.73341 20.1964C4.82293 20.1964 4.8898 20.1741 4.94571 20.1408C5.00162 20.1185 5.0462 20.0623 5.06849 20.0067C5.09078 19.9512 5.10174 19.8953 5.11307 19.8167C5.12439 19.7382 5.12439 19.6154 5.12439 19.4477V18.2744H5.739V19.5482C5.739 19.805 5.72767 20.0064 5.69406 20.1291C5.6733 20.2475 5.62345 20.3589 5.54899 20.4533C5.47079 20.5537 5.35898 20.621 5.22488 20.6773C5.09078 20.7215 4.92306 20.7445 4.73305 20.7445C4.53171 20.7445 4.37532 20.7218 4.24121 20.6773C4.10711 20.621 3.9953 20.5537 3.9171 20.4533C3.84303 20.3573 3.78977 20.2469 3.76071 20.1291C3.72904 19.9371 3.714 19.7428 3.71576 19.5482V18.2744H3.71649ZM4.81161 17.7047C4.81161 17.6375 4.8339 17.5925 4.87884 17.537C4.89911 17.5159 4.92339 17.4991 4.95025 17.4876C4.9771 17.476 5.006 17.47 5.03523 17.4697C5.1021 17.4697 5.14705 17.492 5.19163 17.537C5.23657 17.5812 5.25886 17.6375 5.25886 17.7047C5.25886 17.7719 5.23621 17.8275 5.19163 17.8724C5.17191 17.8942 5.14774 17.9115 5.12075 17.9231C5.09377 17.9347 5.0646 17.9403 5.03523 17.9397C5.00585 17.9405 4.97665 17.9348 4.94964 17.9232C4.92264 17.9116 4.89848 17.8943 4.87884 17.8724C4.85675 17.8506 4.83938 17.8244 4.82781 17.7955C4.81624 17.7667 4.81073 17.7358 4.81161 17.7047ZM4.20833 17.7047C4.20833 17.6375 4.23098 17.5925 4.27556 17.537C4.2952 17.5151 4.31936 17.4978 4.34636 17.4862C4.37337 17.4745 4.40257 17.4689 4.43195 17.4697C4.48786 17.4697 4.54377 17.492 4.58871 17.537C4.63329 17.5812 4.65558 17.6375 4.65558 17.7047C4.65558 17.7719 4.63329 17.8275 4.58871 17.8724C4.56893 17.8942 4.54469 17.9115 4.51764 17.9231C4.4906 17.9347 4.46137 17.9403 4.43195 17.9397C4.36509 17.9397 4.30918 17.917 4.27556 17.8724C4.25353 17.8505 4.23621 17.8243 4.22465 17.7955C4.21309 17.7667 4.20754 17.7358 4.20833 17.7047ZM6.21987 20.6878V18.2744H6.86773C7.11365 18.2744 7.29233 18.2857 7.39318 18.308C7.49367 18.3303 7.58319 18.3752 7.65006 18.4308C7.73958 18.498 7.79513 18.5762 7.84007 18.6884C7.88465 18.7888 7.9073 18.9003 7.9073 19.0231C7.9073 19.2131 7.86236 19.3585 7.7732 19.4813C7.695 19.5935 7.5609 19.6713 7.40451 19.7162L8.01912 20.6882H7.31499L6.80086 19.7382V20.6882H6.21987V20.6878ZM6.80086 19.4141H6.91268C7.04678 19.4141 7.14763 19.3804 7.20317 19.3362C7.27041 19.2913 7.2927 19.2127 7.2927 19.113C7.2927 18.9895 7.27041 18.9003 7.2145 18.8554C7.15859 18.7998 7.05811 18.7775 6.924 18.7775H6.80123V19.4141H6.80086ZM8.25334 20.6878V18.2744H8.86795V19.3698L9.59437 18.2744H10.3095L9.47123 19.4477L10.3877 20.6882H9.60533L8.86795 19.6041V20.6882H8.25334V20.6878ZM10.5777 20.6878V18.2744H11.2032V20.6878H10.5777ZM10.6672 17.7047C10.6672 17.6492 10.6899 17.5812 10.7344 17.537C10.7526 17.5127 10.7762 17.4929 10.8034 17.4793C10.8305 17.4657 10.8605 17.4585 10.8908 17.4584C10.923 17.4571 10.9551 17.4636 10.9843 17.4772C11.0135 17.4909 11.0389 17.5114 11.0585 17.537C11.0806 17.5589 11.098 17.585 11.1095 17.6139C11.1211 17.6427 11.1266 17.6736 11.1258 17.7047C11.1258 17.7825 11.1031 17.8388 11.0585 17.883C11.0367 17.9051 11.0105 17.9225 10.9817 17.9341C10.9528 17.9456 10.9219 17.9512 10.8908 17.9503C10.8616 17.95 10.8327 17.9439 10.8059 17.9324C10.779 17.9208 10.7547 17.9041 10.7344 17.883C10.6894 17.8347 10.6653 17.7707 10.6672 17.7047ZM12.1087 20.6878V19.5818L11.3151 18.2744H12.0301L12.332 18.889C12.332 18.889 12.332 18.9003 12.3429 18.9116C12.3766 18.9789 12.3988 19.0344 12.4102 19.0899C12.4215 19.0457 12.4438 18.9785 12.4774 18.9116C12.4774 18.9003 12.4887 18.9003 12.4887 18.889L12.7906 18.2744H13.5056L12.7124 19.5818V20.6878H12.1087ZM13.6061 20.6878V18.2744H15.0027V18.7998H14.2094V19.2131H14.9581V19.7385H14.2094V20.1412H15.0027V20.6886H13.6061V20.6878ZM16.5111 19.9059C16.6006 20.0181 16.6898 20.0959 16.7793 20.1522C16.8688 20.2077 16.958 20.23 17.0475 20.23C17.1257 20.23 17.2039 20.2077 17.2485 20.1628C17.3044 20.1186 17.3267 20.0623 17.3267 19.9844C17.3267 19.9059 17.304 19.839 17.2594 19.7944C17.2149 19.7608 17.1144 19.7159 16.9466 19.6603C16.723 19.6041 16.5666 19.5149 16.4775 19.4141C16.3879 19.3136 16.3434 19.1685 16.3434 18.9895C16.3434 18.7662 16.4106 18.5762 16.5557 18.4308C16.7007 18.2861 16.8907 18.2075 17.1257 18.2075C17.2485 18.2075 17.3716 18.2301 17.4834 18.2638C17.5952 18.2974 17.6957 18.3529 17.7962 18.4308L17.6062 18.9003C17.5438 18.8408 17.4721 18.7919 17.3939 18.7556C17.3232 18.7256 17.2471 18.7103 17.1703 18.7107C17.0921 18.7107 17.0362 18.722 16.9916 18.7662C16.9668 18.7812 16.9464 18.8027 16.9327 18.8282C16.9189 18.8538 16.9123 18.8826 16.9134 18.9116C16.9134 18.9672 16.9357 19.0231 16.9806 19.0563C17.0252 19.0899 17.1034 19.1236 17.2152 19.1568C17.2265 19.1568 17.2375 19.1681 17.2488 19.1681C17.4948 19.2354 17.6621 19.3245 17.7403 19.4031C17.7962 19.4703 17.8408 19.5372 17.8634 19.615C17.8971 19.7042 17.908 19.7941 17.908 19.8949C17.908 20.1518 17.8298 20.3637 17.6734 20.5095C17.5061 20.6659 17.3047 20.7445 17.0365 20.7445C16.8801 20.7445 16.7347 20.7218 16.6006 20.6659C16.461 20.6021 16.3356 20.5109 16.2319 20.3977L16.5111 19.9059ZM18.2544 20.6878V18.2744H19.651V18.7998H18.8577V19.2131H19.6064V19.7385H18.8577V20.1412H19.651V20.6886H18.2544V20.6878ZM20.4669 20.6878V19.5818L19.6623 18.2744H20.3778L20.6902 18.889V18.9116C20.7238 18.9789 20.7461 19.0344 20.7574 19.0899C20.7688 19.0457 20.7907 18.9785 20.8243 18.9116C20.8356 18.9003 20.8356 18.9003 20.8356 18.889L21.1484 18.2744H21.8522L21.0589 19.5818V20.6878H20.4669ZM22.4449 19.7831H23.0595L22.8362 18.9895C22.8249 18.9558 22.8136 18.9222 22.8026 18.8667C22.7913 18.8111 22.7799 18.7439 22.758 18.6547C22.7467 18.722 22.7244 18.7775 22.7131 18.8331C22.7018 18.8886 22.6908 18.9335 22.6795 18.9895L22.4449 19.7831ZM21.5843 20.6878L22.3667 18.2744H23.1377L23.931 20.6878H23.3054L23.1936 20.2527H22.3108L22.199 20.6878H21.5843ZM24.1436 20.6878V18.2744H24.7692V19.2127H25.5965V18.2744H26.2111V20.6878H25.5965V19.7045H24.7692V20.6878H24.1436ZM27.2945 19.7831H27.9201L27.6855 18.9895C27.6742 18.9558 27.6632 18.9222 27.6519 18.8667C27.6405 18.8111 27.6296 18.7439 27.6073 18.6547C27.596 18.722 27.5737 18.7775 27.5623 18.8331C27.551 18.8886 27.5397 18.9335 27.5287 18.9895L27.2945 19.7831ZM26.434 20.6878L27.2163 18.2744H27.9873L28.7806 20.6878H28.166L28.0432 20.2527H27.1604L27.0486 20.6878H26.434ZM29.1942 20.6878V18.8444H28.6801V18.274H30.323V18.8444H29.8088V20.6878H29.1942ZM32.2223 19.7831H32.8373L32.6133 18.9895C32.6027 18.9558 32.591 18.9222 32.5797 18.8667C32.5691 18.8111 32.5468 18.7439 32.5355 18.6547C32.5242 18.722 32.5019 18.7775 32.4905 18.8331C32.4799 18.8886 32.4683 18.9335 32.4569 18.9895L32.2223 19.7831ZM31.3508 20.6878L32.1441 18.2744H32.9151L33.7088 20.6878H33.0829L32.9707 20.2527H32.0882L31.9764 20.6878H31.3508ZM35.5186 18.3643V19.0793C35.4452 18.9949 35.3584 18.9231 35.2618 18.8667C35.1817 18.8155 35.0886 18.7885 34.9935 18.7889C34.8152 18.7889 34.6694 18.8554 34.5584 18.9895C34.4462 19.113 34.3906 19.28 34.3906 19.4926C34.3906 19.6826 34.4462 19.8503 34.5584 19.9728C34.6698 20.0955 34.8152 20.1628 34.9935 20.1628C35.0834 20.1628 35.1726 20.1405 35.2618 20.0955C35.3403 20.0513 35.4295 19.9728 35.5186 19.8723V20.5874C35.4181 20.6436 35.3173 20.6773 35.2175 20.7109C35.1222 20.7337 35.0244 20.7449 34.9263 20.7445C34.8035 20.7445 34.6808 20.7332 34.5803 20.6995C34.4798 20.6659 34.3789 20.621 34.2898 20.5541C34.1221 20.4313 33.988 20.2866 33.8988 20.0959C33.8096 19.9176 33.7647 19.7049 33.7647 19.4813C33.7647 19.2913 33.7983 19.1236 33.8539 18.9789C33.9101 18.8217 33.9993 18.6884 34.1115 18.5649C34.2229 18.4421 34.3347 18.3529 34.4692 18.2974C34.6146 18.2385 34.7698 18.208 34.9267 18.2075C35.0272 18.2075 35.128 18.2188 35.2179 18.2524C35.3173 18.2744 35.4181 18.308 35.5186 18.3643ZM35.8654 20.6878V18.2744H37.262V18.7998H36.4683V19.2131H37.217V19.7385H36.4683V20.1412H37.262V20.6886H35.8654V20.6878ZM37.6646 20.6878V18.2744H38.2676L39.1281 19.5149C39.1387 19.5376 39.1723 19.5821 39.2059 19.6603C39.2395 19.7382 39.2845 19.8281 39.3287 19.9395C39.3181 19.839 39.3064 19.7495 39.3064 19.6713C39.2951 19.5935 39.2951 19.5266 39.2951 19.4594V18.2747H39.8874V20.6882H39.2951L38.4349 19.4371C38.4236 19.4144 38.39 19.3585 38.3564 19.28C38.3121 19.2127 38.2785 19.1236 38.2336 19.0125C38.2449 19.113 38.2559 19.2025 38.2559 19.28C38.2672 19.3585 38.2672 19.4254 38.2672 19.4926V20.6878H37.6646ZM40.7037 20.6878V18.8444H40.2013V18.274H41.8328V18.8444H41.3296V20.6878H40.7037ZM42.6148 19.7831H43.2294L42.9944 18.9895C42.9944 18.9558 42.9838 18.9222 42.9721 18.8667C42.9604 18.8111 42.9385 18.7439 42.9159 18.6547C42.9053 18.722 42.8936 18.7775 42.883 18.8331C42.8716 18.8886 42.8494 18.9335 42.838 18.9895L42.6148 19.7831ZM41.7433 20.6878L42.5249 18.2744H43.3072L44.0903 20.6878H43.4749L43.3635 20.2527H42.4807L42.3579 20.6878H41.7433ZM44.3132 20.6878V18.2744H44.9278V20.1186H45.6984V20.6882H44.3132V20.6878ZM46.6042 19.7831H47.2188L46.9949 18.9895C46.9843 18.9558 46.9726 18.9222 46.962 18.8667C46.9506 18.8111 46.9284 18.7439 46.917 18.6547C46.8983 18.7132 46.8833 18.7727 46.8721 18.8331C46.8615 18.8886 46.8498 18.9335 46.8385 18.9895L46.6042 19.7831ZM45.732 20.6878L46.5257 18.2744H47.2963L48.0786 20.6878H47.464L47.3526 20.2527H46.4698L46.3576 20.6878H45.732ZM48.3019 20.6878V18.2744H48.9505C49.2074 18.2744 49.3857 18.2857 49.4752 18.308C49.5757 18.3303 49.6656 18.3752 49.7434 18.4308C49.822 18.498 49.8888 18.5762 49.9225 18.6884C49.9667 18.7888 49.9897 18.9003 49.9897 19.0231C49.9897 19.2131 49.9561 19.3585 49.8662 19.4813C49.777 19.5935 49.6543 19.6713 49.4865 19.7162L50.1012 20.6882H49.4083L48.8836 19.7382V20.6882H48.3019V20.6878ZM48.8836 19.4141H48.9951C49.1292 19.4141 49.23 19.3804 49.2856 19.3362C49.3528 19.2913 49.3861 19.2127 49.3861 19.113C49.3861 18.9895 49.3524 18.9003 49.2969 18.8554C49.2414 18.7998 49.1405 18.7775 49.0064 18.7775H48.8836V19.4141ZM50.358 20.6878V18.2744H50.984V20.6878H50.358ZM53.0514 19.2357H53.1742C53.3306 19.2357 53.4424 19.2131 53.4983 19.1802C53.5538 19.1466 53.5769 19.0797 53.5769 18.9898C53.5769 18.9007 53.5542 18.8451 53.4983 18.7998C53.4428 18.7662 53.3419 18.7443 53.1859 18.7443H53.0518V19.2357H53.0514ZM52.4814 20.6878V18.2744H53.1073C53.3642 18.2744 53.5432 18.2744 53.6441 18.297C53.7439 18.3076 53.8341 18.3412 53.901 18.3862C53.9901 18.4304 54.0574 18.4976 54.1023 18.5875C54.1465 18.6653 54.1695 18.7658 54.1695 18.878C54.1695 19.0121 54.1359 19.1236 54.0691 19.2021C54.0018 19.28 53.89 19.3468 53.7559 19.3804C53.9123 19.3918 54.0358 19.459 54.125 19.5595C54.2255 19.6709 54.2697 19.8164 54.2697 19.9954C54.2697 20.1182 54.236 20.241 54.1918 20.3301C54.1363 20.4306 54.0691 20.5092 53.9686 20.5651C53.89 20.61 53.8008 20.6323 53.6781 20.6542C53.5659 20.6769 53.3869 20.6878 53.1194 20.6878H52.4814ZM53.0514 20.1854H53.2747C53.4201 20.1854 53.5202 20.1741 53.5871 20.1291C53.6434 20.0955 53.677 20.0294 53.677 19.9391C53.677 19.8387 53.6434 19.7608 53.5984 19.7272C53.5312 19.6823 53.4307 19.66 53.286 19.66H53.051V20.1854H53.0514ZM54.6497 20.6878V18.2744H55.2862V20.6878H54.6497ZM54.7388 17.7047C54.7388 17.6492 54.7611 17.5812 54.8061 17.537C54.8616 17.4814 54.9066 17.4584 54.9738 17.4584C55.0293 17.4584 55.0853 17.4811 55.1302 17.537C55.1557 17.5566 55.1762 17.5821 55.1899 17.6113C55.2035 17.6405 55.21 17.6725 55.2088 17.7047C55.2088 17.7825 55.1861 17.8388 55.1415 17.883C55.0966 17.928 55.041 17.9503 54.9738 17.9503C54.9066 17.9503 54.851 17.928 54.8061 17.883C54.7837 17.8592 54.7663 17.8311 54.7547 17.8005C54.7432 17.77 54.7378 17.7374 54.7388 17.7047ZM55.7777 20.6878V18.2744H56.4255C56.6824 18.2744 56.8615 18.2857 56.9623 18.308C57.0632 18.3303 57.1406 18.3752 57.2192 18.4308C57.2978 18.498 57.3639 18.5762 57.4092 18.6884C57.4542 18.7888 57.4764 18.9003 57.4764 19.0231C57.4764 19.2131 57.4322 19.3585 57.3423 19.4813C57.2532 19.5935 57.1304 19.6713 56.9627 19.7162L57.5886 20.6882H56.8841L56.3587 19.7382V20.6882H55.7777V20.6878ZM56.3587 19.4141H56.4822C56.6156 19.4141 56.7054 19.3804 56.7727 19.3362C56.8282 19.2913 56.8618 19.2127 56.8618 19.113C56.8618 18.9895 56.8282 18.9003 56.7727 18.8554C56.7164 18.7998 56.6273 18.7775 56.4822 18.7775H56.3587V19.4141ZM57.8225 20.6878V18.2744H58.4378V20.1186H59.2085V20.6882H57.8225V20.6878ZM59.5326 20.6878V18.2744H60.1585V20.6878H59.5326ZM59.6217 17.7047C59.6217 17.6492 59.6444 17.5812 59.689 17.537C59.7072 17.5127 59.7308 17.493 59.7579 17.4793C59.7851 17.4657 59.815 17.4585 59.8454 17.4584C59.8776 17.4571 59.9096 17.4636 59.9388 17.4772C59.968 17.4909 59.9935 17.5114 60.0131 17.537C60.0352 17.5588 60.0526 17.585 60.0642 17.6138C60.0758 17.6427 60.0813 17.6736 60.0803 17.7047C60.0803 17.7825 60.058 17.8388 60.0131 17.883C59.9913 17.9052 59.9651 17.9226 59.9362 17.9341C59.9074 17.9457 59.8764 17.9512 59.8454 17.9503C59.8161 17.95 59.7873 17.9439 59.7604 17.9323C59.7336 17.9208 59.7093 17.904 59.689 17.883C59.6441 17.8347 59.6199 17.7706 59.6217 17.7047ZM61.7341 19.7944V19.2913H62.9516C62.963 19.3026 62.963 19.3249 62.963 19.3468V19.4254C62.963 19.85 62.8625 20.1628 62.6506 20.3974C62.4492 20.6323 62.1474 20.7441 61.7783 20.7441C61.5883 20.7441 61.4323 20.7105 61.2865 20.6542C61.1418 20.5987 61.019 20.5095 60.8955 20.3868C60.795 20.2633 60.7055 20.1291 60.65 19.9728C60.5922 19.8151 60.5621 19.6488 60.5608 19.4809C60.5608 19.3026 60.5937 19.1349 60.65 18.9785C60.7055 18.8331 60.7947 18.6986 60.9068 18.5758C61.019 18.453 61.1524 18.3639 61.2978 18.3076C61.4425 18.2404 61.6103 18.2185 61.778 18.2185C62.0012 18.2185 62.2026 18.2634 62.3703 18.3526C62.5467 18.4582 62.696 18.6036 62.8062 18.7772L62.2581 19.0454C62.2055 18.9585 62.1328 18.8856 62.0462 18.8327C61.9642 18.7873 61.8717 18.7641 61.778 18.7655C61.588 18.7655 61.4425 18.8327 61.342 18.9668C61.2306 19.1009 61.1751 19.2792 61.1751 19.5036C61.1751 19.7378 61.2306 19.9168 61.342 20.051C61.4425 20.1737 61.5883 20.241 61.778 20.241C61.9344 20.241 62.0685 20.2073 62.169 20.1182C62.2811 20.0396 62.3367 19.9282 62.359 19.7941H61.7341V19.7944ZM61.2646 17.4584H61.4765C61.4765 17.537 61.4992 17.5925 61.5551 17.6261C61.6 17.6598 61.6673 17.6817 61.7564 17.6817C61.8456 17.6817 61.9241 17.6594 61.9683 17.6261C62.0133 17.5925 62.0356 17.537 62.0469 17.4584H62.2482C62.2369 17.6261 62.181 17.7602 62.1028 17.8388C62.025 17.9166 61.9128 17.9616 61.7568 17.9616C61.6008 17.9616 61.4886 17.9166 61.399 17.8388C61.3201 17.7489 61.2759 17.6261 61.2646 17.4584ZM63.3543 20.6878V18.2744H63.9803V20.6878H63.3543ZM63.4435 17.7047C63.4435 17.6492 63.4658 17.5812 63.5107 17.537C63.5289 17.5127 63.5526 17.493 63.5797 17.4793C63.6068 17.4657 63.6367 17.4585 63.6671 17.4584C63.6993 17.4571 63.7314 17.4636 63.7606 17.4772C63.7897 17.4909 63.8152 17.5114 63.8348 17.537C63.857 17.5588 63.8744 17.585 63.8859 17.6138C63.8975 17.6427 63.903 17.6736 63.9021 17.7047C63.9021 17.7825 63.8798 17.8388 63.8348 17.883C63.813 17.9052 63.7868 17.9226 63.758 17.9341C63.7291 17.9457 63.6982 17.9512 63.6671 17.9503C63.6379 17.95 63.609 17.9439 63.5822 17.9323C63.5553 17.9208 63.531 17.904 63.5107 17.883C63.4883 17.8592 63.4709 17.8311 63.4594 17.8005C63.4478 17.77 63.4424 17.7374 63.4435 17.7047ZM2.26402 22.9903H3.03502L2.655 22.0402L2.26402 22.9903ZM1.70531 23.8954L2.67765 21.6273L3.60505 23.8954H3.38178L3.10225 23.158H2.19715L1.90665 23.8954H1.70531ZM3.68324 23.5376L3.85096 23.4371C3.88458 23.5493 3.94049 23.6271 4.01868 23.694C4.09688 23.7496 4.19736 23.7832 4.30918 23.7832C4.44328 23.7832 4.55509 23.739 4.63329 23.6604C4.71149 23.5712 4.75607 23.4591 4.75607 23.3144C4.75607 23.2139 4.72245 23.1244 4.67787 23.0575C4.62196 22.9902 4.51051 22.9004 4.33147 22.8112C4.10784 22.6998 3.96241 22.5879 3.88421 22.5094C3.81259 22.4164 3.77332 22.3026 3.7724 22.1853C3.7724 22.0289 3.82831 21.9061 3.93976 21.8056C4.04024 21.7051 4.18567 21.6602 4.35303 21.6602C4.46484 21.6602 4.55436 21.6828 4.64352 21.7274C4.72172 21.7724 4.78859 21.8396 4.84449 21.9401L4.6881 22.0292C4.65796 21.9655 4.60652 21.9144 4.54267 21.8845C4.48676 21.8509 4.41989 21.8396 4.3417 21.8396C4.22989 21.8396 4.14073 21.8732 4.07349 21.9288C4.01305 22.0004 3.98129 22.0919 3.98433 22.1856C3.98433 22.3428 4.10711 22.4875 4.36435 22.6216C4.4093 22.6438 4.44255 22.6552 4.47617 22.6771C4.65485 22.7776 4.78895 22.8671 4.84486 22.9676C4.91209 23.0575 4.94534 23.1689 4.94534 23.3144C4.94534 23.5157 4.88944 23.6721 4.76666 23.7832C4.65485 23.9067 4.49846 23.9622 4.29712 23.9622C4.15205 23.9622 4.02891 23.9286 3.92843 23.85C3.81735 23.7832 3.73915 23.6717 3.68324 23.5376ZM5.22524 23.5376L5.3926 23.4371C5.42622 23.5493 5.48212 23.6271 5.56032 23.694C5.63852 23.7496 5.739 23.7832 5.85081 23.7832C5.98492 23.7832 6.09673 23.739 6.17493 23.6604C6.25312 23.5712 6.2977 23.4591 6.2977 23.3144C6.2977 23.2139 6.26409 23.1244 6.20818 23.0575C6.16323 22.9902 6.05179 22.9004 5.8731 22.8112C5.64984 22.6998 5.50441 22.5879 5.42622 22.5094C5.35459 22.4164 5.31532 22.3026 5.3144 22.1853C5.3144 22.0289 5.37031 21.9061 5.48212 21.8056C5.58261 21.7051 5.71671 21.6602 5.89539 21.6602C5.99588 21.6602 6.09673 21.6828 6.17493 21.7274C6.26445 21.7724 6.33132 21.8396 6.3759 21.9401L6.21951 22.0292C6.19685 21.962 6.14131 21.9178 6.0854 21.8845C6.0295 21.8513 5.96263 21.8396 5.8731 21.8396C5.77262 21.8396 5.68309 21.8732 5.61623 21.9288C5.54899 21.996 5.5267 22.0742 5.5267 22.1856C5.5267 22.3428 5.64984 22.4875 5.90672 22.6216C5.9513 22.6438 5.98492 22.6552 6.00721 22.6771C6.19722 22.7776 6.31999 22.8671 6.38723 22.9676C6.45446 23.0575 6.48771 23.1689 6.48771 23.3144C6.48771 23.5157 6.43181 23.6721 6.30903 23.7832C6.19722 23.9067 6.04082 23.9622 5.83949 23.9622C5.69442 23.9622 5.57128 23.9286 5.45947 23.85C5.35935 23.7832 5.28115 23.6717 5.22524 23.5376ZM8.00779 23.7832C8.13863 23.7853 8.26835 23.7587 8.38781 23.7053C8.49962 23.6604 8.60011 23.5932 8.70059 23.504C8.78975 23.4035 8.85699 23.3027 8.91289 23.1799C8.95784 23.0677 8.98013 22.9449 8.98013 22.8108C8.98013 22.6767 8.95784 22.554 8.91289 22.4312C8.85669 22.3176 8.78527 22.2123 8.70059 22.118C8.61107 22.0289 8.49926 21.9616 8.38781 21.9061C8.14619 21.817 7.88072 21.817 7.6391 21.9061C7.52728 21.9616 7.41547 22.0289 7.32631 22.118C7.23679 22.2185 7.15859 22.3194 7.11401 22.4312C7.06943 22.554 7.04678 22.6767 7.04678 22.8108C7.04678 22.9449 7.06943 23.0677 7.11401 23.1799C7.15859 23.3027 7.23679 23.4032 7.32631 23.504C7.41584 23.5932 7.52728 23.6604 7.6391 23.7053C7.75055 23.7609 7.87332 23.7832 8.00779 23.7832ZM9.19206 22.8112C9.19206 22.9676 9.16977 23.113 9.10254 23.2471C9.04477 23.3904 8.95721 23.5199 8.84566 23.6268C8.73385 23.7273 8.6107 23.8168 8.46564 23.8731C8.32057 23.9286 8.16382 23.9622 8.00742 23.9622C7.85103 23.9622 7.69464 23.9286 7.56054 23.8731C7.41547 23.8168 7.29233 23.7276 7.16955 23.6268C7.06152 23.5169 6.97436 23.3882 6.91231 23.2471C6.85677 23.113 6.82315 22.9672 6.82315 22.8112C6.82315 22.6552 6.85677 22.5094 6.91231 22.3643C6.97955 22.2302 7.05774 22.0961 7.16955 21.9953C7.27858 21.8861 7.4076 21.7988 7.54957 21.7384C7.69743 21.6896 7.85175 21.6631 8.00742 21.6598C8.17515 21.6598 8.33154 21.6934 8.46564 21.7497C8.6107 21.8052 8.73385 21.8838 8.84566 21.9953C8.95747 22.0957 9.04663 22.2302 9.10254 22.3643C9.16977 22.5094 9.19206 22.6548 9.19206 22.8112ZM11.4159 22.1074C11.3148 22.0241 11.2019 21.9563 11.0808 21.9061C10.9634 21.8602 10.8382 21.8373 10.7121 21.8389C10.433 21.8389 10.1984 21.928 10.0193 22.1071C9.84065 22.2854 9.75113 22.5203 9.75113 22.8108C9.75113 22.9563 9.77378 23.079 9.81836 23.2018C9.86294 23.314 9.93018 23.4145 10.0197 23.5036C10.1092 23.5928 10.2097 23.66 10.3212 23.705C10.433 23.7492 10.5561 23.7722 10.6902 23.7722C10.813 23.7722 10.9358 23.7496 11.0589 23.705C11.1817 23.6714 11.2935 23.6045 11.4053 23.515V23.7492C11.2977 23.8173 11.1811 23.8702 11.0589 23.9063C10.9361 23.9392 10.813 23.9619 10.7012 23.9619C10.5335 23.9619 10.3884 23.9282 10.243 23.8727C10.0979 23.8164 9.96343 23.7386 9.86294 23.6377C9.75734 23.5323 9.67385 23.4068 9.61739 23.2687C9.56342 23.122 9.53691 22.9667 9.5392 22.8105C9.5392 22.6428 9.56148 22.4864 9.61739 22.3523C9.6733 22.2076 9.76246 22.084 9.86294 21.9839C9.97476 21.8834 10.0979 21.8049 10.243 21.749C10.3889 21.6911 10.5442 21.6606 10.7012 21.6591C10.8353 21.6591 10.9694 21.6817 11.0922 21.7154C11.2149 21.7596 11.3154 21.8158 11.4163 21.8937V22.1074H11.4159ZM11.8515 23.8954V21.7051H12.0528V23.8954H11.8515ZM12.8684 22.9903H13.6394L13.2594 22.0402L12.8684 22.9903ZM12.2987 23.8954L13.2707 21.6273L14.1985 23.8954H13.9862L13.707 23.158H12.8015L12.5001 23.8954H12.2987ZM14.6786 23.8954V21.8948H14.0643V21.7048H15.4832V21.8948H14.8799V23.8954H14.6786ZM15.8183 23.8954V21.7051H16.0196V23.8954H15.8183ZM17.6511 23.7832C17.7852 23.7832 17.908 23.7609 18.0198 23.7053C18.1426 23.6604 18.2435 23.5932 18.3326 23.504C18.4331 23.4035 18.5 23.3027 18.5449 23.1799C18.6008 23.0677 18.6231 22.9449 18.6231 22.8108C18.6231 22.6767 18.6008 22.554 18.5449 22.4312C18.4967 22.3132 18.4244 22.2065 18.3326 22.118C18.2423 22.0287 18.1363 21.9569 18.0198 21.9061C17.9024 21.8602 17.7772 21.8373 17.6511 21.8389C17.517 21.8389 17.3939 21.8612 17.2821 21.9061C17.1638 21.9594 17.0546 22.0309 16.9583 22.118C16.8734 22.2098 16.8052 22.3158 16.757 22.4312C16.7011 22.554 16.6788 22.6767 16.6788 22.8108C16.6788 22.9449 16.7011 23.0677 16.757 23.1799C16.8019 23.3027 16.8688 23.4032 16.9583 23.504C17.0588 23.5932 17.1593 23.6604 17.2711 23.7053C17.3906 23.7587 17.5203 23.7853 17.6511 23.7832ZM18.8354 22.8112C18.8354 22.9676 18.8018 23.113 18.7463 23.2471C18.6884 23.3905 18.6007 23.5199 18.489 23.6268C18.3772 23.7273 18.2431 23.8168 18.098 23.8731C17.9562 23.9314 17.8045 23.9616 17.6511 23.9622C17.4943 23.9605 17.339 23.9303 17.1929 23.8731C17.0536 23.8123 16.9253 23.7291 16.8129 23.6268C16.7014 23.5199 16.6138 23.3904 16.556 23.2471C16.5001 23.113 16.4665 22.9672 16.4665 22.8112C16.4665 22.6552 16.4998 22.5094 16.556 22.3643C16.6119 22.2302 16.7011 22.0961 16.8129 21.9953C16.9247 21.8838 17.0479 21.7939 17.1929 21.7384C17.338 21.6934 17.4834 21.6598 17.6511 21.6598C17.8075 21.6598 17.9639 21.6934 18.1094 21.7497C18.2544 21.8052 18.3772 21.8838 18.4894 21.9953C18.6012 22.0957 18.6904 22.2302 18.7466 22.3643C18.8022 22.5094 18.8354 22.6548 18.8354 22.8112ZM19.2827 23.8954V21.616L20.847 23.4488V21.7055H21.0256V23.963L19.4614 22.1297V23.8954H19.2827ZM23.5513 23.7832C23.6854 23.7832 23.8086 23.7609 23.92 23.7053C24.0431 23.6604 24.1436 23.5932 24.2441 23.504C24.3336 23.4035 24.4005 23.3027 24.4564 23.1799C24.5014 23.0677 24.5236 22.9449 24.5236 22.8108C24.5236 22.6767 24.5014 22.554 24.4564 22.4312C24.4002 22.3176 24.3288 22.2123 24.2441 22.118C24.1499 22.0336 24.0447 21.9623 23.9313 21.9061C23.8086 21.8612 23.6858 21.8389 23.5513 21.8389C23.4168 21.8389 23.2944 21.8612 23.1826 21.9061C23.0708 21.9616 22.959 22.0289 22.8698 22.118C22.778 22.2065 22.7057 22.3131 22.6575 22.4312C22.6126 22.554 22.5793 22.6767 22.5793 22.8108C22.5793 22.9449 22.613 23.0677 22.6575 23.1799C22.7021 23.3027 22.7693 23.4032 22.8698 23.504C22.959 23.5932 23.0598 23.6604 23.1826 23.7053C23.2941 23.7609 23.4168 23.7832 23.5513 23.7832ZM24.7356 22.8112C24.7356 22.9676 24.702 23.113 24.6461 23.2471C24.5883 23.3905 24.5006 23.52 24.3888 23.6268C24.2764 23.7291 24.1481 23.8123 24.0088 23.8731C23.8637 23.9286 23.707 23.9622 23.5506 23.9622C23.3942 23.9622 23.2378 23.9286 23.1037 23.8731C22.9596 23.8153 22.8271 23.7318 22.7127 23.6268C22.6012 23.5198 22.5135 23.3904 22.4555 23.2471C22.3996 23.113 22.3663 22.9672 22.3663 22.8112C22.3663 22.6552 22.3996 22.5094 22.4555 22.3643C22.5114 22.2302 22.6005 22.0961 22.7127 21.9953C22.8217 21.886 22.9507 21.7988 23.0927 21.7384C23.2407 21.6896 23.3952 21.6631 23.5509 21.6598C23.7183 21.6598 23.8637 21.6934 24.0092 21.7497C24.1542 21.8052 24.2774 21.8838 24.3892 21.9953C24.501 22.0957 24.5902 22.2302 24.6464 22.3643C24.702 22.5094 24.7356 22.6548 24.7356 22.8112ZM25.1825 23.8954V21.7051H26.2776V21.8951H25.3834V22.5879H26.244V22.767H25.3834V23.8954H25.1825ZM28.0096 23.8954V21.8948H27.4063V21.7048H28.8252V21.8948H28.2106V23.8954H28.0096ZM29.1493 21.7051H29.3503V23.1353C29.3503 23.3586 29.3952 23.5157 29.4957 23.6271C29.5962 23.7276 29.7529 23.7835 29.9539 23.7835C30.1549 23.7835 30.3116 23.728 30.4118 23.6271C30.5122 23.5157 30.5568 23.3589 30.5568 23.1353V21.7051H30.7582V23.0798C30.7582 23.3703 30.6909 23.5935 30.5568 23.7393C30.4227 23.884 30.2217 23.9626 29.9535 23.9626C29.6853 23.9626 29.484 23.884 29.3499 23.7393C29.2162 23.5939 29.1489 23.3703 29.1489 23.0798V21.7051H29.1493ZM31.4963 21.8842V22.6884H31.7086C31.8873 22.6884 32.0214 22.6661 32.0996 22.5993C32.1668 22.543 32.2114 22.4421 32.2114 22.2974C32.2114 22.152 32.1668 22.0406 32.0886 21.985C32.0104 21.9178 31.8876 21.8845 31.7086 21.8845H31.4963V21.8842ZM32.6469 23.8954H32.4014L31.619 22.8561H31.4963V23.8954H31.2949V21.7051H31.7086C31.9432 21.7051 32.1218 21.7607 32.245 21.8615C32.3678 21.962 32.4237 22.1078 32.4237 22.3091C32.4237 22.4761 32.3678 22.6102 32.2673 22.7111C32.1668 22.8119 32.0327 22.8565 31.854 22.8565L32.6469 23.8954ZM32.9374 23.8954V21.7051H33.1384V22.7334L34.1334 21.7051H34.4016L33.3511 22.7557L34.4458 23.8954H34.1553L33.1384 22.7893V23.8954H32.9374ZM34.7031 23.8954V21.7051H34.9044V23.8954H34.7031ZM35.2954 23.5376L35.4631 23.4371C35.4967 23.5493 35.5522 23.6271 35.6308 23.694C35.7086 23.7496 35.8091 23.7832 35.9213 23.7832C36.0554 23.7832 36.1669 23.739 36.2454 23.6604C36.324 23.5712 36.3576 23.4591 36.3576 23.3144C36.3576 23.2139 36.3349 23.1244 36.279 23.0575C36.2341 22.9902 36.1113 22.9004 35.9436 22.8112C35.7203 22.6998 35.5753 22.5879 35.4967 22.5094C35.4181 22.4202 35.3853 22.3088 35.3853 22.1853C35.3837 22.1146 35.3968 22.0444 35.4237 21.9791C35.4506 21.9137 35.4908 21.8547 35.5417 21.8056C35.6531 21.7051 35.7872 21.6602 35.9549 21.6602C36.0664 21.6602 36.1669 21.6828 36.2454 21.7274C36.3346 21.7724 36.4018 21.8396 36.4468 21.9401L36.2904 22.0292C36.2567 21.962 36.2118 21.9178 36.1563 21.8845C36.1007 21.8513 36.0335 21.8396 35.9436 21.8396C35.8431 21.8396 35.7536 21.8732 35.6867 21.9288C35.6195 21.996 35.5862 22.0742 35.5862 22.1856C35.5862 22.3428 35.7203 22.4875 35.9772 22.6216C36.0222 22.6438 36.0558 22.6552 36.0777 22.6771C36.2677 22.7776 36.3909 22.8671 36.4581 22.9676C36.5253 23.0575 36.5578 23.1689 36.5578 23.3144C36.5578 23.5157 36.4913 23.6721 36.3795 23.7832C36.2673 23.9067 36.1113 23.9622 35.91 23.9622C35.7653 23.9622 35.6425 23.9286 35.5303 23.85C35.4295 23.7832 35.3509 23.6717 35.2954 23.5376ZM37.0051 23.8954V21.7051H37.2064V22.5993H38.4017V21.7051H38.603V23.8954H38.4017V22.767H37.2064V23.8954H37.0051ZM40.4359 23.8954V21.8948H39.8322V21.7048H41.2518V21.8948H40.6365V23.8954H40.4359ZM41.7875 21.8842V22.6884H41.9888C42.1788 22.6884 42.3013 22.6661 42.3798 22.5993C42.4584 22.543 42.492 22.4421 42.492 22.2974C42.492 22.152 42.4584 22.0406 42.3798 21.985C42.3013 21.9178 42.1671 21.8845 41.9888 21.8845H41.7875V21.8842ZM42.9272 23.8954H42.6816L41.9103 22.8561H41.7875V23.8954H41.5862V21.7051H41.9888C42.2344 21.7051 42.4134 21.7607 42.5249 21.8615C42.6484 21.962 42.7153 22.1078 42.7153 22.3091C42.7153 22.4761 42.659 22.6102 42.5581 22.7111C42.4584 22.8116 42.3126 22.8565 42.1343 22.8565L42.9272 23.8954ZM43.4863 22.9903H44.2569L43.8772 22.0402L43.4863 22.9903ZM42.9159 23.8954L43.8886 21.6273L44.8156 23.8954H44.6037L44.3132 23.158H43.4073L43.1168 23.8954H42.9159ZM45.576 23.9845L44.7045 21.7051H44.9395L45.576 23.493L46.2461 21.7051H46.4701L45.576 23.9845ZM46.7157 23.8954V21.7051H47.8104V21.8951H46.917V22.5879H47.8104V22.767H46.917V23.7163H47.8104V23.8954H46.7157ZM48.3019 23.8954V21.7051H48.5032V23.7163H49.2633V23.8954H48.3019ZM50.7384 22.9903H51.509L51.1294 22.0402L50.7384 22.9903ZM50.1684 23.8954L51.1404 21.6273L52.0681 23.8954H51.8554L51.565 23.158H50.6715L50.3697 23.8954H50.1684ZM54.0793 22.2638C53.9997 22.1295 53.8833 22.0209 53.7439 21.9507C53.6211 21.8728 53.4647 21.8392 53.3087 21.8392C53.0288 21.8392 52.8055 21.9284 52.6378 22.1184C52.4595 22.2974 52.3809 22.543 52.3809 22.8335C52.3809 22.957 52.4035 23.0798 52.4481 23.2025C52.4931 23.3147 52.5603 23.4152 52.6495 23.5044C52.7386 23.5935 52.8395 23.6608 52.94 23.7057C53.0576 23.7513 53.1829 23.7741 53.309 23.7729C53.5546 23.7729 53.7559 23.7057 53.9119 23.5603C54.0691 23.4156 54.1469 23.2248 54.1469 22.9906H53.3869V22.8229H54.3702V22.8452C54.3702 23.1912 54.2697 23.4711 54.0797 23.6608C53.8896 23.8621 53.6214 23.9626 53.2867 23.9626C52.9513 23.9626 52.6831 23.8504 52.4712 23.6385C52.2698 23.4258 52.158 23.1583 52.158 22.8112C52.158 22.6548 52.1916 22.4988 52.2366 22.3643C52.2878 22.226 52.3679 22.1002 52.4715 21.9953C52.572 21.8838 52.6948 21.7939 52.8292 21.7384C52.9728 21.6877 53.1239 21.6611 53.2761 21.6598C53.4994 21.6598 53.7007 21.7048 53.8571 21.7833C54.0135 21.8612 54.137 21.9847 54.2262 22.1294L54.0793 22.2638ZM54.7944 23.8954V21.7051H55.8899V21.8951H54.9957V22.5879H55.8899V22.767H54.9957V23.7163H55.8899V23.8954H54.7944ZM56.3817 23.8954V21.616L57.946 23.4488V21.7055H58.136V23.963L56.5717 22.1301V23.8957H56.3817V23.8954ZM60.4603 22.1074C60.359 22.0243 60.2459 21.9565 60.1249 21.9061C60.011 21.8612 59.8896 21.8384 59.7672 21.8389C59.4767 21.8389 59.2417 21.928 59.0627 22.1071C58.8843 22.2854 58.7952 22.5203 58.7952 22.8108C58.7952 22.9563 58.8175 23.079 58.8624 23.2018C58.9066 23.314 58.9739 23.4145 59.063 23.5036C59.1529 23.5928 59.2534 23.66 59.3648 23.705C59.4825 23.7505 59.6077 23.7733 59.7339 23.7722C59.8567 23.7722 59.9908 23.7496 60.103 23.705C60.2257 23.6714 60.3372 23.6045 60.449 23.515V23.7492C60.3414 23.8172 60.225 23.8701 60.103 23.9063C59.9795 23.9392 59.868 23.9619 59.7452 23.9619C59.5881 23.9619 59.4321 23.9282 59.287 23.8727C59.1468 23.8186 59.0178 23.739 58.9066 23.6377C58.8061 23.5256 58.7166 23.4028 58.6611 23.2687C58.6068 23.1221 58.5802 22.9668 58.5825 22.8105C58.5825 22.6428 58.6048 22.4864 58.6611 22.3523C58.7283 22.2076 58.8058 22.084 58.9066 21.9839C59.0178 21.8827 59.1468 21.8031 59.287 21.749C59.4329 21.691 59.5883 21.6605 59.7452 21.6591C59.8899 21.6591 60.0127 21.6817 60.1362 21.7154C60.259 21.7596 60.3704 21.8158 60.4603 21.8937V22.1074ZM60.8955 23.8954V21.7051H61.0969V23.8954H60.8955ZM61.6442 23.8954V21.7051H62.7397V21.8951H61.8456V22.5879H62.7397V22.767H61.8456V23.7163H62.7397V23.8954H61.6442ZM63.0638 23.5376L63.2421 23.4371C63.2758 23.5493 63.3313 23.6271 63.4099 23.694C63.4884 23.7496 63.5776 23.7832 63.6898 23.7832C63.8345 23.7832 63.9353 23.739 64.0139 23.6604C64.103 23.5712 64.1367 23.4591 64.1367 23.3144C64.1367 23.2139 64.1144 23.1244 64.0581 23.0575C64.0025 22.9902 63.8904 22.9004 63.7121 22.8112C63.4994 22.6998 63.343 22.5879 63.2761 22.5094C63.1983 22.4202 63.1647 22.3088 63.1647 22.1853C63.1631 22.1146 63.1762 22.0444 63.2031 21.9791C63.23 21.9137 63.2702 21.8547 63.3211 21.8056C63.4325 21.7051 63.5666 21.6602 63.7343 21.6602C63.8465 21.6602 63.947 21.6828 64.0248 21.7274C64.1034 21.7724 64.1703 21.8396 64.2262 21.9401L64.0698 22.0292C64.0405 21.9687 63.9938 21.9184 63.9357 21.8845C63.8697 21.8526 63.797 21.8372 63.7237 21.8396C63.6116 21.8396 63.5224 21.8732 63.4661 21.9288C63.3996 21.996 63.3664 22.0742 63.3664 22.1856C63.3664 22.3428 63.4998 22.4875 63.746 22.6216C63.8016 22.6438 63.8352 22.6552 63.8575 22.6771C64.0479 22.7776 64.1706 22.8671 64.2379 22.9676C64.2934 23.0575 64.327 23.1689 64.327 23.3144C64.327 23.5157 64.2715 23.6721 64.1593 23.7832C64.0365 23.9067 63.8801 23.9622 63.6792 23.9622C63.5337 23.9622 63.411 23.9286 63.3101 23.85C63.2085 23.7832 63.1194 23.6717 63.0638 23.5376Z" fill="black"/>
</svg>
