<svg width="48" height="48" viewBox="0 0 48 48" fill="none" xmlns="http://www.w3.org/2000/svg">
<g clip-path="url(#clip0)">
<path d="M41.3875 16.6482H4.84167C3.93941 16.6482 3.20807 17.3795 3.20807 18.2818V22.67H43.0211V18.2818C43.0211 17.3795 42.2897 16.6482 41.3875 16.6482Z" fill="#FFB125"/>
<path d="M28.1195 7.57593L24.81 41.0802C24.7268 41.9218 23.9772 42.5367 23.1356 42.4535L6.36641 40.7971C5.52482 40.7139 4.90991 39.9643 4.99307 39.1227L8.30263 5.61843C8.38579 4.77683 9.13542 4.16192 9.97701 4.24508L26.7462 5.90155C27.5878 5.98471 28.2027 6.73434 28.1195 7.57593Z" fill="#B6FA4C"/>
<path d="M26.7462 5.90155L9.97702 4.24508C9.13543 4.16192 8.38571 4.77683 8.30264 5.61843L8.00574 8.62434C8.25727 8.49656 8.54639 8.43543 8.84808 8.46525L25.6173 10.1217C26.4589 10.2049 27.0738 10.9545 26.9906 11.7961L23.9779 42.2944C24.4283 42.0656 24.7567 41.6202 24.8101 41.0802L28.1196 7.57603C28.2027 6.73434 27.5878 5.98471 26.7462 5.90155Z" fill="#A8E83A"/>
<path d="M10.08 10.3693L7.66556 34.8114C7.63096 35.1613 7.79577 35.5023 8.09409 35.6882C8.91628 36.2007 9.55284 36.9698 9.90272 37.8726C10.0284 38.197 10.3289 38.4208 10.6751 38.455L19.3682 39.3138C19.7145 39.348 20.0529 39.1873 20.2397 38.8937C20.7595 38.0768 21.5342 37.4472 22.4408 37.1054C22.7697 36.9814 22.998 36.6792 23.0325 36.3294L25.447 11.8873C25.4816 11.5374 25.3167 11.1964 25.0184 11.0105C24.1962 10.498 23.5597 9.72896 23.2098 8.82614C23.0841 8.50167 22.7836 8.27789 22.4374 8.24367L13.7443 7.38492C13.398 7.3507 13.0597 7.51139 12.8728 7.80501C12.3531 8.62195 11.5783 9.25149 10.6717 9.5933C10.3428 9.71733 10.1145 10.0194 10.08 10.3693Z" fill="#77DD00"/>
<path d="M25.0185 11.0105C24.1963 10.498 23.5597 9.72896 23.2098 8.82614C23.0841 8.50167 22.7837 8.27789 22.4374 8.24367L13.7444 7.38492C13.398 7.3507 13.0597 7.51139 12.8729 7.80501C12.3531 8.62195 11.5783 9.25149 10.6718 9.5933C10.3428 9.71733 10.1146 10.0195 10.08 10.3693L9.98816 11.2997L21.252 12.3777C21.5983 12.4119 21.8986 12.6357 22.0244 12.9601C22.3742 13.863 23.0108 14.6319 23.833 15.1445C24.1313 15.3305 24.296 15.6715 24.2615 16.0213L22.1675 37.2199C22.2573 37.179 22.3482 37.1404 22.4409 37.1054C22.7699 36.9814 22.9982 36.6792 23.0327 36.3294L25.4471 11.8873C25.4815 11.5375 25.3168 11.1965 25.0185 11.0105Z" fill="#73CC00"/>
<path d="M42.3381 12.5678L23.3786 40.3891C22.9023 41.088 21.9497 41.2684 21.2508 40.7921L7.32602 31.3027C6.62711 30.8265 6.44673 29.8739 6.92298 29.175L25.8825 1.35367C26.3587 0.654758 27.3113 0.474382 28.0102 0.950633L41.935 10.44C42.6338 10.9163 42.8143 11.8689 42.3381 12.5678Z" fill="#B6FA4C"/>
<path d="M41.935 10.4401L28.0102 0.950608C27.3112 0.474357 26.3587 0.654827 25.8824 1.35364L24.2607 3.73349C24.4014 3.77755 24.5382 3.84233 24.6665 3.92961L38.5913 13.419C39.2902 13.8953 39.4705 14.8479 38.9943 15.5468L21.6566 40.9883C22.2832 41.1843 22.9897 40.9597 23.3786 40.3891L42.3381 12.5678C42.8143 11.8689 42.6339 10.9163 41.935 10.4401Z" fill="#A8E83A"/>
<path d="M25.166 6.37522L11.3346 26.6716C11.1366 26.9621 11.1178 27.3403 11.2905 27.6465C11.7666 28.4903 11.9568 29.4704 11.8313 30.4304C11.7862 30.7754 11.9426 31.1158 12.2301 31.3118L19.4487 36.2311C19.7362 36.427 20.1103 36.4481 20.4149 36.2799C21.2624 35.8119 22.2442 35.6306 23.2036 35.7651C23.5518 35.8138 23.8969 35.658 24.0949 35.3675L37.9264 15.0711C38.1244 14.7806 38.1431 14.4024 37.9704 14.0962C37.4944 13.2524 37.3041 12.2723 37.4297 11.3123C37.4748 10.9673 37.3184 10.6269 37.0309 10.4309L29.8123 5.51159C29.5247 5.31565 29.1507 5.29456 28.8461 5.46275C27.9985 5.93075 27.0167 6.11206 26.0573 5.97762C25.7091 5.92887 25.3639 6.08469 25.166 6.37522Z" fill="#77DD00"/>
<path d="M37.9704 14.0962C37.4944 13.2524 37.3041 12.2724 37.4297 11.3123C37.4748 10.9673 37.3184 10.6269 37.0309 10.4309L29.8123 5.51159C29.5248 5.31565 29.1507 5.29456 28.8461 5.46275C27.9985 5.93075 27.0168 6.11206 26.0573 5.97762C25.7091 5.92887 25.364 6.08469 25.166 6.37522L24.5896 7.22113L33.6111 13.3023C33.8987 13.4983 34.0551 13.8387 34.0099 14.1838C33.8844 15.1439 34.0746 16.1238 34.5507 16.9677C34.7234 17.2739 34.7046 17.6521 34.5066 17.9426L22.3871 35.727C22.6588 35.7151 22.9321 35.7269 23.2037 35.765C23.5519 35.8137 23.897 35.6579 24.095 35.3675L37.9264 15.0711C38.1244 14.7806 38.1432 14.4024 37.9704 14.0962Z" fill="#73CC00"/>
<path d="M26.7488 23.9447C29.4846 23.9447 31.7024 21.7269 31.7024 18.991C31.7024 16.2552 29.4846 14.0374 26.7488 14.0374C24.0129 14.0374 21.7951 16.2552 21.7951 18.991C21.7951 21.7269 24.0129 23.9447 26.7488 23.9447Z" fill="#B6FA4C"/>
<path d="M41.9534 47.3161H3.79082C2.48966 47.3161 1.43488 46.2614 1.43488 44.9602V21.645C1.43488 20.3438 2.48966 19.2891 3.79082 19.2891H41.9534C43.2546 19.2891 44.3094 20.3438 44.3094 21.645V44.9602C44.3095 46.2613 43.2546 47.3161 41.9534 47.3161Z" fill="#F87F27"/>
<path d="M41.9534 19.2891H37.6674C38.9685 19.2891 40.0233 20.3438 40.0233 21.6451V44.9603C40.0233 46.2615 38.9685 47.3163 37.6674 47.3163H41.9534C43.2546 47.3163 44.3094 46.2615 44.3094 44.9603V21.6451C44.3095 20.3438 43.2546 19.2891 41.9534 19.2891Z" fill="#F87F27"/>
<path d="M45.7118 28.7991H37.1224C34.6352 28.7991 32.6189 30.8154 32.6189 33.3026C32.6189 35.7897 34.6352 37.806 37.1224 37.806H45.7118C46.1832 37.806 46.5654 37.4238 46.5654 36.9524V29.6526C46.5654 29.1813 46.1831 28.7991 45.7118 28.7991Z" fill="#F87F27"/>
<path d="M41.9534 19.2891H3.79082C2.48966 19.2891 1.43488 20.3438 1.43488 21.645V24.2268H44.3095V21.645C44.3095 20.3438 43.2546 19.2891 41.9534 19.2891Z" fill="#F87F27"/>
<path d="M3.79079 47.3161H41.9534C43.2546 47.3161 44.3093 46.2614 44.3093 44.9602V42.3784H1.43475V44.9602C1.43475 46.2613 2.48963 47.3161 3.79079 47.3161Z" fill="#F87F27"/>
<path d="M37.2826 35.3939C38.4374 35.3939 39.3736 34.4578 39.3736 33.3029C39.3736 32.1481 38.4374 31.2119 37.2826 31.2119C36.1278 31.2119 35.1916 32.1481 35.1916 33.3029C35.1916 34.4578 36.1278 35.3939 37.2826 35.3939Z" fill="#F2F2F2"/>
<path d="M45.7116 28.1151H44.9933V24.2268V21.645C44.9933 20.6207 44.4835 19.7138 43.7049 19.1627V18.2817C43.7049 17.0038 42.6653 15.9642 41.3874 15.9642H40.8511L42.9032 12.953C43.591 11.9437 43.3294 10.5628 42.3201 9.87487L28.3953 0.385383C27.9064 0.0521012 27.3171 -0.070899 26.7355 0.039445C26.1541 0.149601 25.6504 0.479508 25.3172 0.968509L13.2984 18.6051H9.95381L10.7607 10.4366C10.7698 10.3446 10.8296 10.2648 10.9131 10.2334C11.9527 9.8414 12.8536 9.1094 13.4499 8.17227C13.4968 8.09849 13.5854 8.0563 13.6771 8.06559L18.9229 8.58384C19.299 8.62031 19.6336 8.34637 19.6707 7.97043C19.7079 7.59449 19.4333 7.25971 19.0573 7.22258L13.8115 6.70433C13.2026 6.64471 12.6219 6.9253 12.2957 7.43793C11.8573 8.12699 11.1949 8.66512 10.4305 8.95331C9.85519 9.17024 9.46012 9.687 9.39937 10.3021L8.57925 18.605H7.70709L8.98322 5.68583C9.02915 5.22083 9.44419 4.8792 9.90975 4.9258L20.5105 5.97299C20.8864 6.00927 21.2212 5.73552 21.2583 5.35958C21.2954 4.98364 21.0208 4.64886 20.6449 4.61174L10.0442 3.56455C8.82881 3.44464 7.74196 4.33573 7.62187 5.5513L6.59324 15.9641H4.84152C3.56371 15.9641 2.52402 17.0037 2.52402 18.2816V18.8826C1.47861 19.3639 0.750732 20.4206 0.750732 21.6449V24.2267V42.3783V44.96C0.750732 46.6363 2.11442 48 3.79077 48H41.9534C43.6296 48 44.9933 46.6363 44.9933 44.96V42.3783V38.4901H45.7116C46.5595 38.4901 47.2492 37.8003 47.2492 36.9525V29.6527C47.2493 28.8048 46.5595 28.1151 45.7116 28.1151ZM41.3874 17.332C41.9111 17.332 42.337 17.758 42.337 18.2817V18.6302C42.2112 18.6143 42.0834 18.6052 41.9534 18.6052H39.0513L39.9188 17.3321H41.3874V17.332ZM26.4476 1.73876C26.5751 1.55173 26.7677 1.42554 26.9901 1.38335C27.0433 1.37332 27.0966 1.36826 27.1496 1.36826C27.318 1.36826 27.4827 1.4187 27.625 1.51564L41.5498 11.005C41.9358 11.2682 42.036 11.7964 41.7729 12.1824L37.3961 18.6049H36.3457L38.4916 15.4561C38.8396 14.9454 38.8682 14.2956 38.5662 13.76C38.1647 13.0484 38.002 12.2106 38.1079 11.4007C38.1867 10.7981 37.9216 10.2099 37.4161 9.8655L30.1975 4.94624C29.6919 4.6017 29.0474 4.57011 28.5155 4.86383C27.8007 5.25852 26.9613 5.41349 26.1523 5.30024C25.5523 5.21605 24.9437 5.48699 24.6009 5.98996L16.0041 18.605H14.9537L26.4476 1.73876ZM26.7488 13.3536C23.7702 13.3536 21.3252 15.676 21.126 18.605H17.6592L25.731 6.7603C25.7311 6.7603 25.7311 6.7603 25.7311 6.7603C25.777 6.6929 25.853 6.65277 25.9311 6.65277C25.9415 6.65277 25.9519 6.65352 25.9623 6.65493C27.0628 6.80887 28.2042 6.5983 29.1765 6.06139C29.253 6.01902 29.3513 6.02511 29.427 6.07668L36.6457 10.996C36.7213 11.0476 36.7628 11.1368 36.7516 11.2235C36.6075 12.3249 36.8289 13.4644 37.3748 14.4321C37.4186 14.5098 37.4132 14.6093 37.3613 14.6858L34.6906 18.6049H32.3718C32.1724 15.676 29.7275 13.3536 26.7488 13.3536ZM31.0002 18.6051H22.4975C22.6934 16.4311 24.5247 14.7216 26.7488 14.7216C28.9729 14.7215 30.8043 16.4311 31.0002 18.6051ZM3.89193 18.2816C3.89193 17.7579 4.31783 17.3319 4.84152 17.3319H6.45815L6.33243 18.605H3.89193V18.2816ZM2.11864 21.6449C2.11864 20.723 2.86874 19.9729 3.79077 19.9729H41.9534C42.8754 19.9729 43.6254 20.723 43.6254 21.6449V23.5428H2.11864V21.6449ZM43.6254 41.6944H10.1864C9.80859 41.6944 9.5025 42.0006 9.5025 42.3783C9.5025 42.7561 9.80869 43.0622 10.1864 43.0622H43.6254V44.9601C43.6254 45.8821 42.8754 46.6322 41.9534 46.6322H3.79077C2.86874 46.6322 2.11864 45.8821 2.11864 44.9601V43.0622H5.80696C6.18477 43.0622 6.49087 42.7561 6.49087 42.3783C6.49087 42.0006 6.18468 41.6944 5.80696 41.6944H2.11864V24.9107H43.6254V28.1151H37.1223H37.1222C35.0732 28.1151 33.2984 29.3095 32.456 31.0383C32.4532 31.0441 32.45 31.0498 32.4471 31.0556C32.44 31.0703 32.4338 31.0856 32.4269 31.1004C32.3265 31.3135 32.2394 31.5341 32.1684 31.7617C32.1682 31.7624 32.168 31.7629 32.1678 31.7636C32.0164 32.25 31.9348 32.7669 31.9348 33.3026C31.9348 36.163 34.2618 38.4901 37.1221 38.4901H37.1222H43.6253V41.6944H43.6254ZM45.8814 36.9525C45.8814 37.046 45.8053 37.1221 45.7116 37.1221H44.3093H37.1223C35.6744 37.1221 34.4119 36.3122 33.7644 35.1217C33.735 35.0676 33.7068 35.0127 33.6799 34.9571C33.6262 34.8458 33.5777 34.7315 33.5349 34.6145C33.3847 34.2052 33.3028 33.7633 33.3028 33.3026C33.3028 32.8419 33.3848 32.3999 33.5349 31.9906C33.5778 31.8737 33.6263 31.7594 33.6799 31.6481C33.7068 31.5925 33.735 31.5375 33.7644 31.4834C34.4119 30.2929 35.6744 29.483 37.1223 29.483H44.3093H45.7116C45.8052 29.483 45.8814 29.5591 45.8814 29.6527V36.9525Z" fill="#333333"/>
<path d="M37.2827 30.5276C35.7525 30.5276 34.5077 31.7725 34.5077 33.3026C34.5077 34.8327 35.7525 36.0775 37.2827 36.0775C38.8129 36.0775 40.0577 34.8327 40.0577 33.3026C40.0577 31.7725 38.8129 30.5276 37.2827 30.5276ZM37.2827 34.7096C36.5068 34.7096 35.8756 34.0784 35.8756 33.3026C35.8756 32.5268 36.5068 31.8955 37.2827 31.8955C38.0586 31.8955 38.6898 32.5267 38.6898 33.3026C38.6898 34.0785 38.0586 34.7096 37.2827 34.7096Z" fill="#333333"/>
</g>
<defs>
<clipPath id="clip0">
<rect width="48" height="48" fill="white"/>
</clipPath>
</defs>
</svg>
