<svg width="20" height="19" viewBox="0 0 20 19" fill="none" xmlns="http://www.w3.org/2000/svg">
<path fill-rule="evenodd" clip-rule="evenodd" d="M5 0C4.44772 0 4 0.447715 4 1V2H3C1.34315 2 0 3.34315 0 5V16C0 17.6569 1.34315 19 3 19H17C18.6569 19 20 17.6569 20 16V5C20 3.34315 18.6569 2 17 2H16V1C16 0.447715 15.5523 0 15 0C14.4477 0 14 0.447715 14 1V2H6V1C6 0.447715 5.55228 0 5 0ZM14 4V3.75H6V4C6 4.55228 5.55228 5 5 5C4.44772 5 4 4.55228 4 4V3.75H3C2.30964 3.75 1.75 4.30964 1.75 5V7H18.25V5C18.25 4.30964 17.6904 3.75 17 3.75H16V4C16 4.55228 15.5523 5 15 5C14.4477 5 14 4.55228 14 4ZM18.25 8.75H1.75V16C1.75 16.6904 2.30964 17.25 3 17.25H17C17.6904 17.25 18.25 16.6904 18.25 16V8.75Z" fill="white"/>
</svg>
