<svg width="72" height="72" viewBox="0 0 72 72" fill="none" xmlns="http://www.w3.org/2000/svg">
<path d="M67.0022 8.82031H56.0553C53.8991 8.82031 52.1511 10.5682 52.1511 12.7246V17.4149C52.1511 19.2623 53.4343 20.81 55.1579 21.2155C55.6856 21.3396 56.0522 21.8203 56.0522 22.3625V25.7924C56.0522 26.1367 56.4927 26.2798 56.6952 26.0015L59.7461 21.8065C59.9687 21.5004 60.3244 21.3191 60.7031 21.3191H67.0021C69.1583 21.3191 70.9064 19.5712 70.9064 17.4149V12.7245C70.9064 10.5682 69.1584 8.82031 67.0022 8.82031V8.82031Z" fill="#D5B0EC"/>
<path d="M55.5842 21.4165C55.8725 21.6346 56.0522 21.9833 56.0522 22.3624V25.7923C56.0522 26.1366 56.4927 26.2798 56.6951 26.0014L59.746 21.8065C59.9687 21.5003 60.3244 21.3191 60.7031 21.3191H55.655L55.5842 21.4165Z" fill="#C995E4"/>
<path d="M67.0022 8.82031H64.2514C65.4717 8.82031 66.4609 9.8095 66.4609 11.0298V19.1097C66.4609 20.33 65.4717 21.3191 64.2514 21.3191H67.0022C69.1584 21.3191 70.9065 19.5712 70.9065 17.4149V12.7245C70.9064 10.5682 69.1584 8.82031 67.0022 8.82031V8.82031Z" fill="#C995E4"/>
<path d="M50.0456 44.1127C47.8359 43.1015 43.6586 42.4497 41.6023 42.1755C40.9128 42.0836 40.3966 41.4808 40.3966 40.7663V34.2668H30.7337V40.7663C30.7337 41.4809 30.2175 42.0837 29.528 42.1755C27.4717 42.4497 23.2944 43.1016 21.0847 44.1127C18.6575 45.2234 17.0936 47.6982 17.0936 50.4288V61.4946C17.0936 62.4252 17.8278 63.1797 18.7333 63.1797H52.397C53.3027 63.1797 54.0367 62.4252 54.0367 61.4946V50.4288C54.0367 47.6981 52.4728 45.2234 50.0456 44.1127Z" fill="#FFECE3"/>
<path d="M50.0456 44.1127C47.8359 43.1015 43.6587 42.4497 41.6023 42.1755C40.9128 42.0836 40.3967 41.4809 40.3967 40.7663V34.2668H35.9511V43.3364C35.9511 44.051 36.4673 44.6536 37.1568 44.7456C39.2131 45.0198 43.3904 45.6717 45.6001 46.6828C48.0273 47.7935 49.5912 50.2683 49.5912 52.9988V63.1796H52.397C53.3026 63.1796 54.0367 62.4251 54.0367 61.4944V50.4288C54.0367 47.6981 52.4729 45.2234 50.0456 44.1127V44.1127Z" fill="#FFDDCE"/>
<path d="M50.0456 44.1127C47.8359 43.1016 43.6586 42.4498 41.6022 42.1756C41.6014 42.1755 41.6006 42.1753 41.5998 42.1752C41.5995 42.175 41.5993 42.175 41.599 42.175L41.5984 42.1756L35.5651 47.9986L35.5633 48.0053L35.5612 47.9986L29.5279 42.1756C27.4715 42.4498 23.2943 43.1017 21.0846 44.1127C18.6573 45.2234 17.0935 47.6983 17.0935 50.4288V61.4946C17.0935 62.4253 17.8276 63.1797 18.7331 63.1797H52.3969C53.3025 63.1797 54.0367 62.4253 54.0367 61.4946V50.4288C54.0367 47.6982 52.4728 45.2234 50.0456 44.1127Z" fill="#F87F27"/>
<path d="M24.1472 25.4599L24.1492 28.4636H46.984L46.983 25.4581C46.982 19.1523 41.8699 14.041 35.5641 14.041H35.5633C29.2572 14.041 24.1457 19.1539 24.1472 25.4599Z" fill="#FBBE66"/>
<path d="M39.1541 24.2913H46.9842V30.5997H39.1541V24.2913Z" fill="#8DB9C2"/>
<path d="M24.1472 24.2913H31.2777V30.5997H24.1472V24.2913Z" fill="#8DB9C2"/>
<path d="M41.0935 19.477C40.1727 18.6483 38.7703 18.7192 37.8934 19.5942C36.7521 20.7332 35.177 21.4376 33.437 21.4376H29.9248C28.9273 21.4376 27.2865 22.4167 27.2865 24.2914L27.2988 31.3347C27.2988 36.4584 33.0684 38.9445 35.5614 38.991C38.0544 38.9446 43.824 36.4584 43.824 31.3347L43.8363 24.2914C43.841 21.8418 42.7813 20.9957 41.0935 19.477V19.477Z" fill="#FFECE3"/>
<path d="M41.0935 19.4768C40.6051 19.0373 39.9813 18.8533 39.3723 18.9056L39.3625 31.3346C39.3625 35.2312 36.0256 37.602 33.3306 38.5346C34.1792 38.8283 34.9643 38.9798 35.5613 38.9908C38.0543 38.9444 43.8239 36.4582 43.8239 31.3346L43.8361 24.2913C43.841 21.8416 42.7812 20.9956 41.0935 19.4768V19.4768Z" fill="#FFDDCE"/>
<path d="M24.1479 30.5998L24.1472 25.4598C24.1469 22.3012 25.4206 19.3381 27.7253 17.1576C29.765 15.2279 32.4631 14.1159 35.27 14.0447C41.6997 13.8817 46.9824 19.0646 46.9828 25.4581L46.9832 30.5997C48.4999 30.5997 49.7294 29.3701 49.7293 27.8534L49.7291 25.401C49.7288 17.5914 43.3748 11.2378 35.565 11.2378C31.7815 11.2378 28.2245 12.7113 25.5491 15.3868C22.8738 18.0625 21.4006 21.6197 21.4009 25.4033L21.4013 27.8535C21.4015 29.3702 22.6312 30.5998 24.1479 30.5998V30.5998Z" fill="#A8D0D5"/>
<path d="M33.1104 35.9805H29.9026C29.0725 35.9805 28.3996 35.3076 28.3996 34.4775C28.3996 33.6475 29.0725 32.9746 29.9026 32.9746H33.1104C33.9405 32.9746 34.6133 33.6475 34.6133 34.4775C34.6132 35.3076 33.9404 35.9805 33.1104 35.9805Z" fill="#7BA0B0"/>
<path d="M31.0817 48.6603L35.5614 47.9995L29.528 42.1765C28.6713 42.2908 27.4461 42.4708 26.1487 42.7149L28.7741 47.5118C29.2272 48.3397 30.148 48.798 31.0817 48.6603V48.6603Z" fill="#F87F27"/>
<path d="M44.9783 42.7133C43.6822 42.4696 42.4584 42.2898 41.6023 42.1756C41.6012 42.1755 41.6001 42.1752 41.599 42.175L41.5984 42.1756L35.5651 47.9986L40.0448 48.6593C40.9785 48.7971 41.8992 48.3389 42.3524 47.5109L44.9783 42.7133Z" fill="#F87F27"/>
<path d="M45.1598 56.3865H40.4337C40.1498 56.3865 39.9196 56.1564 39.9196 55.8724V53.9457C39.9196 53.6618 40.1498 53.4316 40.4337 53.4316H45.1598C45.4437 53.4316 45.6739 53.6618 45.6739 53.9457V55.8724C45.6739 56.1564 45.4437 56.3865 45.1598 56.3865Z" fill="white"/>
<path d="M66.5711 12.417H56.7914C56.3384 12.417 55.9711 12.7843 55.9711 13.2373C55.9711 13.6903 56.3384 14.0576 56.7914 14.0576H66.5711C67.0241 14.0576 67.3914 13.6903 67.3914 13.2373C67.3914 12.7843 67.0241 12.417 66.5711 12.417Z" fill="#333333"/>
<path d="M66.5711 16.0691H56.7914C56.3384 16.0691 55.9711 16.4364 55.9711 16.8894C55.9711 17.3424 56.3384 17.7097 56.7914 17.7097H66.5711C67.0241 17.7097 67.3914 17.3424 67.3914 16.8894C67.3914 16.4364 67.0241 16.0691 66.5711 16.0691Z" fill="#333333"/>
<path d="M67.0022 8.00011H61.3641C60.9111 8.00011 60.5438 8.36739 60.5438 8.82042C60.5438 9.27345 60.9111 9.64073 61.3641 9.64073H67.0022C68.7026 9.64073 70.0861 11.0242 70.0861 12.7247V17.415C70.0861 19.1155 68.7026 20.499 67.0022 20.499H60.7032C60.0643 20.499 59.4586 20.8075 59.0828 21.3242L56.8725 24.3632V22.3626C56.8725 21.4285 56.2447 20.6284 55.3457 20.4171C53.9477 20.0882 52.9713 18.8538 52.9713 17.415V12.7246C52.9713 11.0241 54.3548 9.64063 56.0553 9.64063H57.5294C57.9825 9.64063 58.3497 9.27334 58.3497 8.82031C58.3497 8.36728 57.9825 8 57.5294 8H56.0553C53.4502 8 51.3308 10.1194 51.3308 12.7245V17.4148C51.3308 19.6186 52.8274 21.5098 54.9702 22.0138C55.1219 22.0494 55.232 22.196 55.232 22.3624V25.7923C55.232 26.9283 56.6904 27.4026 57.3586 26.4837L60.4095 22.2888C60.4776 22.1951 60.5873 22.1392 60.7032 22.1392H67.0022C69.6073 22.1392 71.7266 20.0198 71.7266 17.4147V12.7246C71.7266 10.1195 69.6073 8.00011 67.0022 8.00011V8.00011Z" fill="#333333"/>
<path d="M45.1598 52.6116H40.4337C39.698 52.6116 39.0995 53.2101 39.0995 53.9458V55.8727C39.0995 56.6085 39.6981 57.207 40.4337 57.207H45.1598C45.8956 57.207 46.4941 56.6085 46.4941 55.8727V53.9458C46.4941 53.2101 45.8955 52.6116 45.1598 52.6116ZM44.8536 55.5663H40.74V54.2521H44.8536V55.5663Z" fill="#333333"/>
<path d="M50.3868 43.3669C48.116 42.3279 43.9866 41.6664 41.7204 41.3639C41.7186 41.3636 41.7167 41.3632 41.7149 41.363C41.7139 41.3629 41.7129 41.3629 41.712 41.3628C41.7115 41.3626 41.7111 41.3626 41.7106 41.3625C41.4291 41.325 41.2168 41.0688 41.2168 40.7664V37.6514C42.7918 36.4832 44.6095 34.4746 44.6425 31.4201H46.9832C48.9543 31.4201 50.5496 29.8249 50.5495 27.8535L50.5492 25.4011C50.549 17.1393 43.827 10.4177 35.565 10.4177C27.283 10.4177 20.5799 17.1207 20.5807 25.4035L20.581 27.8537C20.5813 29.5377 21.7551 30.9511 23.327 31.3229V32.893C23.327 34.1884 24.3809 35.2425 25.6765 35.2425H27.6144C28.272 36.2763 29.1237 37.0725 29.9135 37.6572V40.7667C29.9135 41.069 29.7012 41.3252 29.4197 41.3628C27.1556 41.6647 23.0176 42.3266 20.7436 43.3672C18.0281 44.6097 16.2734 47.3817 16.2734 50.4292V53.0624C16.2734 53.5154 16.6407 53.8827 17.0937 53.8827C17.5468 53.8827 17.914 53.5154 17.914 53.0624V50.4292C17.914 48.0216 19.2926 45.8352 21.4262 44.8589C22.5127 44.3617 24.1431 43.9505 25.7175 43.6346L28.0547 47.9049C28.5977 48.8969 29.6468 49.5036 30.7572 49.5036C31.1485 49.5036 31.0785 49.4785 34.7451 48.9485V62.3597H23.5799V58.6542C23.5799 58.2011 23.2126 57.8339 22.7596 57.8339C22.3065 57.8339 21.9393 58.2011 21.9393 58.6542V62.3597H18.7333C18.2814 62.3597 17.9138 61.9717 17.9138 61.4949V56.9175C17.9138 56.4645 17.5465 56.0972 17.0935 56.0972C16.6405 56.0972 16.2732 56.4645 16.2732 56.9175V61.4949C16.2733 62.8762 17.3768 64.0001 18.7333 64.0001H52.397C53.7535 64.0001 54.857 62.8762 54.857 61.4948V50.429C54.857 47.3816 53.1023 44.6094 50.3868 43.3669V43.3669ZM41.8823 43.0418C42.3832 43.1117 43.0142 43.2054 43.7099 43.3222L41.6329 47.1173C41.3459 47.6415 40.7561 47.9355 40.1645 47.848L37.335 47.4308L41.8823 43.0418ZM44.617 23.4712C44.3942 21.2765 43.2471 20.3085 41.6422 18.8673C40.4092 17.7579 38.5081 17.8222 37.314 19.0137C36.2777 20.0479 34.9007 20.6175 33.437 20.6175H29.9247C28.6843 20.6175 26.9581 21.6252 26.5537 23.4713H25.1521C26.0542 18.6716 30.2316 14.9932 35.2909 14.8649C40.6671 14.7285 45.0525 18.5815 45.9767 23.4713H44.617V23.4712ZM24.9736 25.1117H26.4676L26.4757 29.7796H24.9681C24.9699 25.2541 24.9621 25.4772 24.9736 25.1117ZM46.163 29.7796H44.6469L44.655 25.1117H46.1563C46.168 25.4764 46.1601 25.2512 46.163 29.7796ZM22.2216 27.8535L22.2212 25.4034C22.2205 18.0283 28.1888 12.0582 35.565 12.0582C42.9225 12.0582 48.9085 18.0439 48.9089 25.4013L48.9092 27.8537C48.9093 28.6265 48.455 29.2904 47.8035 29.5974L47.8032 25.4582C47.8028 18.5875 42.1367 13.0488 35.2493 13.2248C28.7401 13.3898 23.3263 18.6922 23.327 25.4601L23.3276 29.5961C22.6745 29.2874 22.2217 28.6224 22.2216 27.8535V27.8535ZM25.6764 33.6018C25.2855 33.6018 24.9674 33.2838 24.9674 32.8929V31.4201H26.48C26.4887 32.2177 26.6198 32.9433 26.8358 33.6018H25.6764ZM28.3085 32.7921C28.1864 32.3363 28.1189 31.8502 28.1189 31.3333L28.1067 24.2914C28.1067 22.9563 29.2902 22.2578 29.9247 22.2578H33.437C35.3383 22.2578 37.1267 21.518 38.4728 20.1747C39.0498 19.5989 39.9601 19.5604 40.5448 20.0865C42.1729 21.5474 43.02 22.2096 43.016 24.2899L43.0038 31.3346C43.0038 33.6867 41.6138 35.4011 39.976 36.525C39.9474 36.5421 39.92 36.5608 39.8938 36.5811C38.3299 37.6304 36.5591 38.147 35.5614 38.1704C34.636 38.1487 33.0458 37.7025 31.5722 36.8007H33.1104C34.3914 36.8007 35.4335 35.7586 35.4335 34.4776C35.4335 33.1966 34.3914 32.1545 33.1104 32.1545H29.9025C29.2853 32.1546 28.725 32.3982 28.3085 32.7921V32.7921ZM29.9025 35.1603C29.5223 35.1603 29.2199 34.8473 29.2199 34.4777C29.2199 34.1012 29.5262 33.7951 29.9025 33.7951H33.1104C33.4868 33.7951 33.793 34.1013 33.793 34.4777C33.793 34.8541 33.4867 35.1603 33.1104 35.1603H29.9025ZM30.9619 47.8479C30.3703 47.9355 29.7805 47.6414 29.4936 47.1172L27.4169 43.3228C28.1125 43.2061 28.7435 43.1122 29.2446 43.0422L33.7915 47.4307L30.9619 47.8479ZM30.8975 42.3575C31.3036 41.9483 31.5539 41.383 31.5539 40.7666V38.6678C33.0485 39.4271 34.5396 39.7925 35.546 39.8112C35.5511 39.8113 35.5562 39.8113 35.5614 39.8113C35.5664 39.8113 35.5715 39.8113 35.5767 39.8112C36.5848 39.7925 38.0793 39.4261 39.5765 38.664V40.7666C39.5765 41.382 39.826 41.9466 40.231 42.3557L35.5633 46.8607L30.8975 42.3575ZM53.2165 61.4948C53.2165 61.9716 52.8488 62.3596 52.397 62.3596H49.1909V58.6541C49.1909 58.201 48.8236 57.8338 48.3706 57.8338C47.9176 57.8338 47.5503 58.201 47.5503 58.6541V62.3596H36.3853V48.9489C40.0467 49.4782 39.978 49.5035 40.3694 49.5035C41.4796 49.5035 42.5289 48.8967 43.0718 47.9048L45.4094 43.6337C46.9849 43.9496 48.6168 44.3612 49.7041 44.8587C51.8377 45.835 53.2162 48.0214 53.2162 50.429V61.4948H53.2165Z" fill="#333333"/>
</svg>
