<svg width="36" height="36" viewBox="0 0 36 36" fill="none" xmlns="http://www.w3.org/2000/svg">
<path fill-rule="evenodd" clip-rule="evenodd" d="M28.8999 8.55583V0.703125H6.67773V8.55583V17.9352L10.8073 21.6842C11.8695 18.8601 14.594 16.851 17.7888 16.851C20.9836 16.851 23.7081 18.8601 24.7703 21.6842L28.8999 17.9352V8.55583Z" fill="white"/>
<path fill-rule="evenodd" clip-rule="evenodd" d="M6.68181 17.9351V8.55573L1.21094 12.9723L6.68181 17.9351Z" fill="#CDC0C4"/>
<path fill-rule="evenodd" clip-rule="evenodd" d="M34.3713 12.9723L28.9004 8.55573V17.9351L34.3713 12.9723Z" fill="#CDC0C4"/>
<path fill-rule="evenodd" clip-rule="evenodd" d="M10.3314 24.309C10.3314 23.3843 10.5008 22.4993 10.8077 21.6841L6.67814 17.9351L1.20734 12.9724C0.896414 13.2694 0.703125 13.6879 0.703125 14.1503V33.6604C0.703125 34.1228 0.896414 34.5394 1.20734 34.8383L10.6044 26.3119C10.4271 25.6743 10.3314 25.0026 10.3314 24.309Z" fill="#FFDA8F"/>
<path fill-rule="evenodd" clip-rule="evenodd" d="M24.9777 26.3121C24.1027 29.4572 21.2169 31.7651 17.7929 31.7651C14.3689 31.7651 11.483 29.4571 10.6081 26.3121L1.21094 34.8384C1.5059 35.1214 1.9045 35.2948 2.341 35.2968H33.2427C33.6812 35.2968 34.0798 35.1215 34.3747 34.8384L24.9777 26.3121Z" fill="#FFDA8F"/>
<path fill-rule="evenodd" clip-rule="evenodd" d="M34.8819 33.6605V14.1503C34.8819 13.688 34.6886 13.2694 34.3777 12.9725L28.9069 17.9352L24.7773 21.6842C25.0843 22.4993 25.2517 23.3843 25.2517 24.3091C25.2517 25.0027 25.158 25.6744 24.9806 26.3122L34.3777 34.8384C34.6885 34.5415 34.8819 34.1229 34.8819 33.6605Z" fill="#FFDA8F"/>
<path d="M24.5407 24.3091C24.5407 28.0327 21.5114 31.0621 17.7879 31.0621C14.0633 31.0621 11.0332 28.0327 11.0332 24.3091C11.0332 20.5845 14.0634 17.5542 17.7879 17.5542C21.5114 17.5542 24.5407 20.5845 24.5407 24.3091Z" fill="#B8ECBC"/>
<path d="M17.9332 19.815C15.1908 19.815 13.291 21.6626 13.291 24.3258C13.291 26.9999 15.2016 28.815 18.0191 28.815C18.4806 28.815 18.9368 28.7664 19.2964 28.68V27.632C19.0388 27.7022 18.5987 27.7508 18.1694 27.7508C15.9046 27.7508 14.5039 26.4489 14.5039 24.3474C14.5039 22.2622 15.8831 20.8522 17.9332 20.8522C19.8599 20.8522 21.0781 22.0731 21.0781 24.0395C21.0781 24.9417 20.8205 25.5035 20.4073 25.5035C20.1443 25.5035 19.9887 25.2766 19.9887 24.8877V22.2784H18.6255V22.9105H18.5182C18.3035 22.4189 17.8527 22.1434 17.2678 22.1434C16.2212 22.1434 15.5236 23.0185 15.5236 24.3312C15.5236 25.698 16.2588 26.6001 17.3751 26.6001C17.9869 26.6001 18.3894 26.3354 18.6041 25.7952H18.7114C18.8831 26.303 19.3769 26.5839 20.0907 26.5839C21.4538 26.5839 22.291 25.5467 22.291 23.8667C22.291 21.4411 20.5254 19.815 17.9332 19.815ZM17.7722 23.3643C18.1855 23.3643 18.4377 23.7424 18.4377 24.3745C18.4377 25.0011 18.1908 25.3739 17.7722 25.3739C17.3483 25.3739 17.1014 25.0011 17.1014 24.3745C17.1014 23.7424 17.3536 23.3643 17.7722 23.3643Z" fill="black"/>
<path d="M34.8569 12.464C34.8539 12.4612 34.8507 12.4587 34.8477 12.456C34.8414 12.4502 34.8348 12.4446 34.8284 12.439C34.8232 12.4345 34.8183 12.4297 34.8129 12.4254L29.6035 8.21988V0.703125C29.6035 0.314789 29.2887 0 28.9004 0H6.67821C6.28987 0 5.97508 0.314789 5.97508 0.703125V8.21981L0.765703 12.4254C0.76057 12.4296 0.755859 12.4342 0.750797 12.4385C0.743906 12.4444 0.737086 12.4502 0.730336 12.4564C0.727523 12.459 0.72443 12.4613 0.721687 12.464C0.263039 12.9021 0 13.5168 0 14.1504V18.7344C0 19.1228 0.314789 19.4375 0.703125 19.4375C1.09146 19.4375 1.40625 19.1228 1.40625 18.7344V14.1504C1.40625 14.1349 1.40773 14.1198 1.4085 14.1045L9.99302 21.8943C9.75607 22.6578 9.62831 23.4688 9.62831 24.3091C9.62831 24.9142 9.69511 25.504 9.82069 26.0719L1.40857 33.7063C1.4078 33.6911 1.40625 33.676 1.40625 33.6606V25.0504C1.40625 24.6621 1.09146 24.3473 0.703125 24.3473C0.314789 24.3473 0 24.6621 0 25.0504V33.6606C0 34.9477 1.04787 35.9971 2.3374 36H33.2391C34.5291 36 35.5785 34.9505 35.5785 33.6606V14.1504C35.5785 13.5167 35.3155 12.9021 34.8569 12.464ZM5.97508 16.3493L2.28811 13.0037L5.97508 10.0271V16.3493ZM29.6035 10.0271L33.2905 13.0037L29.6035 16.3493V10.0271ZM7.38133 17.6254V1.40625H28.1973V17.6255L25.0118 20.5161C23.6442 17.9212 20.9201 16.1479 17.7893 16.1479C14.6582 16.1479 11.9338 17.9207 10.5657 20.5151L7.38133 17.6254ZM24.542 24.3091C24.542 28.0327 21.5127 31.062 17.7893 31.062C14.0647 31.062 11.0346 28.0327 11.0346 24.3091C11.0346 20.5844 14.0647 17.5541 17.7893 17.5541C21.5127 17.5541 24.542 20.5844 24.542 24.3091ZM2.5233 34.5938L10.2959 27.5396C11.5501 30.4362 14.4366 32.4683 17.7893 32.4683C21.1416 32.4683 24.0277 30.4357 25.2813 27.5385L33.0553 34.5938H2.5233ZM34.1723 33.6606C34.1723 33.676 34.1707 33.691 34.17 33.7063L25.7562 26.0704C25.8816 25.5029 25.9483 24.9137 25.9483 24.3091C25.9483 23.4693 25.8206 22.6587 25.584 21.8957L34.17 14.1045C34.1707 14.1198 34.1722 14.1349 34.1722 14.1504V33.6606H34.1723Z" fill="black"/>
<path d="M15.5234 5.57385H24.9544C25.3427 5.57385 25.6575 5.25906 25.6575 4.87073C25.6575 4.48239 25.3427 4.1676 24.9544 4.1676H15.5234C15.1351 4.1676 14.8203 4.48239 14.8203 4.87073C14.8203 5.25906 15.1351 5.57385 15.5234 5.57385Z" fill="black"/>
<path d="M10.6211 5.57385H12.658C13.0463 5.57385 13.3611 5.25906 13.3611 4.87073C13.3611 4.48239 13.0463 4.1676 12.658 4.1676H10.6211C10.2328 4.1676 9.91797 4.48239 9.91797 4.87073C9.91797 5.25906 10.2328 5.57385 10.6211 5.57385Z" fill="black"/>
<path d="M24.951 8.33698H22.6113C22.2231 8.33698 21.9082 8.65176 21.9082 9.0401C21.9082 9.42844 22.2231 9.74323 22.6113 9.74323H24.951C25.3393 9.74323 25.6542 9.42844 25.6542 9.0401C25.6542 8.65176 25.3393 8.33698 24.951 8.33698Z" fill="black"/>
<path d="M10.6211 9.74323H19.7491C20.1374 9.74323 20.4523 9.42844 20.4523 9.0401C20.4523 8.65176 20.1374 8.33698 19.7491 8.33698H10.6211C10.2328 8.33698 9.91797 8.65176 9.91797 9.0401C9.91797 9.42844 10.2328 9.74323 10.6211 9.74323Z" fill="black"/>
<path d="M24.9595 12.5045H16.3477C15.9593 12.5045 15.6445 12.8193 15.6445 13.2076C15.6445 13.5959 15.9593 13.9107 16.3477 13.9107H24.9595C25.3477 13.9107 25.6626 13.5959 25.6626 13.2076C25.6626 12.8193 25.3477 12.5045 24.9595 12.5045Z" fill="black"/>
<path d="M13.4751 13.9107C13.8634 13.9107 14.1782 13.5959 14.1782 13.2076C14.1782 12.8193 13.8634 12.5045 13.4751 12.5045H10.6211C10.2328 12.5045 9.91797 12.8193 9.91797 13.2076C9.91797 13.5959 10.2328 13.9107 10.6211 13.9107H13.4751Z" fill="black"/>
<path d="M0.703125 22.5976C1.09146 22.5976 1.40625 22.2818 1.40625 21.8935C1.40625 21.5051 1.09146 21.1903 0.703125 21.1903C0.314789 21.1903 0 21.5051 0 21.8935V21.8954C0 22.2838 0.314789 22.5976 0.703125 22.5976Z" fill="black"/>
</svg>
