<svg width="40" height="30" viewBox="0 0 40 30" fill="none" xmlns="http://www.w3.org/2000/svg">
<path fill-rule="evenodd" clip-rule="evenodd" d="M4.38867 2.09797V4.81717V17.788C4.38867 18.5181 4.98543 19.1148 5.71345 19.1148H26.7565L32.1123 23.1607L34.7902 25.1826V19.1147H36.937C37.6649 19.1147 38.2639 18.5179 38.2639 17.7879V2.09797C38.2639 1.36786 37.6672 0.771179 36.937 0.771179H5.71338C4.98543 0.771179 4.38867 1.36794 4.38867 2.09797Z" fill="#B8ECBC"/>
<path fill-rule="evenodd" clip-rule="evenodd" d="M0.769531 6.14183V21.8341C0.769531 22.5642 1.36629 23.1608 2.09647 23.1608H4.24321V29.2288L12.2748 23.1608H32.5614L27.2056 19.1149H6.16251C5.43457 19.1149 4.83773 18.5181 4.83773 17.7881V4.8172H2.09647C1.36629 4.8172 0.769531 5.41396 0.769531 6.14183Z" fill="#A0C8FF"/>
<path d="M37.3877 0H6.16427C5.00853 0 4.06828 0.941183 4.06828 2.098V4.04599H2.09815C0.941182 4.04599 0 4.98617 0 6.1419V21.8341C0 22.991 0.941182 23.9321 2.09815 23.9321H3.47368V29.2288C3.47368 29.5214 3.63925 29.7888 3.90123 29.9192C4.01005 29.9733 4.12774 30 4.24481 30C4.40961 30 4.57334 29.9472 4.70977 29.8441L12.535 23.9321H32.3055L34.7762 25.7982C34.9127 25.9013 35.0763 25.9541 35.2411 25.9541C35.3582 25.9541 35.4759 25.9274 35.5847 25.8733C35.8466 25.7429 36.0122 25.4755 36.0122 25.1829V19.8861H37.3877C38.5446 19.8861 39.4859 18.945 39.4859 17.7881V2.098C39.4859 0.941183 38.5446 0 37.3877 0ZM37.9434 17.788C37.9434 18.0892 37.6889 18.3437 37.3877 18.3437H35.241C34.8151 18.3437 34.4698 18.689 34.4698 19.1149V23.6338L27.672 18.4995C27.5381 18.3983 27.3749 18.3437 27.2072 18.3437H18.4149C17.989 18.3437 17.6437 18.689 17.6437 19.1149C17.6437 19.5407 17.989 19.8861 18.4149 19.8861H26.9486L30.2633 22.3896H12.2764C12.1086 22.3896 11.9454 22.4444 11.8115 22.5455L5.01609 27.6795V23.1608C5.01609 22.7349 4.67075 22.3896 4.24488 22.3896H2.09815C1.79167 22.3896 1.54242 22.1404 1.54242 21.834V6.1419C1.54242 5.84183 1.79692 5.58841 2.09815 5.58841H4.06828V17.788C4.06828 18.9449 5.00846 19.8861 6.16427 19.8861H11.4895C11.9154 19.8861 12.2607 19.5407 12.2607 19.1149C12.2607 18.689 11.9154 18.3437 11.4895 18.3437H6.16427C5.86419 18.3437 5.61069 18.0892 5.61069 17.788V2.098C5.61069 1.79684 5.86419 1.54242 6.16427 1.54242H37.3877C37.6942 1.54242 37.9434 1.79159 37.9434 2.098V17.788Z" fill="black"/>
<path d="M15.9469 14.1496V5.64868H14.4329V9.18339H10.2973V5.64868H8.77734V14.1496H10.2973V10.4618H14.4329V14.1496H15.9469Z" fill="black"/>
<path d="M21.4375 12.2821C21.2784 12.8006 20.76 13.1423 20.0766 13.1423C19.1164 13.1423 18.5037 12.4707 18.5037 11.4692V11.3808H22.869V10.9036C22.869 9.00665 21.7615 7.7754 19.9882 7.7754C18.1855 7.7754 17.0427 9.07734 17.0427 11.0509C17.0427 13.0421 18.1738 14.2734 20.0472 14.2734C21.5258 14.2734 22.6216 13.4604 22.8101 12.2821H21.4375ZM19.9941 8.91239C20.8366 8.91239 21.4021 9.53096 21.4316 10.4146H18.5155C18.5744 9.54275 19.1694 8.91239 19.9941 8.91239Z" fill="black"/>
<path d="M23.8587 14.1496H25.3257V5.64868H23.8587V14.1496Z" fill="black"/>
<path d="M26.6158 14.1496H28.0827V5.64868H26.6158V14.1496Z" fill="black"/>
<path d="M32.0946 14.2734C33.9268 14.2734 35.1168 13.0539 35.1168 11.0273C35.1168 9.00665 33.915 7.7754 32.0946 7.7754C30.2742 7.7754 29.0724 9.01254 29.0724 11.0273C29.0724 13.0539 30.2625 14.2734 32.0946 14.2734ZM32.0946 13.1128C31.1638 13.1128 30.5629 12.3587 30.5629 11.0273C30.5629 9.70181 31.1697 8.94185 32.0946 8.94185C33.0254 8.94185 33.6263 9.70181 33.6263 11.0273C33.6263 12.3587 33.0254 13.1128 32.0946 13.1128Z" fill="black"/>
<path d="M14.9528 18.3436C14.527 18.3436 14.1816 18.689 14.1816 19.1148C14.1816 19.5407 14.527 19.886 14.9528 19.886H14.955C15.3809 19.886 15.7251 19.5407 15.7251 19.1148C15.7251 18.689 15.3787 18.3436 14.9528 18.3436Z" fill="black"/>
</svg>
