<svg width="19" height="24" viewBox="0 0 19 24" fill="none" xmlns="http://www.w3.org/2000/svg">
<path d="M17.998 19.5055C18.5116 20.2599 18.3181 21.3132 17.5662 21.8544L16.5276 22.5834L16.5113 22.5623C16.0855 22.794 15.6103 22.9655 15.1159 23.0648C14.6559 23.1562 14.2133 23.1855 13.7612 23.1569C13.5541 23.141 8.76361 22.7122 3.90798 15.6047C0.395327 10.4626 -0.633602 6.9653 0.358932 3.53528C0.479447 3.10694 0.656891 2.69018 0.901547 2.26443C1.16436 1.81825 1.48438 1.41878 1.84303 1.08763L1.82307 1.05864L2.85224 0.315067C3.60548 -0.225962 4.63763 -0.0525951 5.15182 0.699962L7.73917 4.48837C8.25321 5.24182 8.0605 6.29497 7.30726 6.836L6.70061 7.27218L5.46718 8.15644C5.50584 8.26569 5.54433 8.38031 5.58461 8.49926C5.96704 9.62244 6.48971 11.1608 7.67885 12.9014C8.86427 14.638 10.0938 15.6663 10.9923 16.4169C11.09 16.4994 11.183 16.5773 11.2729 16.6521L13.111 15.3325C13.8631 14.7923 14.8948 14.9655 15.4106 15.7174L17.998 19.5055Z" fill="white"/>
<path d="M17.998 19.5055C18.5116 20.2599 18.3181 21.3132 17.5662 21.8544L16.5391 22.5753C16.5327 22.5798 16.5238 22.5785 16.519 22.5723C16.5146 22.5665 16.5066 22.5648 16.5002 22.5683C16.0773 22.797 15.606 22.9664 15.1159 23.0648C14.6559 23.1562 14.2133 23.1855 13.7612 23.1569C13.5541 23.141 8.76361 22.7122 3.90798 15.6047C0.395327 10.4626 -0.633602 6.9653 0.358932 3.53528C0.479447 3.10694 0.656891 2.69018 0.901547 2.26443C1.16139 1.82328 1.47717 1.4278 1.8309 1.09887C1.83785 1.0924 1.83903 1.08183 1.83365 1.07401C1.82777 1.06546 1.82978 1.05379 1.83819 1.04771L2.85224 0.315067C3.60548 -0.225962 4.63763 -0.0525951 5.15182 0.699962L7.73917 4.48837C8.25321 5.24182 8.0605 6.29497 7.30726 6.836L6.70061 7.27218L5.76169 7.94531C5.58723 8.07037 5.51576 8.29595 5.58461 8.49926C5.96704 9.62244 6.48971 11.1608 7.67885 12.9014C8.86427 14.638 10.0938 15.6663 10.9923 16.4169C11.157 16.556 11.3952 16.5643 11.5704 16.4385L13.111 15.3325C13.8631 14.7923 14.8948 14.9655 15.4106 15.7174L17.998 19.5055Z" fill="white"/>
</svg>
