<svg width="22" height="22" viewBox="0 0 22 22" fill="none" xmlns="http://www.w3.org/2000/svg">
<rect width="22" height="22" fill="#F87F27"/>
<path d="M15.2617 14.7613C15.5089 15.1195 15.4157 15.6196 15.0539 15.8766L14.554 16.2227L14.5462 16.2127C14.3413 16.3227 14.1126 16.4042 13.8747 16.4513C13.6533 16.4947 13.4403 16.5086 13.2227 16.495C13.123 16.4875 10.8175 16.2838 8.48073 12.9092C6.79023 10.4677 6.29505 8.80716 6.77272 7.17857C6.83071 6.97519 6.91611 6.77731 7.03385 6.57516C7.16033 6.36331 7.31435 6.17365 7.48695 6.01641L7.47734 6.00265L7.97264 5.6496C8.33515 5.39271 8.83188 5.47503 9.07934 5.83235L10.3245 7.6311C10.5719 7.98884 10.4792 8.48888 10.1167 8.74576L9.82471 8.95287L9.23111 9.37272C9.24971 9.42459 9.26824 9.47901 9.28762 9.53549C9.47167 10.0688 9.72321 10.7992 10.2955 11.6256C10.866 12.4502 11.4577 12.9384 11.8901 13.2948C11.9371 13.334 11.9819 13.371 12.0252 13.4065L12.9098 12.7799C13.2717 12.5234 13.7682 12.6057 14.0165 12.9627L15.2617 14.7613Z" fill="white"/>
<path d="M15.2617 14.7613C15.5089 15.1195 15.4157 15.6196 15.0539 15.8766L14.5596 16.2189C14.5565 16.221 14.5522 16.2204 14.5499 16.2174C14.5478 16.2147 14.5439 16.2139 14.5409 16.2155C14.3373 16.3241 14.1105 16.4046 13.8747 16.4513C13.6533 16.4947 13.4403 16.5086 13.2227 16.495C13.123 16.4875 10.8175 16.2838 8.48073 12.9092C6.79023 10.4677 6.29505 8.80716 6.77272 7.17857C6.83071 6.97519 6.91611 6.77731 7.03385 6.57516C7.15891 6.3657 7.31088 6.17793 7.48111 6.02175C7.48446 6.01868 7.48503 6.01366 7.48244 6.00994C7.47961 6.00589 7.48058 6.00034 7.48462 5.99746L7.97264 5.6496C8.33515 5.39271 8.83188 5.47503 9.07934 5.83235L10.3245 7.6311C10.5719 7.98884 10.4792 8.48888 10.1167 8.74576L9.82471 8.95287L9.37284 9.27247C9.28889 9.33185 9.25449 9.43895 9.28762 9.53549C9.47167 10.0688 9.72321 10.7992 10.2955 11.6256C10.866 12.4502 11.4577 12.9384 11.8901 13.2948C11.9694 13.3609 12.084 13.3648 12.1683 13.3051L12.9098 12.7799C13.2717 12.5234 13.7682 12.6057 14.0165 12.9627L15.2617 14.7613Z" fill="white"/>
</svg>
