<svg width="36" height="36" viewBox="0 0 36 36" fill="none" xmlns="http://www.w3.org/2000/svg">
<path fill-rule="evenodd" clip-rule="evenodd" d="M35.296 15.3037C35.296 7.23984 28.7593 0.703003 20.6957 0.703003C14.7866 0.703003 9.69983 4.21206 7.40114 9.26035C7.77275 9.55885 8.15448 9.93658 8.5464 10.4037L11.5335 13.9797C12.1609 14.729 12.2239 15.8013 11.5335 16.4917L10.5811 17.4461L7.33203 20.6931C9.253 23.7189 12.2787 26.7467 15.3043 28.6677L18.5534 25.4186L19.5078 24.4642C20.1982 23.7738 21.2703 23.8387 22.0197 24.4642L25.5957 27.4534C26.0627 27.8453 26.4404 28.2271 26.7389 28.5987C31.787 26.2999 35.296 21.211 35.296 15.3037Z" fill="#B8ECBC"/>
<path fill-rule="evenodd" clip-rule="evenodd" d="M15.3033 28.6677C12.2777 26.7467 9.25206 23.7189 7.33102 20.6932L10.58 17.4461L11.5324 16.4917C12.2228 15.8013 12.1598 14.7291 11.5324 13.9797L8.54532 10.4037C8.1534 9.93658 7.77166 9.55886 7.40005 9.26036C5.04245 7.36372 3.13372 8.68769 2.3377 10.7651C0.662436 15.1453 -0.448315 20.1672 2.74995 23.3655L12.633 33.2489C15.8292 36.4472 20.8531 35.3364 25.2332 33.6591C27.3105 32.8651 28.6325 30.9562 26.7379 28.5986C26.4394 28.227 26.0617 27.8452 25.5946 27.4533L22.0187 24.4641C21.2693 23.8386 20.1972 23.7737 19.5067 24.4641L18.5523 25.4185L15.3033 28.6677Z" fill="#A0C8FF"/>
<path d="M14.3038 19.0204C14.0977 19.2951 14.0579 19.6257 14.1974 19.9047C14.3382 20.1863 14.6322 20.3544 14.9839 20.3544H19.4757C19.864 20.3544 20.1787 20.0397 20.1787 19.6514C20.1787 19.2632 19.864 18.9484 19.4757 18.9484H16.1233L19.449 14.565C19.4666 14.5417 19.4828 14.5172 19.4975 14.4919C19.8757 13.8376 19.9762 13.0757 19.7806 12.3465C19.5852 11.618 19.1176 11.0096 18.465 10.6336C17.8114 10.2557 17.0502 10.1551 16.3218 10.3502C15.5937 10.5452 14.9847 11.0126 14.6067 11.6665C14.313 12.1753 14.186 12.7516 14.2393 13.3332C14.2748 13.7199 14.6173 14.0053 15.0036 13.969C15.3903 13.9335 15.6749 13.5914 15.6394 13.2047C15.6128 12.9141 15.6767 12.6253 15.8242 12.3699C16.0141 12.0413 16.3201 11.8064 16.6856 11.7085C17.0511 11.6106 17.4331 11.6613 17.7624 11.8516C18.0902 12.0404 18.3246 12.3456 18.4226 12.7109C18.5174 13.0643 18.4737 13.4331 18.2997 13.7538L14.3038 19.0204Z" fill="black"/>
<path d="M25.3069 20.3545C25.6952 20.3545 26.0099 20.0397 26.0099 19.6514V18.0638H26.572C26.9602 18.0638 27.275 17.7491 27.275 17.3608C27.275 16.9726 26.9602 16.6578 26.572 16.6578H26.0099V10.9581C26.0099 10.6488 25.8078 10.3759 25.512 10.2856C25.2163 10.1954 24.8961 10.309 24.7235 10.5656L20.4166 16.9684C20.2715 17.184 20.2573 17.4619 20.3794 17.6913C20.5015 17.9206 20.7401 18.0638 20.9999 18.0638H24.6039V19.6514C24.6039 20.0397 24.9186 20.3545 25.3069 20.3545ZM22.32 16.6578L24.6038 13.2627V16.6578H22.32Z" fill="black"/>
<path d="M33.6206 7.10859C33.4125 6.78085 32.978 6.68398 32.6503 6.89214C32.3225 7.1003 32.2256 7.53476 32.4338 7.8625C33.7205 9.88814 34.4542 12.2044 34.5745 14.6007H31.7458C31.3576 14.6007 31.0428 14.9154 31.0428 15.3037C31.0428 15.692 31.3576 16.0067 31.7458 16.0067H34.5742C34.3207 20.9904 31.3874 25.4915 26.9174 27.7338C26.6683 27.467 26.3799 27.1934 26.0459 26.914L22.4696 23.9245C21.4078 23.0382 19.9206 23.0565 19.0101 23.9671L15.2098 27.7675C12.583 26.0015 9.99664 23.4149 8.23089 20.788C8.97468 20.0442 10.4203 18.5989 11.0782 17.9426L12.0301 16.9887C12.9421 16.0766 12.9601 14.589 12.0725 13.529L9.08519 9.95261C8.80588 9.61868 8.53227 9.33024 8.26555 9.08123C10.5059 4.61102 15.0068 1.67766 19.9921 1.42429V4.2527C19.9921 4.64097 20.3069 4.95571 20.6951 4.95571C21.0834 4.95571 21.3981 4.64097 21.3981 4.2527V1.42394C23.8177 1.54528 26.154 2.29166 28.1943 3.60143C28.5209 3.81121 28.9558 3.71645 29.1656 3.38962C29.3754 3.06293 29.2805 2.62798 28.9538 2.41827C26.4895 0.836227 23.6337 0 20.6951 0C17.7004 0 14.8 0.864769 12.3074 2.50088C10.1127 3.94148 8.33522 5.90666 7.12766 8.21801C6.14261 7.64035 5.29865 7.5808 4.67558 7.68478C3.37783 7.90159 2.28655 8.93276 1.68161 10.514C0.164241 14.4815 -1.42744 20.1818 2.25337 23.8626L12.1364 33.7458C13.804 35.4145 15.886 36 18.0338 36C20.6265 36 23.315 35.1466 25.4849 34.3157C27.0655 33.7109 28.0963 32.6198 28.3131 31.3223C28.4172 30.6995 28.3576 29.8559 27.7805 28.8714C30.0921 27.6629 32.0573 25.8851 33.4977 23.6908C35.1338 21.1985 35.9985 18.2982 35.9985 15.3036C35.9985 12.3913 35.1762 9.55759 33.6206 7.10859ZM26.9263 31.0906C26.7958 31.8721 26.0691 32.5868 24.9823 33.0026C19.2583 35.1946 15.4923 35.1151 13.1307 32.7518L3.24756 22.8685C0.885807 20.5066 0.805524 16.7406 2.99483 11.0163C3.4108 9.9292 4.12568 9.20222 4.90736 9.0716C5.83048 8.91722 6.90207 9.53397 8.00642 10.8544L10.9941 14.431C11.3577 14.8652 11.4888 15.5417 11.0354 15.9952L10.0842 16.9484C9.49012 17.541 8.25135 18.7794 7.46919 19.5615C7.17195 19.0392 6.91163 18.52 6.69546 18.0103C6.54382 17.6529 6.13108 17.486 5.77374 17.6377C5.41633 17.7892 5.24944 18.2019 5.40108 18.5594C6.36357 20.8288 8.14147 23.3264 10.4072 25.5921C11.8519 27.0369 13.3908 28.2827 14.9048 29.2459C14.9182 29.2552 14.932 29.2637 14.9458 29.2719C15.7922 29.8077 16.6306 30.2552 17.4398 30.5984C17.5294 30.6364 17.6224 30.6543 17.714 30.6543C17.9876 30.6543 18.2479 30.4935 18.3614 30.2256C18.5131 29.8682 18.3462 29.4556 17.9888 29.3039C17.4787 29.0875 16.9591 28.827 16.4363 28.5294L20.0044 24.9612C20.4563 24.5093 21.1334 24.6405 21.5683 25.0036L25.1441 27.9927C26.4642 29.0966 27.0804 30.1679 26.9263 31.0906Z" fill="black"/>
<path d="M31.0199 5.68472C31.1979 5.68472 31.3759 5.61758 31.5128 5.48295C31.7897 5.21068 31.7934 4.76561 31.5212 4.48876L31.5191 4.48672C31.2469 4.20988 30.8029 4.20714 30.526 4.47941C30.2492 4.75169 30.2464 5.19774 30.5187 5.47459C30.6563 5.61456 30.8381 5.68472 31.0199 5.68472Z" fill="black"/>
</svg>
