<svg width="42" height="50" viewBox="0 0 42 50" fill="none" xmlns="http://www.w3.org/2000/svg">
<path d="M0.942095 6.46747L5.99681 5.11307C7.12428 6.23883 8.80528 6.74961 10.4555 6.30744C12.1057 5.86526 13.3061 4.58241 13.7197 3.04373L18.7744 1.68932C19.0423 2.68927 28.3155 37.2973 28.5696 38.2455L23.5149 39.5999C22.3874 38.4742 20.7064 37.9634 19.0562 38.4056C17.406 38.8477 16.2056 40.1306 15.792 41.6693L10.7373 43.0237L0.942095 6.46747Z" fill="#FFDA8F"/>
<path d="M19.2138 21.1614C18.5541 18.6993 16.0233 17.2381 13.5612 17.8979C11.0991 18.5576 9.63792 21.0883 10.2976 23.5505C10.9574 26.0126 13.4881 27.4737 15.9503 26.814C18.4124 26.1543 19.8735 23.6235 19.2138 21.1614Z" fill="white"/>
<path d="M15.2186 12.1966C15.1087 11.7863 14.6869 11.5428 14.2765 11.6527L9.81847 12.8473C9.4081 12.9572 9.16459 13.379 9.27454 13.7894C9.3845 14.1997 9.80628 14.4432 10.2166 14.3333L14.6747 13.1388C15.0851 13.0288 15.3286 12.607 15.2186 12.1966Z" fill="black"/>
<path d="M19.9568 20.9611C19.1883 18.0932 16.23 16.3852 13.3621 17.1537C10.4942 17.9221 8.78617 20.8805 9.55462 23.7484C10.3231 26.6163 13.2814 28.3243 16.1493 27.5558C19.0172 26.7874 20.7252 23.829 19.9568 20.9611ZM11.0406 23.3502C10.4917 21.3017 11.7118 19.1886 13.7603 18.6397C15.8087 18.0908 17.9219 19.3108 18.4708 21.3593C19.0197 23.4078 17.7996 25.5209 15.7511 26.0698C13.7027 26.6187 11.5895 25.3987 11.0406 23.3502Z" fill="black"/>
<path d="M16.9458 30.5284C16.5354 30.6383 16.2919 31.0601 16.4019 31.4705L16.9992 33.6995C17.1091 34.1099 17.5309 34.3534 17.9413 34.2434C18.3516 34.1335 18.5951 33.7117 18.4852 33.3013L17.8879 31.0723C17.778 30.6619 17.3562 30.4184 16.9458 30.5284Z" fill="black"/>
<path d="M22.3465 29.8774L21.7492 27.6484C21.6393 27.238 21.2175 26.9945 20.8071 27.1044C20.3968 27.2144 20.1533 27.6362 20.2632 28.0465L20.8605 30.2756C20.9704 30.6859 21.3922 30.9295 21.8026 30.8195C22.2129 30.7095 22.4565 30.2878 22.3465 29.8774Z" fill="black"/>
<path d="M11.3472 30.4357L11.9445 32.6647C12.0544 33.0751 12.4762 33.3186 12.8866 33.2086C13.2969 33.0987 13.5404 32.6769 13.4305 32.2665L12.8332 30.0375C12.7233 29.6271 12.3015 29.3836 11.8911 29.4936C11.4808 29.6035 11.2372 30.0253 11.3472 30.4357Z" fill="black"/>
<path d="M25.6102 24.2237C25.5002 23.8134 25.0784 23.5698 24.6681 23.6798C24.2577 23.7897 24.0142 24.2115 24.1242 24.6219C24.2341 25.0322 24.6559 25.2758 25.0663 25.1658C25.4766 25.0559 25.7201 24.6341 25.6102 24.2237Z" fill="black"/>
<path d="M29.3126 38.0449L26.5054 27.5683C26.3954 27.158 25.9737 26.9145 25.5633 27.0244C25.1529 27.1344 24.9094 27.5562 25.0194 27.9665L27.6275 37.7001L23.7228 38.7463C22.3849 37.6203 20.5609 37.2045 18.8571 37.661C17.1533 38.1175 15.7816 39.3897 15.1859 41.0338L11.2812 42.08L4.27325 15.926L5.75927 15.5278C6.16964 15.4179 6.41315 14.9961 6.3032 14.5857C6.19324 14.1753 5.77146 13.9318 5.36109 14.0418L3.87507 14.44L1.88417 7.00984L5.78885 5.96359C7.12678 7.08958 8.95078 7.50543 10.6546 7.04889C12.3584 6.59236 13.7301 5.32023 14.3258 3.67613L18.2304 2.62987L20.2213 10.06L18.7353 10.4582C18.325 10.5681 18.0814 10.9899 18.1914 11.4003C18.3014 11.8106 18.7231 12.0542 19.1335 11.9442L20.6195 11.546L23.2276 21.2794C23.3375 21.6898 23.7593 21.9333 24.1697 21.8233C24.58 21.7134 24.8236 21.2916 24.7136 20.8812L19.5174 1.48868C19.4074 1.07831 18.9856 0.8348 18.5753 0.944757L13.5206 2.29916C13.2553 2.37024 13.0481 2.57731 12.9768 2.84255C12.6211 4.16619 11.5787 5.20857 10.2564 5.56287C8.93413 5.91717 7.51019 5.53564 6.54027 4.56723C6.34598 4.37321 6.06295 4.29743 5.79769 4.3685L0.742982 5.72291C0.332616 5.83286 0.0891018 6.25464 0.199059 6.66501L9.99427 43.2212C10.1042 43.6316 10.526 43.8751 10.9364 43.7651L15.9911 42.4107C16.2563 42.3397 16.4636 42.1326 16.5348 41.8673C16.8906 40.5437 17.933 39.5013 19.2553 39.147C20.5775 38.7927 22.0015 39.1743 22.9714 40.1427C23.1657 40.3368 23.4487 40.4125 23.714 40.3414L28.7687 38.987C29.179 38.877 29.4225 38.4553 29.3126 38.0449Z" fill="black"/>
<path d="M22.552 6.89734L27.6068 8.25175C28.0203 9.79043 29.2207 11.0733 30.8709 11.5155C32.5212 11.9576 34.2022 11.4469 35.3296 10.3211L40.3843 11.6755C40.1164 12.6754 30.8432 47.2835 30.5891 48.2317L25.5344 46.8773C25.1209 45.3386 23.9205 44.0558 22.2703 43.6136C20.62 43.1714 18.939 43.6822 17.8115 44.808L12.7568 43.4536L22.552 6.89734Z" fill="#FFDA8F"/>
<path d="M31.0287 28.7585C31.6884 26.2964 30.2272 23.7657 27.7651 23.1059C25.303 22.4462 22.7722 23.9073 22.1125 26.3695C21.4528 28.8316 22.9139 31.3624 25.376 32.0221C27.8382 32.6818 30.3689 31.2207 31.0287 28.7585Z" fill="white"/>
<path d="M32.0514 18.9976C32.1613 18.5872 31.9178 18.1654 31.5075 18.0555L27.0494 16.861C26.639 16.751 26.2172 16.9945 26.1073 17.4049C25.9973 17.8152 26.2408 18.237 26.6512 18.347L31.1093 19.5415C31.5197 19.6515 31.9414 19.408 32.0514 18.9976Z" fill="black"/>
<path d="M31.7724 28.9568C32.5408 26.0889 30.8328 23.1305 27.9649 22.3621C25.097 21.5936 22.1386 23.3017 21.3702 26.1696C20.6017 29.0374 22.3098 31.9958 25.1776 32.7643C28.0455 33.5327 31.0039 31.8247 31.7724 28.9568ZM22.8562 26.5677C23.4051 24.5192 25.5182 23.2992 27.5667 23.8481C29.6152 24.397 30.8352 26.5101 30.2863 28.5586C29.7374 30.6071 27.6243 31.8271 25.5758 31.2782C23.5273 30.7293 22.3073 28.6162 22.8562 26.5677Z" fill="black"/>
<path d="M24.381 35.7367C23.9707 35.6267 23.5489 35.8702 23.4389 36.2806L22.8417 38.5096C22.7317 38.92 22.9752 39.3418 23.3856 39.4517C23.796 39.5617 24.2177 39.3182 24.3277 38.9078L24.925 36.6788C25.0349 36.2684 24.7914 35.8466 24.381 35.7367Z" fill="black"/>
<path d="M29.3834 37.8732L29.9806 35.6441C30.0906 35.2338 29.8471 34.812 29.4367 34.702C29.0263 34.5921 28.6046 34.8356 28.4946 35.2459L27.8973 37.475C27.7874 37.8853 28.0309 38.3071 28.4413 38.4171C28.8516 38.527 29.2734 38.2835 29.3834 37.8732Z" fill="black"/>
<path d="M19.5786 32.8569L18.9813 35.086C18.8714 35.4963 19.1149 35.9181 19.5252 36.0281C19.9356 36.138 20.3574 35.8945 20.4673 35.4841L21.0646 33.2551C21.1746 32.8447 20.9311 32.423 20.5207 32.313C20.1103 32.203 19.6885 32.4466 19.5786 32.8569Z" fill="black"/>
<path d="M35.0367 34.6087C35.1466 34.1984 34.9031 33.7766 34.4928 33.6666C34.0824 33.5567 33.6606 33.8002 33.5507 34.2105C33.4407 34.6209 33.6842 35.0427 34.0946 35.1526C34.5049 35.2626 34.9267 35.0191 35.0367 34.6087Z" fill="black"/>
<path d="M31.3328 48.4297L34.14 37.9531C34.25 37.5427 34.0065 37.121 33.5961 37.011C33.1857 36.901 32.764 37.1446 32.654 37.5549L30.0459 47.2885L26.1412 46.2422C25.5455 44.5981 24.1738 43.326 22.47 42.8694C20.7662 42.4129 18.9422 42.8288 17.6043 43.9547L13.6996 42.9085L20.7076 16.7545L22.1936 17.1526C22.604 17.2626 23.0258 17.0191 23.1357 16.6087C23.2457 16.1983 23.0022 15.7766 22.5918 15.6666L21.1058 15.2684L23.0967 7.8383L27.0013 8.88456C27.597 10.5287 28.9687 11.8008 30.6725 12.2573C32.3763 12.7139 34.2003 12.298 35.5383 11.172L39.4429 12.2183L37.452 19.6484L35.966 19.2502C35.5556 19.1403 35.1339 19.3838 35.0239 19.7941C34.914 20.2045 35.1575 20.6263 35.5678 20.7362L37.0539 21.1344L34.4458 30.8678C34.3358 31.2782 34.5794 31.7 34.9897 31.8099C35.4001 31.9199 35.8219 31.6764 35.9318 31.266L41.128 11.8734C41.238 11.4631 40.9945 11.0413 40.5841 10.9313L35.5294 9.57693C35.2642 9.50586 34.9811 9.58157 34.7868 9.77566C33.8169 10.7441 32.393 11.1256 31.0707 10.7713C29.7484 10.417 28.706 9.37462 28.3503 8.05099C28.279 7.78582 28.0718 7.57867 27.8065 7.5076L22.7518 6.15319C22.3415 6.04323 21.9197 6.28675 21.8097 6.69711L12.0145 43.2533C11.9046 43.6637 12.1481 44.0855 12.5584 44.1954L17.6132 45.5498C17.8784 45.6209 18.1614 45.5452 18.3557 45.3511C19.3256 44.3827 20.7496 44.0012 22.0719 44.3555C23.3941 44.7098 24.4365 45.7521 24.7923 47.0758C24.8635 47.341 25.0708 47.5481 25.336 47.6192L30.3907 48.9736C30.8011 49.0835 31.2229 48.84 31.3328 48.4297Z" fill="black"/>
</svg>
