<svg width="161" height="44" viewBox="0 0 161 44" fill="none" xmlns="http://www.w3.org/2000/svg">
<path fill-rule="evenodd" clip-rule="evenodd" d="M80.2787 0L82.1865 2.48449L81.1078 8.53224L83.3374 2.48449H86.1514L80.2787 11.3489L74.4086 2.48449H77.2201L79.4523 8.53224L78.3735 2.48449L80.2787 0ZM125.854 21.4645C126.256 22.5278 126.725 23.3774 127.265 24.0082C128.208 25.1101 129.376 25.6637 130.772 25.6637C131.526 25.6637 132.178 25.4242 132.726 24.9453C133.282 24.4665 133.56 23.7996 133.56 22.9449C133.56 22.1725 133.285 21.5031 132.726 20.9315C132.366 20.5685 131.601 20.0253 130.435 19.3018L128.413 18.0403C127.803 17.6566 127.317 17.2653 126.956 16.8714C126.284 16.1222 125.95 15.2983 125.95 14.3946C125.95 13.1974 126.346 12.2036 127.139 11.4106C127.935 10.6151 128.988 10.2186 130.298 10.2186C130.839 10.2186 131.488 10.3551 132.242 10.6228C133.007 10.8854 133.442 11.0167 133.55 11.0167C133.841 11.0167 134.044 10.9472 134.152 10.8108C134.268 10.6717 134.358 10.4761 134.417 10.2212H134.904L135.424 15.2648H134.855C134.469 13.7458 133.848 12.6851 132.994 12.0826C132.144 11.4802 131.305 11.1815 130.471 11.1815C129.824 11.1815 129.255 11.3746 128.771 11.7608C128.295 12.1367 128.053 12.6671 128.053 13.3442C128.053 13.9544 128.238 14.4744 128.609 14.907C128.98 15.3472 129.554 15.8055 130.334 16.2844L132.414 17.5691C133.717 18.3698 134.636 19.1061 135.169 19.7781C135.692 20.4578 135.955 21.2585 135.955 22.1854C135.955 23.4263 135.483 24.4639 134.544 25.2981C133.609 26.1297 132.414 26.5467 130.957 26.5467C130.226 26.5467 129.459 26.4077 128.656 26.1297C127.86 25.8516 127.404 25.7126 127.291 25.7126C127.013 25.7126 126.822 25.7975 126.725 25.9675C126.632 26.1374 126.57 26.3176 126.539 26.5107H126.019L125.314 21.467H125.854V21.4645ZM67.2976 42.8595C67.7224 43.3718 68.2399 43.6293 68.8552 43.6293C69.4577 43.6293 69.9726 43.3795 70.3974 42.88C70.8274 42.378 71.0411 41.5747 71.0411 40.4728C71.0411 39.358 70.8248 38.5547 70.3923 38.0578C69.9597 37.5609 69.45 37.3137 68.8552 37.3137C68.2425 37.3137 67.725 37.5712 67.2976 38.0861C66.8754 38.5985 66.6643 39.394 66.6643 40.4728C66.6668 41.5464 66.8754 42.342 67.2976 42.8595ZM66.5355 37.8467C67.1663 37.2442 67.9387 36.943 68.8552 36.943C69.777 36.943 70.5519 37.2468 71.1827 37.8518C71.8675 38.5084 72.2074 39.3812 72.2074 40.4728C72.2074 41.5824 71.8547 42.463 71.1466 43.1195C70.5159 43.7065 69.7512 43.9974 68.8552 44C67.8975 44 67.1019 43.6756 66.4686 43.0268C65.8275 42.3651 65.5057 41.5155 65.5057 40.4754C65.5083 39.3812 65.8507 38.5058 66.5355 37.8467ZM56.2783 43.4491C56.1779 43.552 55.9281 43.6241 55.5291 43.6679V43.8584H58.3714V43.673C57.9955 43.6422 57.7509 43.5726 57.6377 43.4671C57.5244 43.3615 57.4677 43.1221 57.4677 42.7488V40.6427H60.5676V42.6278C60.5676 43.0706 60.5186 43.3461 60.4182 43.4516C60.323 43.5572 60.0732 43.6293 59.6716 43.6705V43.8558H62.5114V43.6705C62.1355 43.637 61.8909 43.5675 61.7776 43.4645C61.6669 43.3589 61.6129 43.1195 61.6129 42.7462V38.1994C61.6129 37.8313 61.6669 37.5944 61.7776 37.4837C61.8909 37.3756 62.1355 37.306 62.5114 37.2803V37.0898H59.6716V37.2803C60.0501 37.306 60.2947 37.3756 60.4054 37.4837C60.5135 37.5944 60.5676 37.8338 60.5676 38.1994V40.1896H57.4677V38.1994C57.4677 37.8313 57.5244 37.5944 57.6377 37.4837C57.7484 37.3756 57.9955 37.306 58.3714 37.2803V37.0898H55.5291V37.2803C55.905 37.306 56.147 37.3756 56.2577 37.4837C56.371 37.5944 56.4276 37.8338 56.4276 38.1994V42.6252C56.4276 43.068 56.3787 43.3435 56.2783 43.4491ZM74.4601 38.8251L74.5245 37.0872H80.3019L80.3559 38.8251H80.1114C79.9904 38.2793 79.8359 37.924 79.6505 37.7618C79.4677 37.597 79.0789 37.512 78.4868 37.512H77.9152V42.7436C77.9152 43.1401 77.9796 43.3873 78.1006 43.4825C78.2216 43.5752 78.4919 43.637 78.909 43.6679V43.8533H75.9302V43.6679C76.3627 43.6344 76.6305 43.5624 76.7361 43.4516C76.8442 43.3409 76.8983 43.0655 76.8983 42.6226V37.512H76.3293C75.7629 37.512 75.3767 37.5944 75.1707 37.7566C74.9673 37.9188 74.8128 38.2741 74.7098 38.8251H74.4601ZM83.4455 43.6679C83.8214 43.6267 84.0634 43.5623 84.1741 43.4671C84.2874 43.3718 84.344 43.1298 84.344 42.7436V38.1969C84.344 37.8338 84.2874 37.597 84.1793 37.4888C84.0711 37.3756 83.8265 37.306 83.4455 37.2803V37.0898H88.8779L88.9114 38.5573H88.6514C88.5638 38.1042 88.4351 37.8132 88.2626 37.6794C88.0901 37.5455 87.7039 37.4785 87.104 37.4785H85.7163C85.567 37.4785 85.4743 37.5043 85.4383 37.5532C85.4048 37.5995 85.3893 37.6897 85.3893 37.8235V40.1046H86.9624C87.3975 40.1046 87.6756 40.0403 87.794 39.909C87.915 39.7802 88.0103 39.5176 88.085 39.1211H88.3244V41.4872H88.085C88.0077 41.0907 87.9099 40.8281 87.7914 40.7019C87.6704 40.5732 87.395 40.5063 86.9624 40.5063H85.3893V43.0371C85.3893 43.2405 85.4537 43.3615 85.5799 43.3976C85.7086 43.4336 86.0948 43.4516 86.7333 43.4516C87.4258 43.4516 87.9356 43.377 88.2652 43.2251C88.5947 43.0732 88.8908 42.705 89.1534 42.1231H89.4392L88.9732 43.8507H83.4481V43.6679H83.4455ZM92.449 43.6679C92.8249 43.6267 93.0669 43.5623 93.1776 43.4671C93.2909 43.3718 93.3475 43.1298 93.3475 42.7436V38.1969C93.3475 37.8338 93.2934 37.597 93.1827 37.4888C93.072 37.3756 92.83 37.306 92.449 37.2803V37.0898H95.3402V37.2803C94.9644 37.3009 94.712 37.3601 94.5807 37.4657C94.4546 37.5687 94.3902 37.7901 94.3902 38.1299V43.0423C94.3902 43.1555 94.4082 43.2457 94.4443 43.3126C94.4829 43.377 94.5704 43.4156 94.6992 43.4336C94.7764 43.4439 94.8562 43.4491 94.9386 43.4542C95.0261 43.4594 95.1832 43.4594 95.4175 43.4594C96.3263 43.4594 96.9391 43.3847 97.2609 43.2328C97.5802 43.0835 97.8891 42.6998 98.1878 42.0845H98.4504L97.9483 43.8558H92.4464V43.6679H92.449ZM100.672 41.7961C100.845 42.257 101.048 42.6225 101.282 42.8955C101.689 43.3718 102.194 43.6086 102.794 43.6086C103.121 43.6086 103.401 43.5056 103.638 43.2997C103.878 43.0937 103.999 42.8053 103.999 42.4372C103.999 42.105 103.878 41.8141 103.638 41.567C103.481 41.4099 103.152 41.1782 102.65 40.8641L101.777 40.3208C101.512 40.1535 101.303 39.9861 101.146 39.8162C100.858 39.4944 100.713 39.1391 100.713 38.7478C100.713 38.2328 100.886 37.8029 101.228 37.4605C101.571 37.118 102.024 36.9455 102.59 36.9455C102.825 36.9455 103.105 37.0048 103.43 37.1206C103.759 37.2339 103.947 37.2905 103.993 37.2905C104.12 37.2905 104.205 37.2596 104.251 37.2004C104.302 37.1412 104.338 37.0562 104.367 36.9455H104.575L104.799 39.1237H104.555C104.39 38.4671 104.122 38.0114 103.751 37.7514C103.386 37.4914 103.023 37.3626 102.662 37.3626C102.384 37.3626 102.14 37.445 101.929 37.6124C101.723 37.7746 101.62 38.0037 101.62 38.2972C101.62 38.5598 101.699 38.7864 101.859 38.9718C102.019 39.1623 102.268 39.3605 102.603 39.5639L103.502 40.12C104.063 40.465 104.459 40.7817 104.691 41.0726C104.915 41.3661 105.028 41.7111 105.031 42.1128C105.031 42.6483 104.828 43.0963 104.421 43.4541C104.017 43.8146 103.502 43.9922 102.873 43.9922C102.557 43.9922 102.225 43.933 101.88 43.812C101.537 43.691 101.342 43.6318 101.29 43.6318C101.169 43.6318 101.089 43.6678 101.046 43.7425C101.004 43.8172 100.979 43.8944 100.963 43.9768H100.739L100.435 41.8012H100.672V41.7961ZM53.4694 25.3753C53.1836 25.5915 52.5579 25.7332 51.595 25.8027V26.2301H58.6057V25.8027C57.6402 25.7332 57.0172 25.5915 56.7314 25.3753C56.4456 25.1513 56.304 24.5797 56.304 23.6632V13.1253C56.304 12.2525 56.4456 11.6938 56.7314 11.4467C57.0172 11.1918 57.6402 11.0425 58.6057 10.9961V10.5559H51.595V10.9935C52.5579 11.0399 53.1836 11.1892 53.4694 11.4441C53.7551 11.6913 53.8967 12.2525 53.8967 13.1227V23.6632C53.8967 24.5823 53.7551 25.1513 53.4694 25.3753ZM101.481 23.9284C102.459 25.1153 103.661 25.71 105.088 25.71C106.483 25.71 107.675 25.1307 108.664 23.9747C109.66 22.811 110.157 20.9521 110.157 18.4007C110.157 15.8158 109.655 13.9518 108.653 12.8009C107.649 11.6527 106.462 11.0785 105.09 11.0785C103.672 11.0785 102.467 11.6758 101.483 12.8705C100.502 14.0574 100.013 15.9008 100.013 18.4007C100.013 20.8904 100.502 22.7338 101.481 23.9284ZM99.7118 12.3143C101.169 10.9189 102.961 10.2212 105.09 10.2212C107.227 10.2212 109.022 10.9215 110.481 12.3272C112.062 13.8462 112.853 15.8725 112.853 18.4007C112.853 20.9676 112.036 23.0118 110.399 24.5308C108.934 25.8877 107.163 26.5674 105.09 26.5674C102.871 26.5674 101.027 25.8156 99.5625 24.312C98.0744 22.7775 97.3277 20.808 97.3277 18.4007C97.3277 15.8699 98.1233 13.8411 99.7118 12.3143ZM26.3073 25.2671C26.0833 25.5375 25.5169 25.7151 24.608 25.8001V26.2301H31.1913V25.8027C30.2979 25.728 29.7161 25.5735 29.4457 25.3418C29.1831 25.0998 29.0518 24.5437 29.0518 23.6632V19.0006L30.37 18.9439L36.0161 26.2301H39.8317V25.8027C39.3605 25.7563 38.9769 25.6482 38.6757 25.4783C38.3745 25.3083 38.0758 25.038 37.7746 24.6673L32.8906 18.6633C34.2088 18.4625 35.2515 18.048 36.0135 17.4146C36.7834 16.7838 37.1695 15.8776 37.1695 14.6958C37.1695 12.9374 36.3045 11.7325 34.5795 11.0759C33.6681 10.7309 32.5301 10.5559 31.1656 10.5559H24.608V10.9961C25.4628 11.0656 26.0138 11.2304 26.2609 11.493C26.5158 11.7453 26.642 12.2886 26.642 13.1227V23.3825C26.642 24.3686 26.5287 24.9968 26.3073 25.2671ZM34.5898 14.6727C34.5898 16.099 33.9616 17.0722 32.7052 17.5871C31.9714 17.8806 30.7536 18.0583 29.0492 18.12V12.2783C29.0492 11.923 29.1213 11.699 29.2681 11.6063C29.4226 11.5059 29.8345 11.457 30.5065 11.457C31.5003 11.457 32.2984 11.5908 32.9009 11.8612C34.0285 12.3632 34.5898 13.3004 34.5898 14.6727ZM80.2813 15.5764L87.3255 5.22646H90.7729L82.4389 18.1664L90.1138 30.0199L160.558 30.1229L146.673 32.3319L88.188 32.5404L80.2813 20.4655L72.3696 32.5404L13.8874 32.3319L0 30.1229L70.4463 30.0199L78.1212 18.1664L69.7872 5.22646H73.2346L80.2813 15.5764Z" fill="#897869"/>
</svg>
