<svg width="22" height="22" viewBox="0 0 22 22" fill="none" xmlns="http://www.w3.org/2000/svg">
<circle cx="11" cy="11" r="11" fill="#F87F27"/>
<path fill-rule="evenodd" clip-rule="evenodd" d="M5.78586 6.28687H15.6429C15.933 6.28687 16.1842 6.39179 16.3963 6.60153C16.6082 6.81153 16.7144 7.06367 16.7144 7.35834C16.7144 7.71102 16.6049 8.04808 16.3865 8.36941C16.1677 8.69075 15.8954 8.96541 15.5696 9.19302C14.4861 9.94503 13.6684 10.5128 13.1133 10.8985C12.8082 11.1104 12.5812 11.2681 12.4356 11.3694C12.414 11.3846 12.3803 11.4086 12.3355 11.4408C12.2872 11.4753 12.2262 11.5193 12.151 11.5737C12.0059 11.6787 11.8854 11.7635 11.7894 11.8282C11.6932 11.8929 11.5772 11.9655 11.4411 12.0459C11.3048 12.1263 11.1765 12.1865 11.056 12.2267C10.9355 12.2668 10.8238 12.2869 10.7212 12.2869H10.7145H10.7079C10.6052 12.2869 10.4936 12.2668 10.3731 12.2267C10.2525 12.1865 10.1241 12.1261 9.98799 12.0459C9.85174 11.9655 9.73559 11.8931 9.63973 11.8282C9.54374 11.7635 9.42321 11.6786 9.27814 11.5737L9.09347 11.4407L9.08834 11.437C9.04609 11.4068 9.0141 11.3839 8.99347 11.3694C8.80654 11.238 8.58013 11.0796 8.3176 10.8967C8.00961 10.6818 7.65119 10.4329 7.23905 10.1473C6.47558 9.61836 6.01797 9.30023 5.86623 9.19302C5.58943 9.00554 5.32823 8.74781 5.08276 8.41968C4.83729 8.09142 4.7145 7.78673 4.7145 7.50553C4.7145 7.1574 4.80702 6.86711 4.99239 6.635C5.17759 6.40299 5.44198 6.28687 5.78586 6.28687ZM4.71448 9.32695C4.91088 9.54575 5.13649 9.74 5.39089 9.90961C6.33916 10.554 7.11156 11.0846 7.71104 11.5031L4.71448 14.4997V9.32695ZM16.3451 15.4509C16.1465 15.6268 15.9127 15.7159 15.643 15.7159H5.78596C5.51624 15.7159 5.28236 15.6268 5.08369 15.4509L8.48414 12.0501C8.56919 12.1112 8.64786 12.1682 8.7188 12.2202C8.97336 12.4077 9.17974 12.554 9.33828 12.6588C9.49667 12.7638 9.70761 12.8709 9.97108 12.9802C10.2345 13.0897 10.48 13.1442 10.7078 13.1442H10.7144H10.7211C10.9488 13.1442 11.1943 13.0897 11.4578 12.9802C11.7211 12.8709 11.932 12.7638 12.0906 12.6588C12.2491 12.554 12.4556 12.4077 12.71 12.2202C12.7847 12.1662 12.8638 12.1094 12.9454 12.051L16.3451 15.4509ZM16.0449 9.90961C15.1328 10.527 14.3576 11.0584 13.7192 11.5043L16.7145 14.4998V9.32695C16.5225 9.54135 16.2993 9.73547 16.0449 9.90961Z" fill="white"/>
</svg>
